<?xml version="1.0" standalone="no"?>
<!DOCTYPE svg PUBLIC "-//W3C//DTD SVG 1.1//EN" "http://www.w3.org/Graphics/SVG/1.1/DTD/svg11.dtd" >
<svg xmlns="http://www.w3.org/2000/svg">
<metadata>
This is a custom SVG webfont generated by Font Squirrel.
Copyright   : cCopyright ParaGraph International 1992
</metadata>
<defs>
<font id="JakobCTTRegular" horiz-adv-x="995" >
<font-face units-per-em="2048" ascent="1638" descent="-410" />
<missing-glyph horiz-adv-x="413" />
<glyph unicode=" "  horiz-adv-x="413" />
<glyph unicode="&#x09;" horiz-adv-x="413" />
<glyph unicode="&#xa0;" horiz-adv-x="413" />
<glyph unicode="!" horiz-adv-x="413" d="M80 37q0 2 2 4q6 37 71.5 90t110.5 53q27 0 47.5 -24.5t20.5 -59.5q0 -51 -60.5 -105t-105.5 -54q-29 0 -55.5 26.5t-28.5 65.5q-2 2 -2 4zM90 696q0 80 17.5 309.5t37.5 405.5l19 170q10 109 84 104.5t74 -92.5q-2 -512 -40 -656t-38 -269q0 -53 23.5 -76t23.5 -105 q0 -12 -3 -16t-14 -2q-90 -2 -138 60.5t-46 166.5z" />
<glyph unicode="&#x22;" horiz-adv-x="798" d="M82 1763q0 27 24.5 52.5t61.5 27.5q86 -2 156.5 -146.5t70.5 -291.5q-2 -27 -9 -55.5t-21 -57.5q-12 -23 -33 -45t-31 -22q-8 -2 -12 8t-4 27q0 8 3 27.5t3 29.5q0 201 -104.5 248.5t-104.5 197.5zM430 1823q0 20 19.5 39.5t42.5 19.5q59 0 142 -99.5t83 -209.5 q0 -61 -26.5 -160.5t-53.5 -99.5q-10 0 -15.5 6t-5.5 20q0 12 11.5 59.5t11.5 88.5q0 78 -46 153.5t-112 118.5q-35 20 -43 34t-8 30z" />
<glyph unicode="#" horiz-adv-x="1589" d="M59.5 312q10.5 36 42.5 55q51 33 99.5 58.5t187.5 92.5l154 74q6 100 19 203.5t34 210.5q-102 -41 -217 -111t-195 -84q-20 -8 -27 -4t-10 16q-4 20 5.5 33.5t33.5 26.5q68 33 127.5 64.5t190.5 105.5l117 65q12 49 21 89t50 286q10 43 85 83t71 -54q-4 -55 -14.5 -109.5 t-38.5 -187.5q84 14 149.5 36.5t114.5 55.5q14 66 31.5 133.5t39.5 136.5q0 29 15.5 45.5t36.5 16.5q49 0 67.5 -78t-28.5 -189q106 18 131.5 24.5t42.5 12.5q55 18 90 28.5t53 10.5q6 0 13.5 -7t7.5 -11q0 -10 -36 -17.5t-50 -13.5l-111 -49q-20 -10 -54 -27.5t-94 -40.5 l-30 -145q-27 -123 -33 -178.5t-4 -106.5q53 27 122.5 54.5t110.5 35.5q18 12 30.5 13.5t25.5 -11.5q8 -10 -0.5 -14t-32.5 -2q-25 -6 -44.5 -13t-230.5 -124q-43 -137 -92 -342t-71 -334q-2 -78 -5.5 -97.5t-9.5 -19.5q-20 0 -33.5 36t-13.5 99q0 119 18.5 262.5 t59.5 323.5q-59 -14 -121.5 -46t-173.5 -99q-20 -121 -19 -233.5t21 -207.5q8 -27 4 -40t-20 -19q-14 -6 -24.5 -2t-18.5 20q-53 57 -73.5 169t-8.5 239q-152 -49 -261.5 -111.5t-207.5 -103.5q-29 -19 -18.5 17zM705 653q68 35 139 71l145 73q8 78 25.5 179t40.5 245 q-68 -33 -136.5 -66t-136.5 -65q-39 -104 -59 -213t-18 -224z" />
<glyph unicode="$" horiz-adv-x="1228" d="M-10 29q0 20 31.5 50t302.5 163l125 61q14 172 21 359.5t19 379.5q-178 -18 -264 26t-86 122q0 41 72 111.5t182 144.5l86 57v31q0 195 23.5 296t58.5 101l27 -2h2q0 8 -7.5 -65.5t-7.5 -190.5v-131q68 29 155 54.5t126 25.5q33 0 54.5 -12.5t21.5 -28.5q0 -27 -23.5 -44 t-74.5 -26l-105 -20q-80 -16 -101.5 -25.5t-45.5 -23.5q-6 -70 -7.5 -135.5t-5.5 -139.5q266 18 267.5 19.5t23.5 1.5q162 0 240 -45t78 -133q0 -145 -213 -394t-439 -419q-37 -326 -49 -406t-22 -80q-14 0 -19.5 36t-5.5 147q0 45 1 93t13 187l-98 -53l-160 -64 q-139 -57 -145 -57h-10q-20 0 -30.5 7.5t-10.5 21.5zM324 1210q-2 -23 48 -36t109 -11q2 55 4 112.5t4 119.5l-63 -54q-59 -51 -80.5 -79.5t-21.5 -51.5zM537 360q156 123 333 332t177 287q0 51 -37 76.5t-99 25.5q-59 0 -102 -4t-231 -28z" />
<glyph unicode="%" horiz-adv-x="1738" d="M213 -332q0 47 30.5 123t92.5 193q903 1475 1061.5 1712t220.5 237q39 0 44 -2t5 -6q0 -10 -5 -23.5t-13 -25.5q-242 -373 -443.5 -657.5t-218.5 -311.5q-70 -106 -141.5 -230t-231.5 -366q-98 -147 -149 -229t-103 -170q-102 -268 -125.5 -264t-23.5 20zM416 1407 q0 27 60.5 109.5t135.5 136.5q-31 43 32 93t126 50q55 0 110.5 -51t57.5 -129q0 -111 -109.5 -241t-224.5 -130q-80 0 -134 49.5t-54 112.5zM578 1397q0 -33 3 -42t11 -9q84 0 189.5 81.5t105.5 151.5q-2 45 -45 97.5t-82 52.5q-23 0 -56.5 -23t-33.5 -43q0 -18 13 -32.5 t13 -51.5q0 -4 -2 -7t-8 -7q-51 -43 -80.5 -89t-27.5 -79zM1085 356q0 115 81 217.5t155 102.5q61 -2 160.5 -80t101.5 -152q0 -106 -94 -202.5t-207 -94.5q-102 0 -149.5 54.5t-47.5 154.5zM1204 340h2q0 -45 36 -91t77 -46q63 -2 122.5 67.5t71.5 178.5q-8 51 -57 79.5 t-108 28.5q-55 -2 -98.5 -69.5t-43.5 -145.5z" />
<glyph unicode="&#x26;" horiz-adv-x="1564" d="M123 143q0 20 3 35t107 84q29 18 122.5 185t301.5 382q-102 119 -182 246t-80 178q0 104 142.5 205t273.5 101q139 0 238.5 -61.5t99.5 -135.5q0 -92 -89 -214t-274 -288l-41 -37l48 -78q6 -12 19 -31.5t19 -23.5q4 -8 9.5 -16t11.5 -21q2 0 2 -1t20 -34q8 -18 28 -50.5 t30 -47.5l72 29q172 68 286.5 98.5t143.5 40.5q59 20 74.5 17t15.5 -17t-20.5 -24.5t-530.5 -196.5q18 -35 133 -203t115 -205q0 -12 -28 -22t-46 -8q-12 0 -24.5 37.5t-26.5 58.5q-16 23 -39 50.5t-62 86.5q-49 78 -67.5 102.5t-42.5 59.5l-377 -223l-55 -31 q-74 -41 -95.5 -53.5t-38.5 -24.5q-104 -74 -101 -73t1 1q-33 0 -64.5 42t-31.5 81zM319 190q514 283 520.5 297.5t0.5 26.5l-49 86q-33 53 -54.5 84t-50.5 64q-98 -131 -190.5 -272t-176.5 -286zM481 1257q0 -23 10.5 -53t126.5 -190l89 -123q147 117 248.5 243t101.5 203 q-2 68 -72 117t-166 49q-133 0 -235.5 -81t-102.5 -165z" />
<glyph unicode="'" horiz-adv-x="317" d="M82 1661q0 35 20.5 59.5t44.5 24.5q37 -2 63 -70.5t26 -187.5q-2 -137 -9.5 -182t-23.5 -45q-12 0 -22.5 11t-22.5 83q-8 39 -30 105.5t-28 96.5q-10 35 -14 62t-4 43z" />
<glyph unicode="(" horiz-adv-x="847" d="M72 819q0 201 138 440.5t302 368.5l68 53q74 57 122 85t76 28q18 -2 33.5 -11t15.5 -18q0 -4 -2 -8t-90 -69l-65 -50q-180 -135 -287 -349t-107 -445q0 -195 96.5 -345.5t282.5 -265.5l50 -30q47 -31 62 -54.5t15 -48.5q0 -35 -15 -47t-54 -12q-201 0 -421 240.5 t-220 537.5z" />
<glyph unicode=")" horiz-adv-x="847" d="M20 70q0 4 3.5 10t89.5 67l65 48q174 125 283.5 348t109.5 446q0 172 -82.5 319.5t-295.5 290.5l-50 33q-51 33 -64 53.5t-13 49.5q0 33 14 46t55 13q195 0 418 -243.5t223 -534.5q0 -186 -127 -421t-313 -388l-68 -55q-66 -53 -118 -82t-80 -29q-23 -2 -37.5 7.5 t-12.5 21.5z" />
<glyph unicode="*" horiz-adv-x="825" d="M41 1171q0 14 109.5 47t199.5 44q-98 35 -135 98t0 108q27 31 71 25t85 -57q-14 66 4 105.5t51 39.5q45 0 65.5 -40t6.5 -105q29 47 77 80.5t89 37.5h4q4 -2 4 -9t-4 -21q-12 -33 -52.5 -95.5t-66.5 -93.5q74 18 154.5 17.5t80.5 -13.5q0 -12 -112.5 -41.5t-194.5 -35.5 q51 -27 128 -104t77 -122q0 -39 -76 -13t-112 64q4 -10 8 -23t6 -120q0 -31 -62.5 38t-74.5 134q-61 -102 -96 -151.5t-46 -49.5q-6 0 -8 10.5t-2 30.5q0 35 19.5 90.5t62.5 135.5q-80 -39 -170 -36.5t-90 25.5z" />
<glyph unicode="+" horiz-adv-x="1126" d="M82 467q0 14 10 26.5t37 26.5l115 58q57 29 113.5 58.5t109.5 61.5l12 105q29 252 54.5 319.5t62.5 67.5q25 0 43 -20.5t20 -61.5q0 -37 -2 -91t-2 -91v-158l138 53q106 41 134.5 50.5t57.5 17.5l49 12q39 8 50.5 6t11.5 -10q0 -6 -7.5 -12t-37.5 -23l-31 -16 q-31 -16 -137.5 -65.5t-214.5 -96.5q-8 -27 -12.5 -51.5t-8.5 -104.5l-10 -139q-6 -57 -22.5 -79.5t-47.5 -22.5q-41 0 -68.5 75.5t-33.5 221.5l-137 -64q-63 -31 -130 -55.5t-85 -22.5q-14 0 -22.5 6.5t-8.5 18.5z" />
<glyph unicode="," horiz-adv-x="235" d="M41 133q0 27 19.5 44.5t52.5 17.5q31 0 56.5 -40t25.5 -114q0 -88 -21.5 -162t-69.5 -166l-28 -53q-10 -16 -17.5 -25.5t-9.5 -11.5h-2q-2 2 -3 4t3 8q8 31 10 63t4 38q0 10 6 31l7 28l4 23q6 45 11 79.5t5 59.5q0 33 -6 53.5t-22 46.5q-14 23 -19.5 40.5t-5.5 35.5z" />
<glyph unicode="-" d="M76 657q0 31 45 58.5t266 89.5l74 20q59 16 148 31.5t132 15.5q61 0 120 -13t59 -34q-2 -12 -8.5 -21t-166.5 -52l-73 -21q-92 -27 -113.5 -47t-142.5 -47l-107 -25q-115 -27 -174 -17.5t-59 62.5z" />
<glyph unicode="." horiz-adv-x="286" d="M41 109q0 33 50 62.5t89 31.5q20 0 38 -14.5t26 -36.5q8 -33 -26 -76t-81 -43q-31 0 -63.5 23.5t-32.5 52.5z" />
<glyph unicode="/" horiz-adv-x="1118" d="M31 -371q0 90 24.5 165t75.5 143q184 416 438 1008.5t418 991.5q8 25 27.5 38.5t52.5 13.5q29 0 44 -13.5t15 -36.5q0 -16 -7 -36.5t-50 -118.5q-53 -119 -400 -790.5t-505 -1114.5q-123 -254 -129 -253t-4 3z" />
<glyph unicode="0" horiz-adv-x="1380" d="M72 752q0 211 122.5 472t256.5 261q20 0 52 -17.5t32 -27.5q0 -4 -6.5 -11.5t-28.5 -29.5l-17 -17q-102 -102 -160.5 -235t-58.5 -283q0 -242 139.5 -437.5t319.5 -195.5t301 222.5t123 535.5q0 152 -67.5 276t-172.5 179q-35 16 -65.5 30.5t-40.5 18.5q-12 2 -17.5 6 t-7.5 12l-4 5v2q-2 0 -2 -1t2 -1q-2 0 2 7t14 9q2 2 9.5 1t9.5 1q4 0 13 3t16 3q154 0 313.5 -155.5t159.5 -411.5q0 -418 -202 -671t-454 -253q-215 -2 -398 197t-183 506z" />
<glyph unicode="1" horiz-adv-x="856" d="M59 946q0 10 4.5 20.5t40.5 49.5l115 119q66 68 132.5 146.5t76.5 104.5q39 115 63.5 134.5t55.5 19.5q35 0 52 -19.5t17 -107.5v-106q-2 -143 18.5 -350t78.5 -644l14 -110q12 -98 -40 -155.5t-150 -57.5q-23 0 -33 14t-10 72l-2 129q-6 291 -15.5 561t-25.5 551 q-10 -10 3 3t-257 -312l-60 -72q-8 -10 -24.5 -20.5t-24.5 -10.5q-14 0 -21.5 10.5t-7.5 30.5z" />
<glyph unicode="2" horiz-adv-x="999" d="M78 41q-35 47 4 125l133 266q193 387 303.5 646t110.5 349q0 43 -27 67t-82 24q-68 0 -189.5 -128t-125.5 -128q-12 -2 -21.5 4t-9.5 16q0 70 148.5 196t291.5 126q78 0 124 -45.5t46 -114.5q0 -49 -25.5 -128t-287.5 -728l-133 -330l352 162q352 162 341 155.5t-1 -0.5 l133 68q8 4 25.5 10t28.5 6q8 -2 14 -6t6 -10q0 -8 -5 -15t-13 -12l-39 -26q-80 -55 -266.5 -164t-317.5 -178l-414 -219q-69 -35 -104 12z" />
<glyph unicode="3" horiz-adv-x="1191" d="M53 211q0 6 6.5 12t18.5 6q16 -2 60 -25.5t81 -35.5q61 -25 102 -32t95 -7q250 -2 404.5 144.5t154.5 353.5q0 119 -49 180t-129 61q-51 0 -132 -29.5t-202 -86.5q-150 -72 -144 -71l7 1q-16 -2 -29.5 12.5t-13.5 32.5q0 8 2 18.5t22 40.5l94 156q145 240 178 308.5 t70 152.5q-100 -41 -185 -86t-204 -129l-96 -68q-37 -27 -67.5 -18.5t-30.5 45.5q0 27 -1.5 27t461.5 225q45 20 80 39.5t139 97.5q8 6 17.5 10t17.5 4q25 0 54.5 -21.5t29.5 -35.5q-2 -8 -1 -6t-386 -647q88 80 198.5 130t215.5 50q121 0 195.5 -83t74.5 -228 q0 -303 -214 -490.5t-494 -187.5q-150 0 -275 59.5t-125 120.5z" />
<glyph unicode="4" horiz-adv-x="987" d="M121 494.5q0 11.5 6 40.5q10 55 17.5 121.5t9.5 144.5v58v75q-2 78 -2 103.5t2 47.5q8 240 37.5 352.5t72.5 112.5q31 0 45.5 -19.5t7.5 -51.5l-24 -125q-10 -43 -18.5 -138.5t-8.5 -128.5q0 -51 15.5 -155.5t25.5 -247.5q27 8 50.5 19.5t136.5 91.5l43 30l6 357 q0 41 18.5 66.5t48.5 25.5q33 0 46.5 -35t25.5 -344q86 51 173 98t204 105l63 30q43 20 40 20.5t-1 0.5t6 -3t4 -5q0 -6 -4 -10.5t-59 -40.5l-94 -64q-29 -18 -59.5 -40.5t-262.5 -194.5q76 -612 76 -611.5t0 -29.5q0 -68 -19.5 -95.5t-58.5 -27.5q-76 0 -109.5 61.5 t-29.5 306.5v44v38q-2 23 -3 80t-3 139q-276 -184 -327.5 -212.5t-67.5 -28.5q-6 0 -12.5 5t-10.5 15q-6 8 -6 19.5z" />
<glyph unicode="5" horiz-adv-x="921" d="M49 1202q0 41 26.5 74t104.5 65l56 23q63 25 150 51.5t159 52.5l252 91q33 10 54 17t36 7q14 0 19 -18.5t-7 -22.5l-49 -20q-121 -51 -311.5 -135t-319.5 -146q-2 -51 -2 -96t4 -98l6 -158q184 90 264 118.5t142 28.5q117 0 187.5 -93t70.5 -271q0 -293 -177 -467 t-413 -174q-74 0 -125 18.5t-51 46.5q0 6 3 10.5t15 4.5q10 0 63.5 -12.5t96.5 -12.5q170 0 298 171t128 409q0 106 -48 170.5t-140 64.5q-31 0 -69 -10t-249 -121l-47 -25q-63 -33 -64 -33q-13 1 -17.5 12t-4.5 46v104q0 47 -2 93.5t-4 70.5q-4 53 -19.5 95t-15.5 69z" />
<glyph unicode="6" horiz-adv-x="1044" d="M84 451q0 307 218 669.5t386 362.5q29 0 47.5 -22.5t20.5 -43.5q-2 -2 -1 0t-44 -26l-54 -35q-135 -88 -252.5 -279.5t-144.5 -380.5q57 0 103.5 7.5t107.5 27.5q104 37 144 44t83 7q152 0 237 -68.5t85 -195.5q0 -195 -136 -345t-366 -150q-197 0 -315.5 114.5 t-118.5 313.5zM256 647q-18 -205 68 -347t272 -142q139 0 234.5 91t95.5 236q0 106 -87 167t-225 63q-23 0 -41 -3t-129 -32q-43 -12 -94 -21.5t-94 -11.5z" />
<glyph unicode="7" horiz-adv-x="1062" d="M20 1085q0 47 204 139.5t366 129.5q152 33 215 67.5t88 77.5q12 23 27.5 33t37.5 10q27 0 45.5 -11t18.5 -24q0 -16 -91 -192t-161 -408q78 2 173 21.5t101 19.5q4 -2 7.5 -3t5.5 -5q4 -6 -2 -10t-27 -8q-25 -6 -40 -10.5t-30 -8.5l-57 -20q-23 -8 -49.5 -21.5 t-95.5 -38.5q-37 -111 -87.5 -284.5t-62.5 -241.5l-28 -152q-10 -45 -67.5 -79.5t-102.5 -34.5q-18 0 -24.5 11t5.5 54l25 101q12 55 26.5 109t61.5 204l78 256l-136 -72q-51 -27 -107 -73t-83 -46q-16 0 -23.5 8.5t-7.5 20.5q0 20 33 51t344 187q51 125 75.5 194.5 t104.5 268.5l33 81q-268 -90 -487.5 -206.5t-274.5 -114.5q-16 0 -23.5 5t-7.5 15z" />
<glyph unicode="8" horiz-adv-x="866" d="M41 272q0 86 57.5 187.5t266.5 328.5l-46 72q-41 63 -61 128t-18 134q0 160 90 251t217 91q100 0 158.5 -57t58.5 -147q0 -74 -37 -147t-158 -208l-37 -41q154 -180 223.5 -302t69.5 -222q0 -129 -137 -223t-323 -94q-150 0 -237 69t-87 180zM137 301q0 -61 71 -110.5 t189 -49.5q88 -2 173 44t85 114q0 59 -42 142t-148 221l-68 86q-125 -150 -192.5 -269t-67.5 -178zM377 1235q0 -55 41 -151.5t98 -170.5q74 72 117 157t45 169q0 72 -37 111t-92 41q-82 -2 -127 -42t-45 -114z" />
<glyph unicode="9" horiz-adv-x="1009" d="M31 1153q-2 43 14 82t201 223q25 25 50.5 33t43.5 -2l39 -25q41 -29 83 -5t97 24q209 0 303 -72t94 -205q0 -68 -11 -116t-15 -152l-4 -92q-12 -246 -116.5 -403.5t-360.5 -413.5l-35 -35q-39 -37 -60.5 -53.5t-31.5 -16.5q-4 0 -5.5 2t-1.5 4v4q0 2 17 23l20 29 q281 395 345.5 561t72.5 364l-152 -28q-80 -16 -139 -21.5t-119 -5.5q-158 0 -243.5 82t-85.5 215zM172 1174q0 -94 80 -144.5t219 -48.5q180 -2 260 57.5t80 188.5q-2 70 -72.5 125t-158.5 55q-10 0 -12.5 -1t-178.5 -71q-2 -2 -4 -2t-4 2q-8 0 -15.5 1t-15.5 1 q-90 0 -134 -44.5t-44 -118.5z" />
<glyph unicode=":" horiz-adv-x="339" d="M41 877q0 51 39 116.5t86 65.5q29 0 44 -27.5t15 -118.5v-16q0 -111 -17.5 -136.5t-51.5 -23.5q-49 0 -82 46.5t-33 93.5zM82 131q-2 78 44 122t99 46q35 0 54.5 -28.5t19.5 -84.5q0 -57 -28.5 -105t-69.5 -48q-53 0 -86 23.5t-33 74.5z" />
<glyph unicode=";" horiz-adv-x="421" d="M-10 -362q0 6 6 26.5t14 34.5l17 37q98 225 114.5 286.5t20.5 157.5l2 62q0 49 34.5 88t71.5 41q23 0 40.5 -33t17.5 -84q0 -63 -22.5 -124.5t-137.5 -240.5l-119 -184q-49 -74 -54 -71.5t-5 4.5zM158 759q0 1 2 3q2 31 46 68.5t87 41.5h4h4q18 -4 38.5 -38.5t20.5 -73.5 q0 -53 -34.5 -84t-79.5 -31q-43 0 -62.5 23.5t-23.5 89.5q-2 0 -2 1z" />
<glyph unicode="&#x3c;" horiz-adv-x="888" d="M80 776q0 4 2 8q0 8 4 16.5t297 329.5q172 215 223 268.5t92 53.5q18 -2 32.5 -14.5t19.5 -30.5v-3v-1q-6 -33 -138.5 -207t-251.5 -301q-39 -37 -34.5 -93.5t39.5 -99.5q27 -29 49 -50t309 -234l65 -49q2 -4 2.5 -3t0.5 -79q0 -27 -118 26.5t-304 182.5 q-129 86 -206 157.5t-81 114.5q-2 4 -2 8z" />
<glyph unicode="=" horiz-adv-x="1431" d="M78 464q-12 54 49 95q39 35 193.5 80t338.5 133q209 94 380 152.5t251 58.5t81 -1t1 -9q0 -16 -11 -28.5t-61 -37.5q-117 -59 -133 -54t-106 -36q-49 -20 -154.5 -71.5t-158.5 -79.5q-252 -127 -386.5 -185.5t-211.5 -70.5q-60 0 -72 54zM121 856q0 35 18.5 59.5 t55.5 34.5q57 29 131.5 59.5t158.5 61.5q156 53 166.5 58.5t24.5 13.5q154 59 323.5 101t272.5 44q47 -2 72.5 -14t44.5 -41q8 -10 10 -17.5t-88 -15.5l-74 -8q-12 -2 -27.5 -5t-187.5 -67l-117 -43q-53 -18 -101 -37.5t-224 -103.5q-100 -49 -183.5 -84t-152.5 -57 q-47 -12 -86 2t-37 59z" />
<glyph unicode="&#x3e;" horiz-adv-x="866" d="M72 1246v11q0 43 48 64.5t103 -6.5q41 -10 183.5 -125t312.5 -229q31 -25 47 -62t18 -76q0 -16 -8 -31.5t-71 -80.5l-60 -62q-31 -31 -58.5 -61.5t-146.5 -161.5q-16 -18 -29.5 -32.5t-41.5 -43.5q-2 -2 -1 -1t-20 -19q-31 -78 -45 -91.5t-20 17.5q-6 27 1 48.5t29 45.5 q176 281 192.5 302.5t37.5 47.5q43 57 26.5 121t-82.5 101l-69 47q-174 117 -247 171t-97 93v4q-2 2 -2 9z" />
<glyph unicode="?" horiz-adv-x="1173" d="M82 1237q0 39 286.5 186.5t516.5 182.5h15h11q18 -8 29.5 -39t11.5 -70q0 -61 -79.5 -189t-192.5 -264l-168 -198q-180 -213 -201.5 -252t-38.5 -74q180 33 359.5 104.5t367.5 184.5l113 68q8 4 16.5 5t8.5 -1q0 -16 -7.5 -24.5t-21.5 -18.5l-21 -15 q-242 -170 -491.5 -296t-357.5 -126q-59 0 -86 24t-25 69q0 29 15.5 60.5t250.5 305.5l320 373q129 150 113.5 205t-144.5 55q-49 0 -123 -31.5t-207 -111.5l-104 -64q-76 -47 -101.5 -61.5t-29.5 -14.5q-10 0 -22.5 10.5t-12.5 16.5zM410 139q0 33 26.5 74t48.5 41 q37 0 68 -35t31 -76q0 -31 -33 -79t-39 -70q-41 14 -72.5 60t-29.5 85z" />
<glyph unicode="@" horiz-adv-x="1384" d="M45 274q-2 365 275.5 587t617.5 224q152 0 227.5 -68.5t75.5 -283.5v-391q43 12 74 -4t31 -43q0 -72 -274.5 -164t-379.5 -90q-115 0 -197.5 52t-80.5 157q-2 207 241.5 345t442.5 26v192q0 78 -50.5 118t-138.5 40q-238 0 -466 -189.5t-226 -464.5q0 -231 140.5 -366 t426.5 -135q162 0 292 66.5t173 66.5q45 2 71 -19.5t28 -58.5q0 -74 -166 -135.5t-402 -61.5q-362 0 -548.5 159.5t-186.5 440.5zM563 293q0 -55 38 -98t108 -43q74 0 182 29.5t192 80.5v64q-2 135 -46 184t-148 49q-123 0 -224.5 -90t-101.5 -176z" />
<glyph unicode="A" horiz-adv-x="1298" d="M-2 166q0 39 51 201.5t162 476.5l203 575q102 293 141 338t84 45q35 0 68.5 -40t201.5 -500l86 -240q150 59 227.5 97t137.5 63l211 88q74 31 72.5 30.5t1.5 -0.5l4 -4l4 -4q0 -12 -24.5 -30.5t-182.5 -102.5l-428 -229l82 -256q92 -289 126 -405.5t34 -151.5 q0 -49 -29 -73t-72 -24q-31 0 -61.5 26t-175.5 536l-76 264q-443 -258 -444 -259l-3 -1l-145 -88q-23 -57 -42 -127t-24 -115l-8 -63q-10 -78 -40.5 -110t-80.5 -32q-29 0 -45 31t-16 84zM285 623l534 313l-96 307q-31 94 -61.5 149.5t-57.5 55.5q-35 0 -71.5 -59.5 t-100.5 -272.5z" />
<glyph unicode="B" horiz-adv-x="1255" d="M-121 1323q2 88 427 283.5t589 195.5q61 0 98 -35.5t37 -97.5q0 -94 -84 -231.5t-321 -382.5q82 35 186 64.5t160 29.5q109 0 173 -66.5t64 -179.5q0 -227 -353 -606t-521 -379q-49 0 -69.5 34t-20.5 136l-2 1350q-215 -125 -256 -146.5t-60 -21.5q-20 0 -33.5 14 t-13.5 39zM377 72q381 276 527.5 459.5t146.5 340.5q0 66 -36 91.5t-104 25.5q-121 -2 -256 -60.5t-270 -170.5zM383 1507l4 -561q207 188 350.5 368.5t143.5 262.5q0 37 -22.5 60.5t-65.5 23.5q-43 -2 -144.5 -41t-265.5 -113z" />
<glyph unicode="C" horiz-adv-x="1273" d="M84 758q0 401 247 689t556 288q106 -2 199.5 -36t93.5 -81q0 -27 -9.5 -37t-23.5 -8q-61 0 -89 13t-136 13q-266 -2 -449.5 -210.5t-183.5 -532.5q0 -297 136 -459q134 -160 352 -159h5q135 0 254 69.5t215 190.5q25 31 37 43t19 12q2 0 4 -2l4 -4q0 -8 -1 -11.5t-1 -5.5 q-88 -225 -261 -353t-384 -128q-260 0 -422 187.5t-162 521.5z" />
<glyph unicode="D" horiz-adv-x="1286" d="M-129 1217q0 33 20.5 66.5t122.5 117.5l76 61q184 150 352 224.5t324 74.5q225 0 351 -137t126 -383q-2 -260 -129 -510t-403 -522l-279 -275q-45 -41 -63.5 -49t-36.5 -10q-23 0 -35 14.5t-10 36.5q0 8 2 16.5t18 26.5l72 90q-4 176 -10.5 478.5t-6.5 468.5 q0 129 2.5 276.5t6.5 259.5q-190 -102 -318.5 -236.5t-156.5 -134.5q-10 0 -17.5 13t-7.5 33zM500 1589q-1 -75 -1 -152q0 -115 2 -233q3 -197 13 -555l12 -459q293 266 430.5 517t137.5 524q0 309 -187 395q-77 35 -159 36q-118 -1 -248 -73z" />
<glyph unicode="E" horiz-adv-x="1099" d="M113 37l12 389q4 145 13 395t14 336l18 399q0 35 16.5 52.5t49.5 17.5q43 0 63 -37q11 -20 11 -50q0 -24 -7 -54q133 68 279.5 130t294.5 114l135 47q53 18 76 17q6 0 11 -1q19 -6 19 -27q0 -12 -7 -22t-58 -31l-80 -35q-369 -162 -476.5 -223t-199.5 -127 q-10 -121 -13 -250q-2 -77 -2 -167q0 -60 1 -126q127 86 253 164t418 250l99 57q29 16 47 14.5t18 -24.5q0 -12 -11 -29.5t-24 -25.5l-45 -35q-20 -16 -68 -50t-683 -474v-479q125 94 307 212.5t293 176.5l221 114q45 22 69 22h2q24 -1 23 -26q0 -10 -5 -18t-13 -12l-68 -43 q-45 -29 -185 -127.5t-376 -266.5l-244 -174q-59 -41 -91 -57t-54 -16q-29 2 -42 21q-12 17 -12 64q1 7 1 15z" />
<glyph unicode="F" horiz-adv-x="962" d="M88 672q0 48 68 82q14 123 24 255t13 226l2 98q4 258 27.5 293t64.5 35q33 0 63.5 -31t38.5 -59q143 43 289.5 97t327.5 134l131 58q37 16 50 15h4q11 -3 11 -15q0 -10 -15.5 -23.5t-43.5 -28.5l-223 -112q-342 -174 -400.5 -206t-128.5 -71q-2 -119 -11 -250t-22 -256 q250 186 488.5 288t376.5 102q23 0 26.5 -2.5t3.5 -6.5q-2 -12 -18 -27.5t-51 -29.5l-187 -84q-164 -74 -328.5 -172t-308.5 -205q-15 -181 -15 -348v-20q1 -176 22 -299l6 -41q1 -11 1 -22q0 -51 -32 -86q-39 -42 -98 -42q-84 0 -108 186q-8 66 -8 148q0 149 28 350 q-68 17 -68 70z" />
<glyph unicode="G" horiz-adv-x="1183" d="M72 821q0 388 197 668q200 283 489 285q53 0 79.5 -22.5t26.5 -63.5q-2 -27 -12 -40.5t-33 -13.5q-43 0 -51 7.5t-53 7.5q-193 0 -337.5 -222.5t-144.5 -508.5q-2 -272 164 -435q144 -140 358 -140q32 0 66 3q10 168 17.5 285t21.5 295q-117 -55 -222.5 -138t-109.5 -83 q-20 0 -45.5 19t-23.5 44q0 18 24.5 45t73.5 61l47 33q172 119 358.5 193t311.5 74q14 0 21.5 -3.5t9.5 -5.5q0 -14 -18.5 -30.5t-174.5 -85.5l-100 -45q-18 -219 -29 -383q-9 -137 -8 -239v-40q0 -84 9 -129t32 -78q31 -49 31 -48v1q0 -39 -64.5 -77t-101.5 -40 q-39 2 -59 34q-18 29 -17 95v15v104q-85 -19 -164 -19q-197 0 -352 117q-217 164 -217 504z" />
<glyph unicode="H" horiz-adv-x="1294" d="M133 872q0 518 35 622.5t108 104.5q31 0 48.5 -28.5t17.5 -87.5q-2 -35 -10 -115t-10 -125q-6 -82 -10 -195q-2 -68 -2 -133q0 -43 1 -84l264 117q252 111 297.5 137.5t92.5 61.5q-1 42 -1 80q0 242 22 370q26 150 99 150q43 -2 61.5 -19.5t18.5 -62.5q0 -4 0 -3 t-20 -140q-6 -31 -8 -83.5t-4 -72.5l-15 -139q28 15 53 14q10 0 20 -2q34 -8 34 -29q0 -16 -25.5 -38.5t-54.5 -28.5q14 -412 28.5 -632t14.5 -259q-2 -86 -28.5 -131t-80.5 -45q-57 0 -83.5 50t-26.5 148l-4 443q-4 258 -5.5 268t-1.5 23q-242 -72 -438 -191 q-195 -118 -194 -213q0 -35 20.5 -151.5t20.5 -302.5q0 -72 -30 -100q-28 -26 -78 -26q-4 0 -7 1q-47 0 -63.5 24.5t-16.5 87.5q0 14 2 40t2 40q0 117 -21.5 358.5t-21.5 296.5z" />
<glyph unicode="I" horiz-adv-x="499" d="M135 287q0 127 19.5 478t29.5 574l4 101q2 80 33 123t78 43q43 0 69.5 -27t26.5 -70q-2 -131 -44 -652q-21 -257 -21 -424q0 -171 22 -247l10 -36q7 -24 7 -45q0 -39 -22 -68q-34 -45 -95 -45q-63 0 -90 56.5t-27 238.5z" />
<glyph unicode="J" horiz-adv-x="958" d="M45 155q0 5 2 13q6 25 32 28h7q25 0 70 -18l49 -20q25 -12 71 -20q37 -6 75 -5h22q158 0 242.5 82t84.5 289q0 70 -4 139.5t-14 157.5q-14 147 -17 202.5t-3 102.5q0 78 15 193.5t40 224.5q-92 -14 -179 -44t-163 -73l-185 -109q-39 -23 -53 -27.5t-26 -4.5 q-25 0 -38.5 12t-13.5 37q0 31 21.5 60.5t361.5 189.5q168 78 293 125t180 47q39 -2 52.5 -13.5t13.5 -33.5q-2 -8 -3 -17.5t-77 -169.5q-47 -100 -67.5 -208.5t-20.5 -297.5q0 -47 2 -121.5t4 -146.5q2 -47 8.5 -120.5t6.5 -108.5q0 -233 -126 -354q-124 -118 -310 -117h-7 h-11q-107 0 -211 38q-110 40 -122 78q-2 5 -2 10z" />
<glyph unicode="K" horiz-adv-x="1239" d="M166 215v100q0 53 12 744l8 477q0 80 23.5 116t71.5 38q37 0 58 -19.5t23 -64.5l7 -670q141 139 142 140t404 530l93 120q27 37 62 38q7 0 15 -2q45 -9 45 -50q0 -63 -147 -269t-455 -558q270 -119 549 -388.5t279 -437.5q-2 -35 -17.5 -50t-50.5 -15q-6 0 -13 2 t-153 170l-135 156q-147 168 -295.5 266t-314.5 141q10 -244 15 -385t5 -197q0 -66 -33.5 -96.5t-101.5 -30.5q-61 0 -78.5 48.5t-17.5 146.5z" />
<glyph unicode="L" horiz-adv-x="1048" d="M131 139q0 86 20.5 183.5t20.5 322.5v506q0 344 33 469t106 125q33 -2 51.5 -25.5t20.5 -134.5q0 -164 -12.5 -316.5t-12.5 -224.5v-31q0 -116 13 -325q14 -240 16 -379q37 18 154.5 76.5t187.5 93.5q16 8 66.5 33t78.5 39q96 47 174 85t107 54l166 84q49 25 59.5 28 t20.5 3q12 -2 19 -5t7 -12q0 -16 -20.5 -33.5t-77.5 -52.5l-57 -34q-266 -162 -401.5 -249t-245.5 -163l-258 -178q-87 -60 -147 -60q-12 0 -23 2q-66 15 -66 119z" />
<glyph unicode="M" horiz-adv-x="1685" d="M123 186q0 88 15.5 346.5t19.5 444.5l6 485q0 125 37 182.5t104 57.5q23 0 36 -5t32 -38l22 -43l520 -678q458 643 464 643q1 4 -5 -14l23 73q27 86 67.5 137.5t81.5 51.5q29 0 53.5 -33t24.5 -84q0 -29 -42 -346t-42 -561q0 -215 24.5 -394.5t24.5 -191.5 q-2 -63 -31.5 -103t-80.5 -40q-63 0 -92 88t-29 297q0 119 23 416q14 175 14 332q0 109 -7 210q-166 -119 -306 -408.5t-216 -289.5q-31 0 -191.5 241.5t-330.5 397.5q-31 -297 -36 -464t-5 -486q0 -100 11.5 -138.5t11.5 -138.5q0 -41 -36 -73q-34 -30 -67 -29h-4h-4 q-42 0 -66 37q-24 38 -24 118z" />
<glyph unicode="N" horiz-adv-x="1468" d="M127 326q8 51 15.5 155.5t9.5 190.5l14 803q0 66 35 97.5t104 31.5q18 0 29.5 -6.5t17.5 -49.5l4 -37q2 -23 8.5 -44t315.5 -531l121 -201q154 -258 226.5 -347t162.5 -167q-6 639 -14.5 848t-8.5 385v166q-2 59 30 101t73 42q29 0 47 -25q17 -23 16 -278v-59l-10 -1122 q-1 -15 -1 -30q0 -35 4 -62q5 -38 38 -119q16 -45 23.5 -68t7.5 -39q0 -27 -41 -52.5t-72 -25.5q-72 0 -248 208t-274 368l-107 172q-74 117 -152.5 234.5t-158.5 228.5q-12 -94 -24.5 -306.5t-12.5 -367.5q0 -170 33 -232.5t33 -42.5q0 -33 -43 -69.5t-95 -36.5 q-74 0 -102 72q-15 39 -15 98q0 51 11 117z" />
<glyph unicode="O" horiz-adv-x="1384" d="M72 770q0 252 155.5 586t294.5 334q16 0 29.5 -5.5t26.5 -13.5l12 -10q21 -19 55 -19q26 0 58 11q77 25 122 24q203 -2 345.5 -207.5t142.5 -478.5q0 -424 -231.5 -687t-499.5 -263h-5q-224 0 -364 202q-141 203 -141 527zM254 838q-2 -276 108.5 -446.5t280.5 -170.5h4 q216 0 376 206q161 208 161 499q-2 291 -140.5 476t-310.5 185q-33 0 -65.5 -13t-46.5 -32l-17 -22q-18 -6 -39.5 -3t-64.5 15q-123 -158 -185.5 -349t-60.5 -345z" />
<glyph unicode="P" horiz-adv-x="1042" d="M31 1386q0 18 4 29.5t31 32.5l241 184q164 125 388.5 212t398.5 87q88 0 137 -44t49 -128q0 -195 -309 -496.5t-615 -469.5q1 -84 1 -154.5t-1 -126.5t-1 -103.5t1 -84.5q0 -55 2 -89t7 -67q12 -80 13 -81t1 -7q0 -33 -20.5 -45t-57.5 -12q-68 0 -92 33q-23 31 -23 95v11 q0 141 13.5 186t13.5 109v73q0 49 -1 72t-5 55q-4 35 -5 55.5t-1 51.5q-18 10 -29.5 28.5t-11.5 34.5t12 31.5t35 24.5l6 571q-41 -41 -85 -68q-41 -25 -69 -24h-4q-12 0 -18 5t-6 19zM361 1268q-2 -53 -1 -111q0 -92 5 -196q279 162 521 398t242 376q0 41 -27.5 68.5 t-78.5 27.5q-125 0 -289 -75t-348 -230q-19 -121 -24 -258z" />
<glyph unicode="Q" horiz-adv-x="1361" d="M72 717q0 344 177 648t283 304q2 -2 6.5 -3t45.5 -36l47 -43q186 39 188 40t8 1q199 0 331 -172t132 -446q0 -199 -58 -382.5t-165 -310.5q92 -117 143.5 -214t51.5 -171q0 -43 -8.5 -73.5t-22.5 -30.5q-10 0 -19.5 8t-19.5 29q-37 61 -99.5 140t-127.5 145l-35 -25 q-76 -53 -140 -76q-51 -18 -105 -18q-15 0 -30 2h-17q-256 0 -409 179q-157 186 -157 505zM266 768q0 -293 120 -439q118 -144 323 -145h6h12q50 0 87 16q42 17 81 54l-135 152q-59 66 -93 117.5t-34 78.5q0 31 23.5 55.5t58.5 24.5q25 0 49 -14.5t74 -73.5l51 -64l102 -120 q88 131 135.5 296.5t49.5 368.5q0 205 -109 336t-281 131q-240 0 -380 -207t-140 -567z" />
<glyph unicode="R" horiz-adv-x="1204" d="M51 1413q0 152 286 271.5t572 119.5q135 0 200 -41t65 -118q0 -137 -181.5 -278.5t-595.5 -301.5q365 -195 639.5 -509t274.5 -517q0 -45 -21.5 -65.5t-58.5 -20.5q-31 0 -48.5 13.5t-64.5 111.5l-53 110q-96 197 -269 381.5t-405 323.5q-2 -297 -15.5 -475t-10.5 -174 q0 -29 3 -39t19 -39q27 -45 31 -55.5t4 -18.5q0 -27 -21.5 -37t-87.5 -10q-63 0 -77 35q-11 27 -12 95q0 19 1 42l2 88q9 419 10 499v13q-1 51 -4 105q-82 37 -92 50t-10 29q0 29 35 61t74 44l6 416q-14 -51 -62.5 -115t-83.5 -64q-23 0 -36 17.5t-13 52.5zM391 1167 q309 135 469 246t162 193q-2 33 -42 57.5t-101 24.5q-94 0 -229.5 -40t-258.5 -104v-377z" />
<glyph unicode="S" horiz-adv-x="1136" d="M-3 36q5 5 17 7l74 10q440 59 631.5 190.5t191.5 311.5q0 102 -72.5 202.5t-185.5 168.5l-227 131q-262 150 -301 198t-39 109q0 174 277.5 339t461.5 165q23 0 34 -14.5t11 -43.5q0 -31 -14 -49t-53 -24l-47 -8q-172 -31 -309.5 -129.5t-137.5 -188.5q0 -45 37 -84 t170 -104l62 -31q315 -160 417.5 -283t102.5 -266q0 -258 -279.5 -439t-798.5 -181q-7 -1 -11 -1t-6 1q-3 2 -5 4q-3 2 -3 4q0 3 2 5z" />
<glyph unicode="T" horiz-adv-x="1073" d="M-225 1268q0 25 15 43t71 43l157 67q551 236 980 372t634 136q4 0 7 -1t6 -3q0 -6 -3.5 -10t-27.5 -8l-76 -17q-104 -23 -401 -133t-510 -203q12 -348 19 -551.5t7 -291.5q0 -461 -28.5 -560.5t-81.5 -99.5h-3q-27 0 -47 39q-20 37 -20 659v123v621q-35 -12 -58.5 -22.5 t-398.5 -190.5l-131 -63q-30 -15 -52 -16q-16 0 -29 8q-29 20 -29 59z" />
<glyph unicode="U" horiz-adv-x="1267" d="M96 764q0 291 79 637t163 348q23 0 35 -13.5t12 -66.5q0 -264 -62.5 -432t-62.5 -436v-12q0 -287 102 -448q104 -165 287 -165q197 0 297.5 190.5t100.5 526.5q0 129 -28 285.5t-71 291.5l-63 195q-25 77 -25 113q0 14 3 22q13 29 67 29q25 0 41 -17.5t33 -74.5l47 -168 q84 -301 107.5 -436.5t23.5 -235.5q0 -358 -149.5 -615t-434.5 -257q-256 0 -380 186q-122 183 -122 541v12z" />
<glyph unicode="V" horiz-adv-x="1024" d="M14 1495q0 43 30 75t62 32q25 0 44.5 -23t46.5 -100l34 -111q80 -260 145.5 -401.5t112.5 -343.5l64 -285q131 340 239.5 657.5t161.5 452.5l101 256q20 51 28.5 63.5t16.5 12.5q15 -2 15 -21q0 -17 -15 -63l-94 -269q-27 -74 -86.5 -290.5t-122.5 -470.5l-131 -519 l-15 -51l-20 -2l-35 -6l-12 -3q-4 -1 -66 -38l-20 -12q-26 -16 -44 -16q-7 0 -14 3q-20 9 -41 99l-57 237q-6 18 -43 195.5t-184 574.5q-33 82 -67 202t-34 165z" />
<glyph unicode="W" horiz-adv-x="1441" d="M92 1325l2 150q0 61 16.5 84.5t47.5 23.5q20 0 31.5 -18.5t19.5 -67.5l18 -145q41 -328 72 -481.5t104 -477.5q68 119 119 245t51 200q0 23 -3 41t-5 34q-8 25 -8 31v12q0 27 34 66t56 39q18 0 31.5 -11.5t23.5 -29.5l66 -148q70 -162 167 -326.5t195 -291.5 q76 311 126.5 701.5t58.5 676.5l4 174q0 37 14.5 62.5t34.5 25.5q14 -2 22.5 -18t8.5 -98q0 -96 -21.5 -398.5t-70.5 -928.5q-12 -156 -29.5 -252.5t-46.5 -145.5q-31 -57 -81 -65q-7 -1 -14 -1q-41 0 -67 44l-444 741q-70 -393 -140.5 -570t-160.5 -177q-43 0 -65.5 30.5 t-27.5 116.5q-4 43 -13 107.5t-50 298.5q-47 254 -64 419q-13 133 -13 263q0 33 1 65z" />
<glyph unicode="X" horiz-adv-x="876" d="M-23 -154q0 33 182.5 492t225.5 545l-141 305q-158 338 -183.5 400.5t-25.5 88.5q0 33 21.5 54.5t62.5 21.5q31 0 49 -11t43 -73l41 -106q47 -129 97 -242t112 -229q100 156 196.5 327.5t104.5 184.5l35 53q4 6 15 9t46 5q11 0 12 -14q0 -10 -6 -21l-129 -284 q-115 -252 -144.5 -309.5t-62.5 -120.5q336 -829 337 -832.5t1 -7.5q0 -33 -18.5 -52.5t-40.5 -17.5q-16 0 -31.5 12.5t-204.5 415.5l-133 283l-96 -201q-317 -657 -338.5 -665.5t-23.5 -10.5h-3z" />
<glyph unicode="Y" horiz-adv-x="901" d="M29 1493q0 37 26.5 66.5t71.5 29.5q23 0 40 -9t52 -64l100 -166q168 -279 168 -280t78 -85q33 102 46.5 148.5t25.5 85.5q79 282 79 284l62 189q16 55 30.5 66t37.5 11q18 0 29.5 -6t13.5 -14v-2v-6q-2 -6 1 -15.5t3 -13.5q-2 -10 -4 -24.5t-146 -585.5l-69 -277 q12 -14 24.5 -37.5t14.5 -35.5q0 -14 -15.5 -28.5t-33.5 -21.5q-74 -119 -130.5 -257t-121.5 -353l-93 -295q-23 -70 -42 -91t-48 -34q-9 -4 -15 -3q-10 0 -10 10q0 16 19 73l115 359q20 70 61 231.5t97 407.5l-127 184q-156 221 -249 373.5t-91 185.5z" />
<glyph unicode="Z" horiz-adv-x="983" d="M-16 -195q2 4 7 26t265 644l78 187q94 227 198.5 450t225.5 453q-664 -328 -693 -328q-1 0 -1.5 0.5t14.5 24.5q0 95 -2 95l4 3l299 143q600 288 616 288q13 0 17 -3q0 -8 -120 -233.5t-241 -477.5l-143 -297q-166 -344 -211 -454.5t-78 -227.5q233 129 327.5 175 t528.5 208l111 41q37 14 53 11t18 -17q0 -12 -13 -26.5t-30 -22.5l-370 -199q-86 -47 -307.5 -171t-286.5 -165l-135 -82q-55 -33 -82 -46t-39 -13q-4 0 -6 1t-4 1v5v7z" />
<glyph unicode="[" horiz-adv-x="679" d="M140 1428.5q1 97.5 1 68.5q0 31 5.5 56.5t340.5 101.5l76 -2q8 -10 11.5 -14.5t3.5 -8.5q-2 -51 -144.5 -43t-142.5 -143q0 -12 11 -179t11 -366q0 -51 -6 -151.5t-4 -145.5q0 -401 70.5 -462.5t257.5 -61.5q8 0 25.5 5t17.5 1q0 -23 -12.5 -31t-47.5 -8q-31 0 -75.5 5 t-61.5 7q-18 0 -54 1t-50 3q-133 6 -126 4t7 1q-59 14 -79.5 178t-27.5 651l-4 272q-4 164 -3 261.5z" />
<glyph unicode="\" horiz-adv-x="1208" d="M72 1939q0 23 14 35.5t45 14.5q31 0 50.5 -13.5t29.5 -38.5q162 -399 416 -992t440 -1008q49 -68 74.5 -143t25.5 -165q-2 -2 -7 -3t-126 253q-160 442 -507 1114t-398 791q-45 98 -52 118.5t-5 36.5z" />
<glyph unicode="]" horiz-adv-x="679" d="M6 1616q0 20 11.5 29.5t48.5 9.5q29 0 73.5 -6.5t63.5 -6.5q16 -2 52 -3t52 -1q131 -8 124 -6t-5 2q57 -16 77.5 -180t28.5 -649l5 -273q2 -166 2 -263t0 -66v-78l-346 -80l-76 2q-10 8 -12.5 12t-2.5 11q0 49 143.5 40.5t143.5 145.5q0 10 -11 177t-11 368 q-2 49 4 149.5t6 147.5q-2 399 -73 460.5t-255 63.5q-10 0 -27.5 -6t-15.5 0z" />
<glyph unicode="^" horiz-adv-x="909" d="M113 1356q0 4 2 9t22 26l13 12q158 158 177 179.5t54 66.5l37 47q39 49 56.5 56t41.5 7q25 0 62.5 -48t52.5 -60q117 -125 141.5 -160t24.5 -57q-2 -35 -27 -58.5t-68 -23.5q-33 -2 -55 8t-37 31l-47 57q-8 8 -36.5 50t-77.5 91q-147 -92 -207 -173t-99 -85q-6 -2 -8 -2 t-4 2q-6 0 -12 9.5t-6 15.5z" />
<glyph unicode="_" horiz-adv-x="1591" d="M4 -481q-10 31 8.5 44t85.5 5q170 10 620.5 13t758.5 -1q59 14 86.5 2t27.5 -55q0 -14 -16 -22.5t-94 -14.5q-629 -33 -855.5 -32t-500.5 10q-55 -8 -82 5t-39 46z" />
<glyph unicode="`" horiz-adv-x="362" d="M0 1411v9v16q4 47 23.5 64.5t52.5 17.5q104 -2 195 -65.5t91 -154.5q-2 -31 -13 -53t-19 -22q-2 0 -1 -1t1 35q-2 16 -12.5 29.5t-112.5 65.5l-105 51l-20 4q-10 2 -31 2q-4 0 -11 -1t-9 -1q-2 -2 -5 -2h-4q-6 0 -11 -1l-5 -1q-2 0 -3 1t-1 7z" />
<glyph unicode="a" horiz-adv-x="1013" d="M45 250q0 207 243 345q134 76 254 76q98 0 187 -50v192q-2 90 -39 128t-104 40q-68 0 -154 -43t-196 -133q-38 -31 -64 -31h-6q-27 4 -27 43q0 86 176.5 179.5t300.5 95.5q125 0 190.5 -71t65.5 -288v-391q18 5 35 5q22 0 39 -9q31 -16 31 -43q-2 -23 -29.5 -43.5 t-81.5 -34.5v-63q-2 -111 -20.5 -142.5t-59.5 -31.5q-61 2 -76 51q-7 21 -7 50q0 39 12 91q-94 -63 -193.5 -97t-197.5 -34q-115 0 -197 52.5t-82 156.5zM195 293q-2 -55 37.5 -98t107.5 -43q74 0 182.5 29.5t192.5 80.5v64q0 135 -45 184t-150 49q-127 0 -227 -89t-98 -177 z" />
<glyph unicode="b" horiz-adv-x="960" d="M82 1260q0 231 23.5 301.5t78.5 70.5q31 0 43.5 -20.5t12.5 -55.5q0 -20 -7.5 -82.5t-7.5 -158.5q-1 12 -1 30q0 13 34 -870q61 207 186 356.5t263 151.5q100 0 156.5 -76t56.5 -186q0 -152 -110 -295t-460 -414l-117 -90q-27 -18 -32 -19q-2 0 -4 -1l-9 2q-6 2 -8 7 q-2 6 -2 26q0 25 13 61q15 41 36 80q-31 -9 -53 -9q-20 0 -33 7q-29 14 -28 76q0 31 2 98t4 102q0 70 -18.5 305.5t-18.5 602.5zM287 264q0 -39 9 -71.5t32 -63.5q190 125 314 284.5t124 301.5q0 63 -32 99t-87 38q-117 0 -238.5 -234.5t-121.5 -353.5z" />
<glyph unicode="c" horiz-adv-x="817" d="M47 442q0 252 179.5 440.5t357.5 188.5q72 0 110.5 -39t38.5 -92q0 -18 -4 -23.5t-12 -3.5q-4 -2 -7 -1t-30 20q-12 6 -28.5 10t-37.5 4q-178 0 -296.5 -149.5t-118.5 -329.5q0 -156 97 -252q95 -94 250 -94h7q47 0 95 13t114 50q47 27 55 28t17 3q12 -2 15 -4t3 -8 q0 -10 -5 -17.5t-28 -25.5q-98 -78 -196.5 -111t-198.5 -33q-170 0 -273.5 126t-103.5 300z" />
<glyph unicode="d" horiz-adv-x="1015" d="M47 422q0 207 123 323.5t350 118.5q55 0 106.5 -9t104.5 -28q13 108 13 224q0 51 -3 104q-5 115 -5 196q0 41 1 72q2 72 25.5 113t64.5 41q33 0 48.5 -26.5t17.5 -102.5q0 -115 -4 -295t-4 -279v-83q0 -340 24.5 -542t24.5 -233q0 -39 -22.5 -58t-59.5 -19 q-39 2 -56.5 25.5t-31.5 197.5l-10 121l-58 -66q-86 -98 -162.5 -141t-156.5 -43q-141 0 -235.5 111.5t-94.5 277.5zM199 444q0 -117 59 -194.5t166 -77.5q96 0 170 57.5t147 188.5q-6 74 -9 146q-2 44 -2 87q0 29 1 58q-51 14 -118.5 22t-139.5 8q-117 0 -195.5 -77 t-78.5 -218z" />
<glyph unicode="e" horiz-adv-x="747" d="M53 412q0 260 154.5 450.5t320.5 190.5q55 -2 95.5 -31t40.5 -78q0 -92 -113 -243.5t-336 -360.5q18 -90 70.5 -138t142.5 -48q76 0 187.5 41t181.5 90q20 14 32.5 10t12.5 -21q0 -10 -6.5 -18t-24.5 -25q-113 -96 -221.5 -145t-210.5 -49q-152 0 -239 96.5t-87 278.5z M193 438q61 59 129.5 134t119.5 137l43 53q20 25 36 57.5t16 50.5q-2 25 -17.5 41.5t-44.5 16.5q-104 0 -204 -155q-82 -128 -82 -274q0 -30 4 -61z" />
<glyph unicode="f" horiz-adv-x="604" d="M-55 303q2 16 31.5 46t195.5 165q-3 114 -3 215q0 504 77 679q92 210 282 210q96 0 168 -70.5t72 -161.5q0 -39 -15.5 -60t-39.5 -19q-23 0 -36 11t-30 64q-23 74 -56.5 104t-76.5 30q-123 0 -175 -235q-38 -168 -38 -455q0 -112 6 -242q174 100 252 142t107 42 q10 0 14 -5t4 -13q0 -16 -8 -35t-354 -242q8 -299 38.5 -635t30.5 -395q0 -102 -14.5 -123.5t-44.5 -21.5q-47 0 -71.5 74.5t-78.5 1028.5q-51 -33 -120.5 -68.5t-104.5 -41.5q-2 -2 -4 -2t-4 2q-2 0 -3 3t-1 9z" />
<glyph unicode="g" d="M-211 -668q0 20 15.5 41t31.5 21q39 0 62.5 -7.5t54.5 -31.5l102 -72q55 -37 134 -56.5t208 -19.5q207 0 282 97.5t77 400.5q0 102 -12.5 245.5t-14.5 350.5q-113 -137 -201 -192.5t-176 -55.5q-141 0 -219 99.5t-78 264.5q0 203 144 337q145 135 325 135q68 0 122 -36 t91 -99q41 74 75 108.5t69 34.5q51 0 57 -42q1 -6 1 -15q0 -61 -34 -281q-10 -59 -15 -123.5t-5 -412.5q-1 -22 -1 -46q0 -36 2 -75q3 -66 9 -191q6 -141 7 -165.5t1 -45.5q0 -201 -126 -312.5t-326 -113.5q-174 0 -417 95t-245 163zM209 399q0 -106 58.5 -163.5 t146.5 -57.5q74 0 152.5 55.5t150.5 153.5l2 59v28q0 147 -40 220q-44 80 -144 80q-119 0 -222.5 -109.5t-103.5 -265.5z" />
<glyph unicode="h" horiz-adv-x="894" d="M81 1318q1 -36 1 -24q0 113 21.5 164t68.5 51q29 0 48.5 -36.5t25.5 -143.5l12 -229q4 -94 15.5 -220t25.5 -241q86 119 190.5 221.5t153.5 102.5q55 0 88 -72t43 -356q4 -193 6 -213.5t6 -40.5q24 -171 24 -175l1 -2q0 -57 -19.5 -77.5t-56.5 -20.5q-49 0 -71.5 40 t-22.5 149v247q-2 244 -28.5 281t-73.5 37q-41 0 -99.5 -66.5t-136.5 -191.5q23 -385 23 -371t0 10q0 -68 -23.5 -97.5t-71.5 -29.5q-41 0 -59 20.5t-27 176.5q-6 100 -6 192.5t-10 264.5q-47 652 -48 650z" />
<glyph unicode="i" horiz-adv-x="372" d="M66 1274q0 31 19 53.5t138 61.5l58 18q12 4 27.5 10t53.5 29q16 8 25.5 13t20.5 7h7h5q4 -4 9 -13t5 -15t-2 -11.5t-113 -101.5l-71 -63q-35 -33 -60.5 -43.5t-52.5 -10.5q-31 0 -50 16.5t-19 49.5zM98 174q-1 20 -1 43q0 33 2 71q3 62 16 199l26 347q6 80 30 125t69 45 q23 0 33 -16.5t10 -57.5q0 -53 -18.5 -217t-18.5 -334q0 -113 11 -190.5t11 -79.5q-2 -41 -24.5 -63.5t-61.5 -22.5q-49 0 -66.5 34.5t-17.5 116.5z" />
<glyph unicode="j" horiz-adv-x="495" d="M-584 -543q0 25 17.5 38t44.5 13q23 0 46 -6t85 -39q59 -29 116.5 -44t112.5 -15q207 0 309.5 123t102.5 317q-2 106 -10.5 481t-14.5 629q-57 -43 -117 -43h-11q-67 4 -66 50q-2 27 15 42t81 33l84 23q33 8 72 23.5t55 15.5q31 0 48 -19.5t17 -56.5q0 -20 -9 -52 t-13 -87q-4 -43 -8 -99.5t-4 -74.5q0 -115 16 -406t16 -401q0 -287 -139 -447t-434 -160q-119 0 -265.5 50.5t-146.5 111.5zM135 1493q0 14 6 30.5t21 28.5q14 14 34.5 22.5t43.5 10.5q59 0 92 -31.5t33 -78.5q0 -31 -27 -52.5t-70 -21.5h-8q-59 0 -91 26q-34 29 -34 66z " />
<glyph unicode="k" d="M74 1489q0 8 -1 15q0 44 11 65q12 25 47 24q51 0 65.5 -24.5t22.5 -95.5q10 -94 12 -331t9 -356l10 -239q256 139 444.5 336.5t220.5 197.5q14 0 20.5 -8t8.5 -22q0 -94 -181 -259t-386 -264q23 1 44 2q219 0 379 -112q175 -123 175 -307q-2 -43 -20.5 -62.5t-55.5 -17.5 q-29 -2 -38 10t-13 47q-27 147 -199 252.5t-387 108.5q49 -336 50 -342.5t1 -8.5q0 -55 -28.5 -81.5t-81.5 -26.5q-27 0 -44.5 7t-37.5 531l-21 476q-8 166 -15 246.5t-11 238.5z" />
<glyph unicode="l" horiz-adv-x="606" d="M104 297q0 14 2 27q2 338 17.5 673.5t19.5 454.5q0 88 30 131t79 43q18 0 27.5 -12t11.5 -31q0 -2 -21 -353q-17 -293 -17 -539q0 -49 1 -97l2 -240q0 -104 28.5 -149t90.5 -45q59 0 126.5 41t116.5 106q51 70 81 100.5t46 30.5q8 -2 12.5 -7t4.5 -21q0 -113 -178 -248 q-176 -133 -328 -133h-4q-78 0 -112 41t-34 155q-2 58 -2 72z" />
<glyph unicode="m" horiz-adv-x="1351" d="M119 156q0 33 7 180t11 317q0 39 -1 108v40q0 35 1 51q0 70 15.5 97.5t60.5 27.5q37 0 57.5 -15.5t24.5 -58.5q0 -4 0 -2t0 -219q86 84 226.5 181.5t185.5 97.5q14 0 22 -9.5t8 -23.5q0 -123 -1 -124t-1 -73q315 227 353 247.5t67 20.5q53 -2 72.5 -30.5t19.5 -116.5 q0 -6 -1 -9t-23 -288q-6 -55 -7.5 -94t-1.5 -82q0 -66 3.5 -99.5t13.5 -56.5l12 -33q8 -23 8 -43q0 -26 -13 -48q-24 -38 -75 -38h-6q-54 0 -76 34q-23 36 -22 124q-1 14 -1 30.5t1 35.5q2 37 16 241q2 51 6 125t4 109q0 45 -16 69.5t-45 24.5q-43 0 -132 -76t-151 -153 q3 -170 4 -198v-5q2 -1 0 10q0 -43 6.5 -100.5t6.5 -110.5q0 -80 -29 -125t-67 -45q-39 0 -54.5 30t-15.5 105q0 4 -1 3t17 305q2 41 8.5 101t6.5 89q0 39 -15.5 56.5t-40.5 19.5q-31 0 -92 -49t-117 -107l-79 -84q-2 -47 -4 -92v-23q0 -58 4 -202q0 -104 -27 -143.5 t-74 -39.5q-35 0 -48 31q-12 27 -11 86v19z" />
<glyph unicode="n" horiz-adv-x="993" d="M82 866q0 49 27.5 75t74.5 28q45 0 64.5 -32t25.5 -134l9 -178l94 108q94 109 203.5 186.5t191.5 77.5q47 0 71.5 -32.5t35.5 -302.5l6 -168q4 -121 15 -171.5t11 -138.5q0 -61 -26.5 -89.5t-71.5 -28.5q-51 0 -70.5 39.5t-19.5 166.5q0 61 7 169t7 204q0 127 -17.5 167 t-53.5 40q-47 0 -106.5 -51t-197.5 -211l-73 -86v-44q0 -155 13 -173q15 -20 15 -207q0 -47 -36.5 -73.5t-79.5 -29.5q-41 0 -62 26q-15 18 -14 137q0 48 2 112l4 135q1 20 1 41q0 131 -23 263q-27 152 -27 175z" />
<glyph unicode="o" horiz-adv-x="837" d="M61 569q0 227 90.5 368.5t268.5 141.5q162 0 259 -135t97 -418q0 -209 -111.5 -356t-271.5 -147q-156 0 -244 155t-88 391zM213 557q0 -172 66.5 -285.5t166.5 -113.5q86 0 147.5 103.5t61.5 270.5q0 215 -57 336t-154 121q-98 0 -165 -113q-66 -110 -66 -307v-12z" />
<glyph unicode="p" horiz-adv-x="1193" d="M119 -889q0 31 4 88.5t6 130.5v21v47l-1 4q1 0 1 283v1103v43q0 174 15 212q17 42 83 42q43 0 56.5 -21.5t13.5 -94.5q0 -141 -14 -194q-9 -33 -9 -126q0 -53 2 -127q217 281 407.5 430.5t356.5 149.5q66 0 92.5 -27.5t26.5 -95.5q0 -328 -269 -642t-437 -314 q-14 0 -21.5 4t-7.5 18q-2 18 5 31.5t42 38.5l96 67q145 100 288.5 320.5t143.5 353.5q0 72 -44 92q-15 7 -31 7q-31 0 -66 -25l-94 -70q-238 -176 -371 -376.5t-133 -413.5q0 -360 7 -560t24 -258l16 -63q6 -22 6 -44q0 -49 -29 -94q-42 -65 -96 -65q-35 2 -52 34t-17 91z " />
<glyph unicode="q" horiz-adv-x="1067" d="M63 463q0 186 127 309t332 123q86 0 158 -38t125 -112l-10 246q-1 15 -1 28q0 48 12 63q15 19 56 20q35 0 49.5 -20.5t69.5 -1083.5l16 -324q10 -211 10.5 -219t2.5 -14q0 -12 6 -63.5t6 -86.5q0 -66 -15.5 -85t-43.5 -19q-82 0 -109 293q-17 190 -17 501q0 167 5 369 q-39 -152 -149.5 -232.5t-282.5 -80.5q-158 0 -252.5 111.5t-94.5 314.5zM215 459q-2 -131 73 -220q73 -87 192 -87h5q131 0 205 85t74 267q-2 125 -75 207t-189 82q-123 0 -204 -95.5t-81 -238.5z" />
<glyph unicode="r" horiz-adv-x="677" d="M82 898v24v16q0 59 13 74q15 16 50 16q55 0 78 -33.5t23 -132.5q-1 -88 -1 -139.5t1 -67.5q2 -31 6 -71q78 154 189.5 287t185.5 135q45 -2 70.5 -41t25.5 -113q-2 -47 -11.5 -63.5t-31.5 -14.5q-12 0 -26.5 5t-22.5 16q-27 27 -40 31.5t-32 4.5q-72 0 -166 -159.5 t-94 -278.5q0 -37 3 -105.5t3 -113.5q0 -88 -21.5 -127t-78.5 -39q-41 0 -55.5 8.5t-20.5 24.5q-8 16 -8 157.5t-12 331.5l-9 119q-2 23 -6 67t-4 64q-8 107 -8 118z" />
<glyph unicode="s" horiz-adv-x="694" d="M-14 -84q0 10 11 17.5t42 15.5l92 26q170 47 290 139.5t120 172.5q0 25 -21.5 50t-122.5 89l-106 66q-111 68 -165 145.5t-54 169.5q0 117 129 215t272 98q35 0 54.5 -16.5t21.5 -44.5q-2 -20 -15.5 -34.5t-119.5 -51.5q-135 -49 -167 -82t-32 -80q0 -43 34 -93t91 -83 l115 -72q152 -96 189.5 -139t39.5 -86q0 -125 -221 -282.5t-434 -157.5q-23 2 -33 6t-10 12z" />
<glyph unicode="t" horiz-adv-x="622" d="M-109 1016q0 10 9.5 24.5t242.5 178.5l-10 225q-1 8 -1 15q0 41 20 71q23 35 63 35q37 0 55.5 -20.5t18.5 -119.5v-137l213 101q16 8 43.5 28.5t111.5 44.5q8 2 11.5 1t5.5 -1q0 -2 1 -3q1 -13 -36 -40.5t-92 -58.5l-256 -143l35 -271q20 -156 19 -330v-17v-104 q0 -86 1 -100l4 -84q3 -85 43 -85q30 0 81 49q118 114 157 114q12 -2 21.5 -7t9.5 -13q0 -2 -2 -3l-52 -53l-59 -59q-18 -18 -53 -61t-103 -134q-29 -37 -60.5 -52t-68.5 -15q-29 0 -43 22.5t-14 61.5q0 35 1 102.5t1 102.5q0 78 -5 170t-18 276l-30 416q-72 -35 -139 -96 q-64 -59 -85 -60h-2q-29 0 -34 5.5t-5 23.5z" />
<glyph unicode="u" horiz-adv-x="917" d="M96 770q0 68 6 123q8 115 26.5 134.5t61.5 19.5q39 0 56 -24q15 -21 14 -167v-39q0 -393 43 -514t141 -121q90 0 144.5 91.5t56.5 281.5v113q-2 53 -2 75v43q-4 68 -4 75v16v12q0 60 17 91q19 34 61 34q31 -2 49 -35t18 -111v-174q0 -129 9.5 -224t27.5 -167l25 -100 q8 -35 8 -63q0 -36 -13 -60q-22 -41 -69 -41h-4q-37 0 -58.5 39t-29.5 215q-51 -111 -141 -189q-88 -76 -170 -75h-4q-115 0 -181.5 115.5t-81.5 447.5q-6 110 -6 178z" />
<glyph unicode="v" horiz-adv-x="651" d="M25 1001q0 35 18 56.5t51 23.5q20 0 31.5 -14t19.5 -45l27 -131q55 -281 83 -388.5t75 -262.5q6 23 6 21.5t166 514.5l84 262q4 12 18 37q11 20 14 20q1 0 0 -1q-2 -51 -3 -74t-3 -35l-39 -186q-90 -426 -156.5 -605.5t-135.5 -179.5q-25 0 -38.5 15.5t-29.5 91.5l-18 76 q-102 416 -136 578.5t-34 225.5z" />
<glyph unicode="w" horiz-adv-x="1036" d="M100 614q0 201 25 289t100 88q23 0 30 -10t7 -39q0 -20 -16.5 -118.5t-16.5 -231.5q0 -96 14.5 -176t51.5 -166q51 66 85 134.5t66 182.5l33 117q8 33 24.5 48.5t47.5 15.5q16 0 24.5 -8.5t18.5 -39.5l20 -77q20 -84 81 -202t120 -200q20 84 30.5 161t10.5 239 q-2 10 -2 22t2 47q0 213 12.5 305t53.5 99h7h7q8 -4 13 -12.5t5 -37.5q0 2 -8 -82q-7 -68 -6 -172v-55q-1 -11 -1 -25q0 -28 3 -69q4 -61 4 -92q0 -297 -38 -375t-113 -78q-45 0 -91.5 59.5t-134.5 243.5l-49 103q-61 -186 -145 -339t-133 -153q-61 0 -101.5 190.5 t-40.5 413.5z" />
<glyph unicode="x" horiz-adv-x="847" d="M29 -39.5q0 19.5 28 86.5l62 148q43 102 85 180t93 151q-90 127 -170 265q-78 134 -78 174q0 33 28.5 64.5t63.5 31.5q29 0 58.5 -27.5t52.5 -72.5l39 -80q43 -92 69.5 -137.5t59.5 -92.5q86 111 235.5 235t204.5 124q33 0 43 -27q3 -7 3 -14q0 -21 -23 -43l-398 -394 q35 -55 76 -104t86 -88l88 -80q20 -20 33.5 -49t15.5 -53q0 -33 -29.5 -54.5t-66.5 -21.5q-39 0 -82 32.5t-137 161.5l-88 119q-51 -66 -104.5 -143.5t-86.5 -138.5l-92 -166q-10 -16 -26 -21q-5 -1 -10 -1q-11 0 -21 7q-12 9 -12 28.5z" />
<glyph unicode="y" horiz-adv-x="731" d="M-41 -786q0 -2 283 796l106 301q-72 121 -195.5 366t-123.5 286q0 31 25.5 57.5t64.5 26.5q27 0 44 -14.5t38 -57.5l59 -131q-4 9 -4.5 9t40.5 -91q54 -121 124 -248q80 170 112.5 255t77.5 183l52 113q4 12 25 13h6q18 0 30 -5q11 -2 11 -18q0 -10 -3 -21l-133 -385 q-154 -442 -277.5 -755.5t-234.5 -561.5l-53 -116q-14 -27 -22.5 -33t-18.5 -8q-12 2 -21.5 11t-11.5 23q0 7 0 5z" />
<glyph unicode="z" horiz-adv-x="737" d="M10 -83q-4 11 -4 23q0 25 17 58l133 264q61 125 138 299t142 336q-268 -158 -279.5 -160t-19.5 -2q-33 0 -52 18.5t-19 49.5q0 23 13 40t64 42q33 14 128.5 63t154.5 80l129 68q24 12 43 12t32 -13t13 -33q0 -19 -12 -44l-64 -133q-145 -303 -224 -476t-155 -352 q262 137 429 258t198 121q16 0 23.5 -6t7.5 -18q0 -86 -336 -307.5t-430 -221.5q-58 2 -70 34z" />
<glyph unicode="{" horiz-adv-x="749" d="M100 927v7q0 20 8.5 33.5t38.5 17.5q72 8 106 50t40 241v9v104q-2 279 52 337t204 58q27 -2 36 -4t11 -13v-6v-2l-4 -4l-2 -2q-2 -2 -4 -2t-6 2q-74 8 -125.5 -39t-51.5 -151q0 -53 6.5 -164t6.5 -146q-2 -174 -53.5 -226t-194.5 -91q92 -20 146.5 -49t95.5 -498 q20 -244 55 -291t199 -67l61 -8l9 -4.5t5 -4.5q0 -6 -6 -8t-55 -2q-291 0 -341 53.5t-58 360.5q-2 88 -9.5 205.5t-11.5 150.5q-8 37 -24.5 63.5t-40.5 41.5q-93 45 -93 48z" />
<glyph unicode="|" horiz-adv-x="339" d="M131 791.5q0 13.5 2 29.5q10 860 10 864.5t-10 233.5q-4 41 16.5 64.5t57.5 23.5q29 0 43 -16.5t18 -59.5v-49v-63q-51 -1143 -53 -1308t-2 -323q-4 -725 -24 -736l-19 -11q-18 0 -26.5 36t-6.5 273v317v130q-6 581 -6 594.5z" />
<glyph unicode="}" horiz-adv-x="749" d="M10 1774q0 4 5 7t57 3q289 0 339 -54.5t58 -361.5q2 -88 9 -206t11 -150q8 -37 24.5 -63.5t43.5 -39.5q90 -47 91 -50t1 -5q0 -23 -9 -36t-38 -15q-74 -10 -107.5 -52t-37.5 -239q-2 -6 -2 -11t2 -102q0 -281 -54.5 -338t-201.5 -57q-29 0 -38 2t-9 14q-2 2 -2 4.5t2 4.5 l2 2l4 4h2h8q72 -10 124 37t52 153q-2 51 -7 162t-5 148q0 172 51 224t197 93q-94 18 -148.5 47t-95.5 498q-20 244 -55 291t-197 69l-61 8q-6 0 -10.5 2.5t-4.5 6.5z" />
<glyph unicode="~" horiz-adv-x="987" d="M92 1458q0 61 146.5 103.5t232.5 -15.5l39 -26q70 -49 120 -42t105 54l90 76q25 20 46.5 18t23.5 -24q0 -104 -167 -196.5t-286 -33.5q-66 31 -89 37t-48 6q-49 0 -85 -12t-75 -12q-27 0 -40 19t-13 48z" />
<glyph horiz-adv-x="1548" d="M-225 1268q0 25 15 43t71 43l157 67q551 236 980 372t634 136q4 0 7 -1t6 -3q0 -6 -3.5 -10t-27.5 -8l-76 -17q-104 -23 -401 -133t-510 -203q4 -164 10 -320.5t12 -305.5q98 63 223 107t222 44q164 0 265 -112.5t109 -274.5q25 -272 -109 -490t-335 -218 q-84 0 -137 28.5t-53 75.5q0 16 5 23.5t29 7.5q35 0 76 -10.5t66 -10.5q135 0 222 157t87 394q0 109 -81 193t-194 84q-63 -2 -165.5 -42t-225.5 -122q0 -520 -29.5 -615.5t-80.5 -95.5q-29 -2 -49.5 39t-20.5 782v621q-35 -12 -58.5 -22.5t-398.5 -190.5l-131 -63 q-51 -27 -80.5 -7.5t-29.5 58.5z" />
<glyph horiz-adv-x="827" d="M94 1460q0 12 37 32.5t68 27.5q-8 68 8 105.5t61 37.5q29 -2 60.5 -23.5t54.5 -52.5q113 55 250 112.5t285 108.5l118 41q37 12 61.5 19.5t39.5 7.5q12 0 21 -8t9 -17q0 -10 -22.5 -25.5t-46.5 -25.5l-80 -35q-403 -176 -506.5 -241.5t-171.5 -126.5 q-20 -334 -23.5 -517.5t13.5 -371.5l14 -189q14 -205 -17.5 -247.5t-97.5 -40.5q-37 -2 -53 20.5t-14 100.5l8 350q6 311 16.5 500.5t10.5 343.5q-27 16 -65 58t-38 56zM469 1870q0 6 15.5 33t27.5 43l57 74q123 158 189.5 238.5t77.5 80.5q4 0 19 -24.5t15 -34.5 q-2 -16 -27.5 -45t-135.5 -131l-107 -99q-39 -35 -69.5 -93t-45.5 -58q-6 0 -11 5t-5 11z" />
<glyph horiz-adv-x="1198" d="M143 1516q-2 88 20.5 120.5t67.5 34.5q43 0 62.5 -20.5t21.5 -59.5l33 -671q74 84 142.5 165.5t318.5 440.5l86 123q29 43 75 40t48 -49q0 -68 -122 -252t-390 -509q311 -127 584.5 -390.5t273.5 -408.5q0 -35 -17.5 -51.5t-48.5 -16.5h-12q-6 0 -160 166l-141 150 q-135 141 -286.5 243.5t-350.5 198.5q10 -168 15.5 -219t11.5 -92q29 -254 28.5 -263.5t2.5 -15.5q0 -106 -40 -142t-116 -36q-59 0 -74.5 90t-25.5 946zM485 1800q0 6 15.5 33t27.5 43l57 74q123 158 189.5 238.5t77.5 80.5q4 0 19 -24.5t15 -34.5q-2 -16 -27.5 -45 t-135.5 -131l-107 -99q-39 -35 -69.5 -93t-45.5 -58q-6 0 -11 5t-5 11z" />
<glyph horiz-adv-x="1529" d="M-225 1268q0 25 15 43t71 43l157 67q551 236 980 372t634 136q4 0 7 -1t6 -3q0 -6 -3.5 -10t-27.5 -8l-76 -17q-104 -23 -401 -133t-510 -203q4 -164 10 -320.5t12 -305.5q98 63 223 107t222 44q180 -2 266 -99t86 -275q0 -446 -36 -520t-95 -74q-45 -2 -59.5 38.5 t1.5 215.5l23 247q10 129 -49.5 221.5t-186.5 92.5q-76 0 -178 -45t-213 -119q0 -520 -29.5 -615.5t-80.5 -95.5q-29 -2 -49.5 39t-20.5 782v621q-35 -12 -58.5 -22.5t-398.5 -190.5l-131 -63q-51 -27 -80.5 -7.5t-29.5 58.5z" />
<glyph horiz-adv-x="1232" d="M8 -143q-29 31 25.5 83t44.5 183q-4 31 -1 86t3 74q0 627 -13.5 790.5t-39.5 286.5l-9 37q-18 86 7.5 126t87.5 40q92 0 123.5 -250t31.5 -1094v-100q0 -39 -8 -90.5t-20 -98.5q211 72 369.5 133.5t314.5 131.5q-16 176 -27.5 390t-11.5 351q0 410 29.5 543t91.5 133 q27 0 46 -38t21 -700v-630l84 51l53 31q43 25 75 4t34 -56q0 -29 -19.5 -49t-66.5 -39l-80 -32q-53 -23 -213 -79.5t-246 -82.5q10 -16 16.5 -35.5t6.5 -65.5q-2 -72 -15.5 -134t-138.5 -273l-37 -62q-20 -31 -25 -33.5t-12 -4.5q-2 0 -2 1v9q0 8 2.5 16t20.5 41l25 49 q20 45 41.5 144.5t21.5 152.5q0 20 -9 62.5t-24 91.5q-231 -82 -375.5 -106.5t-181.5 12.5z" />
<glyph horiz-adv-x="987" d="M-127 1100q-10 35 10.5 51t89.5 16l127 37q-14 152 7.5 228.5t78.5 76.5q33 -2 50.5 -43t23.5 -137l4 -69q295 74 339 80t99 10l154 -21h2q0 -6 26.5 34t-616.5 -247q8 -119 19.5 -237.5t25.5 -239.5q129 170 211 247t135 77q129 0 203 -147.5t74 -401.5 q0 -311 -159 -546t-412 -235q-86 0 -138.5 31t-52.5 76q0 18 4 24.5t31 6.5q23 0 64.5 -11.5t76.5 -11.5q188 0 311 167t125 452q0 170 -62 286.5t-128 116.5q-59 0 -129 -64.5t-150 -203.5q18 -291 19.5 -316.5t1.5 -44.5q0 -72 -22.5 -100.5t-69.5 -26.5q-47 0 -64.5 27 t-23.5 170q-31 678 -38 744.5t-14 127.5l-124 -20q-49 -14 -74 -5t-35 42z" />
<glyph horiz-adv-x="991" d="M85 908q-1 54 10 80t48 26q47 -2 57.5 -17.5t14.5 -52.5q2 -37 6 -150.5t12 -240.5q166 63 295 157.5t205 202.5l64 91q25 37 64.5 44t39.5 -30q0 -127 -186.5 -280.5t-431.5 -227.5q297 76 491.5 -69.5t194.5 -358.5q0 -41 -18.5 -60.5t-55.5 -19.5q-27 0 -38 10.5 t-15 46.5q-33 193 -208 303.5t-388 61.5q10 -68 24.5 -176.5t14.5 -151.5q-2 -57 -27 -81.5t-72 -24.5t-61 21.5t-16 183.5q-8 377 -10.5 435t-4.5 107q-8 111 -8 127v33q-2 12 -1 11zM373 1126q0 6 15.5 32.5t27.5 43.5l57 73q135 174 195.5 247t71.5 73q8 -2 21 -26.5 t13 -32.5q0 -12 -15 -32t-148 -145l-107 -100q-37 -35 -68.5 -92t-46.5 -57q-6 0 -11 5t-5 11z" />
<glyph horiz-adv-x="915" d="M-127 1100q-10 35 10.5 51t89.5 16l127 37q-20 135 5.5 220t80.5 85q33 -2 50.5 -43t23.5 -137l4 -69q434 106 462 109t58 5q147 -16 150.5 -18t3.5 -4q0 -35 -289 -115t-381 -121q8 -119 19.5 -237.5t23.5 -239.5q111 145 205 234.5t141 89.5q55 0 87 -68t44 -360 q8 -223 9.5 -235.5t3.5 -18.5q2 -35 12 -92.5t12 -84.5q0 -47 -20.5 -72.5t-54.5 -25.5q-51 0 -73 38t-22 151v247q0 242 -28.5 280t-75.5 38q-41 0 -104.5 -72t-129.5 -186q18 -291 19.5 -316.5t1.5 -44.5q0 -72 -22.5 -100.5t-69.5 -26.5q-47 0 -64.5 27t-23.5 170 q-31 678 -38 744.5t-14 127.5l-124 -20q-49 -14 -74 -5t-35 42z" />
<glyph unicode="&#x45d;" horiz-adv-x="413" />
<glyph unicode="&#x40d;" horiz-adv-x="413" />
<glyph unicode="&#xa1;" horiz-adv-x="915" d="M29 1493q0 37 26.5 66.5t71.5 29.5q23 0 40 -9t52 -64l100 -166q168 -279 168 -280t78 -85q33 102 46.5 148.5t25.5 85.5q82 293 79 284l62 189q16 55 30.5 66t37.5 11q18 0 29.5 -6t13.5 -14v-2v-6q-2 -6 1 -15.5t3 -13.5q-2 -10 -4 -24.5t-146 -585.5l-69 -277 q12 -14 24.5 -37.5t14.5 -35.5q0 -14 -15.5 -28.5t-33.5 -21.5q-74 -119 -130.5 -257t-121.5 -353l-93 -295q-23 -70 -42 -91t-48 -34q-20 -8 -24 2.5t18 77.5l115 359q20 70 61 231.5t97 407.5l-127 184q-156 221 -249 373.5t-91 185.5zM145 2111q0 14 8 30t15 16 q-16 0 36 -55.5t205 -55.5q55 -2 108.5 15.5t139.5 74.5q72 47 72 48t2 1l3 -5q3 -5 3 -7q0 -41 -119 -137.5t-225 -96.5q-109 0 -178.5 54.5t-69.5 117.5z" />
<glyph unicode="&#xa2;" horiz-adv-x="712" d="M-63 -827q0 23 93 231.5t238 632.5l84 246q-113 125 -227.5 333.5t-114.5 303.5q0 41 26.5 68.5t61.5 29.5q27 -2 46.5 -16.5t31.5 -51.5l47 -147q33 -106 80 -182t115 -140q176 463 173 457t1 2l49 115q18 45 47 25.5t21 -56.5l-101 -377q-94 -350 -234.5 -701.5 t-297.5 -641.5l-64 -117q-23 -43 -27.5 -45t-13.5 -2q-16 0 -25 9.5t-9 23.5zM47 1417q0 16 7 29.5t16 13.5q-6 -2 38.5 -56t202.5 -54q53 0 108.5 17t139.5 75l72 49h2q2 -2 3 -6t3 -6q0 -47 -124 -141.5t-220 -94.5q-109 0 -178.5 55.5t-69.5 118.5z" />
<glyph unicode="&#xa3;" horiz-adv-x="958" d="M45 155q0 5 2 13q6 25 31.5 28t77.5 -18l49 -20q25 -12 72 -19.5t96 -5.5q158 0 242.5 82t84.5 289q0 70 -4 139.5t-14 157.5q-14 147 -17 202.5t-3 102.5q0 78 15 193.5t40 224.5q-92 -14 -179 -44t-163 -73l-185 -109q-39 -23 -53 -27.5t-26 -4.5q-25 0 -38.5 12 t-13.5 37q0 31 21.5 60.5t361.5 189.5q168 78 293 125t180 47q39 -2 52.5 -13.5t13.5 -33.5q-2 -8 -3 -17.5t-77 -169.5q-47 -100 -67.5 -208.5t-20.5 -297.5q0 -47 2 -121.5t4 -146.5q2 -47 8.5 -120.5t6.5 -108.5q0 -233 -126 -353t-317 -118q-113 -2 -222.5 37.5 t-121.5 78.5q-2 5 -2 10z" />
<glyph unicode="&#xa5;" horiz-adv-x="847" d="M94 1460q0 12 37 32.5t68 27.5q-8 80 10 111.5t59 31.5q29 0 60.5 -22.5t54.5 -53.5q121 57 248 110.5t287 110.5l129 45l49 84q63 109 60 108t-1 1q14 0 21.5 -5t9.5 -24q0 -123 -12.5 -156.5t-75.5 -60.5l-82 -35q-287 -123 -431.5 -199.5t-244.5 -168.5 q-18 -223 -22.5 -480.5t10.5 -408.5l16 -189q14 -184 -13.5 -236t-101.5 -52q-37 -2 -53 20.5t-14 100.5l8 350q6 315 16.5 515t10.5 329q-27 16 -65 58t-38 56z" />
<glyph unicode="&#xa6;" horiz-adv-x="344" d="M133 475q-2 41 18.5 65.5t55.5 24.5q29 0 43 -18.5t18 -59.5v-47v-65q-16 -350 -38.5 -642t-36.5 -292q-16 2 -25.5 26.5t-7.5 282.5q-6 178 -12.5 358.5t-14.5 366.5zM137 1921q-2 41 17.5 63.5t56.5 22.5q29 0 43 -16.5t18 -59.5v-26v-88q-2 -39 -1 -127t1 -136 q-4 -113 -23.5 -333t-31.5 -220q-6 0 -5 -2t-75 922z" />
<glyph unicode="&#xa7;" horiz-adv-x="851" d="M41 625q0 37 6 63.5t260 323.5l-59 65q-49 51 -84 134t-35 163q0 139 83 238.5t210 99.5q117 0 201 -81t84 -169q0 -37 -12.5 -57.5t-24.5 -20.5q-18 0 -33.5 14.5t-34.5 59.5l-29 66q-23 49 -69.5 81.5t-100.5 32.5q-70 0 -111.5 -44t-41.5 -111q0 -57 39 -131t123 -162 l192 -207q141 -154 174 -222.5t33 -139.5q0 -111 -80 -199t-254 -156l74 -80q74 -82 110.5 -162.5t36.5 -160.5q0 -133 -91 -229.5t-222 -98.5q-115 0 -212 87t-97 169q0 33 11 52.5t28 17.5q16 0 16 1t49 -73l51 -78q31 -47 73 -75.5t93 -28.5q82 0 129 45t47 106 q0 57 -46 139.5t-113 159.5l-162 183q-125 137 -168 223t-43 162zM195 672q-2 -76 67.5 -173.5t179.5 -187.5q72 55 122 139.5t50 153.5q0 66 -58 152t-183 190q-82 -49 -130 -126.5t-48 -147.5z" />
<glyph unicode="&#xa8;" horiz-adv-x="1126" d="M121 86l16 471q0 29 7.5 391.5t17.5 462.5l8 80q6 72 56 96.5t132 5.5q145 70 280.5 124.5t305.5 113.5l137 47q23 6 47.5 13t34.5 7q6 0 13.5 -4t11.5 -12q8 -14 6 -23.5t-70 -37.5l-80 -35q-422 -184 -519 -242.5t-222 -144.5q-14 -164 -17 -284t5 -245 q145 106 304 198.5t363 186.5l68 31q39 16 53.5 16.5t14.5 -10.5q0 -23 -9.5 -41t-23.5 -28l-45 -35q-78 -59 -203 -127t-256 -158l-264 -184l-2 -498q209 150 344 229.5t250 120.5l153 54q74 25 80 24.5t15 1.5q14 0 26 -4t12 -8q-2 -8 -20 -26.5t-31 -24.5l-69 -39 q-346 -195 -592 -359.5t-275 -164.5q-31 0 -48 15t-15 46zM297 2226q-2 51 21.5 94t48.5 47h2q35 -4 52 -19t19 -56q-2 -125 -19.5 -169t-58.5 -44q-37 0 -52 31.5t-13 115.5zM707 2142q0 147 18 191.5t61 44.5q12 0 34 -13.5t24 -25.5q0 -68 -32 -188.5t-56 -120.5 q-27 0 -38 16t-11 96z" />
<glyph unicode="&#xa9;" horiz-adv-x="1732" d="M156 791q0 133 87 353t175 259q61 27 219 61.5t244 34.5q266 0 479 -166t213 -360q0 -186 -250 -464t-571 -278q-244 0 -420 180.5t-176 379.5zM295 817q-2 -229 148.5 -338.5t396.5 -107.5q240 0 431 190.5t193 384.5q0 172 -195.5 311.5t-480.5 139.5q-217 0 -355 -152 t-138 -428zM508 801q0 176 126 309t232 133q39 0 88.5 -36t51.5 -62q0 -8 -11.5 -11.5t-36.5 -3.5q-12 0 -30.5 2.5t-26.5 2.5q-119 -2 -192.5 -98.5t-73.5 -213.5q-2 -104 61.5 -153t188.5 -47h11h3q4 -2 13.5 -3.5t17.5 -1.5q12 0 31.5 7.5t54.5 11.5h4h4q6 -2 10 -8 t6 -13q-2 -35 -104 -68.5t-182 -33.5q-92 0 -169 94.5t-77 192.5z" />
<glyph unicode="&#xaa;" horiz-adv-x="1273" d="M84 758q0 401 247 689t556 288q106 -2 199.5 -36t93.5 -81q0 -27 -9.5 -36t-23.5 -9q-61 0 -89 13t-136 13q-262 0 -444.5 -203.5t-190.5 -480.5l184 89q76 35 175 75.5t233 89.5l102 37q23 8 43 5t20 -17q0 -31 -20 -38t-27 -11l-75 -43q-133 -76 -257 -132.5 t-141 -64.5l-231 -121q0 -229 139 -387.5t350 -158.5q209 -2 370 157.5t153 157.5h1h3q0 -2 3 -4l3 -2q0 -131 -197.5 -314.5t-449.5 -183.5q-260 0 -422 186.5t-162 522.5z" />
<glyph unicode="&#xab;" horiz-adv-x="1378" d="M100 776q0 4 2 8q2 12 10.5 27.5t290.5 318.5q256 297 277.5 309.5t38.5 12.5q18 0 38.5 -11t20.5 -24q0 -31 -161.5 -237.5t-235.5 -284.5q-39 -37 -35 -93.5t39 -99.5q39 -41 74 -72.5t284 -211.5l68 -49q39 -31 20.5 -63t-18.5 -19q0 -29 -105.5 22t-318.5 187 q-123 84 -203 158.5t-84 113.5q-2 4 -2 8zM633 772q-2 55 26.5 109.5t145.5 152.5l51 43q6 4 14.5 12.5t155.5 198.5l49 64q8 12 26.5 21t35.5 9q8 0 12 -7t4 -21q-2 -47 -139 -211t-199 -277q197 -106 328 -248.5t133 -230.5q0 -4 -6 -7t-70 62l-57 58q-16 14 -53 37.5 t-68 40.5l-64 30q-35 14 -65.5 27.5t-155.5 62.5l-49 19q-31 10 -43 21t-12 34z" />
<glyph unicode="&#xac;" horiz-adv-x="1515" d="M76 676q0 35 510 132t669 105q88 -6 136.5 -57t48.5 -127q0 -8 -2 -15t-2 -14q-10 -33 -30 -54t-40 -21q-33 0 -55.5 19.5t-22.5 41.5q0 2 6 9t6 14q0 57 -62 80.5t-142 -13.5q-197 -43 -368 -74.5t-540 -87.5q-55 -18 -83.5 -5.5t-28.5 67.5z" />
<glyph unicode="&#xad;" d="M76 657q0 31 45 58.5t266 89.5l74 20q59 16 148 31.5t132 15.5q61 0 120 -13t59 -34q-2 -12 -8.5 -21t-166.5 -52l-73 -21q-92 -27 -113.5 -47t-142.5 -47l-107 -25q-115 -27 -174 -17.5t-59 62.5z" />
<glyph unicode="&#xae;" horiz-adv-x="1916" d="M254 1233q0 371 177 540t552 171q262 0 475 -169t213 -360q0 -248 -265 -493.5t-556 -245.5q-260 -2 -428 177t-168 380zM416 1364q-94 -213 82 -382t440 -169q240 0 432.5 191.5t192.5 384.5q0 176 -191.5 318t-470.5 144q-188 0 -304 -105.5t-163 -307.5l94 18 q90 16 196.5 101t297.5 85q80 0 98.5 -13t18.5 -42q0 -23 -9.5 -45t-250.5 -252q16 -8 28.5 -13t161.5 -54l117 -39q72 -25 85 -38t13 -34q0 -20 -36 -47t-56 -27q-90 0 -183.5 76t-220.5 60v-78q-2 -92 -29.5 -118t-78.5 -24q-18 0 -27.5 53.5t-1.5 112.5q0 16 3 27.5 t3 19.5q0 41 -9 122t-17 124q-41 -16 -101.5 -29.5t-113.5 -19.5zM768 1507q-2 -29 2 -77t14 -105q18 29 93 95.5t75 101.5t-73.5 23.5t-110.5 -38.5z" />
<glyph unicode="&#xaf;" horiz-adv-x="555" d="M135 287q0 127 19.5 478t29.5 574l4 101q2 80 33 123t78 43q43 0 69.5 -27t26.5 -70q-2 -131 -44 -652t1 -671l10 -36q18 -68 -15.5 -113t-94.5 -45q-63 0 -90 56.5t-27 238.5zM80 2016q0 37 16.5 71.5t42.5 38.5q37 -31 41 -38t4 -17q0 -78 -14 -121t-41 -43t-38 28 t-11 81zM383 1983q0 131 13.5 156.5t41.5 27.5q25 0 41.5 -25.5t16.5 -70.5q-2 -49 -30 -111.5t-56 -62.5q-14 0 -20.5 8t-6.5 78z" />
<glyph unicode="&#xb0;" horiz-adv-x="655" d="M98 1507q0 94 73 213t165 121q94 0 177 -71.5t83 -192.5q0 -139 -88 -236.5t-191 -95.5q-80 0 -149.5 74.5t-69.5 187.5zM252 1571q0 -66 44 -121t93 -55q53 0 92 42t39 117q0 86 -45 156t-100 70q-45 0 -84 -63.5t-39 -145.5z" />
<glyph unicode="&#xb1;" horiz-adv-x="1126" d="M82 250q0 12 8 23.5t39 29.5l154 84q96 53 191 95t204 81l119 45q41 14 103.5 36t84.5 28l49 12q39 8 50.5 6t11.5 -10q0 -6 -7.5 -12t-37.5 -23l-31 -16q-29 -16 -111 -53t-168 -76q-199 -94 -240.5 -114.5t-78.5 -37.5q-51 -27 -66.5 -34t-27.5 -11 q-94 -43 -144.5 -60.5t-70.5 -17.5q-14 0 -23.5 6.5t-7.5 18.5zM82 807q0 16 12 29.5t35 25.5l115 56q43 20 105.5 55t117.5 67l12 105q29 252 54.5 318.5t62.5 66.5q27 -2 45 -22.5t18 -59.5q0 -31 -2 -82t-2 -100v-156l138 51q145 53 160.5 58.5t31.5 9.5l49 12 q47 10 54.5 7t7.5 -11t-10.5 -16.5t-34.5 -18.5l-31 -14q-334 -156 -336 -157t-16 -7q-8 -27 -12.5 -51.5t-8.5 -104.5l-10 -139q-4 -53 -22.5 -77.5t-47.5 -24.5q-43 0 -69.5 76.5t-32.5 222.5l-137 -64q-94 -43 -143.5 -60.5t-71.5 -17.5q-16 0 -23.5 5.5t-7.5 17.5z" />
<glyph unicode="&#xb2;" horiz-adv-x="499" d="M135 287q0 127 19.5 478t29.5 574l4 101q2 80 33 123t78 43q43 0 69.5 -27t26.5 -70q-2 -131 -44 -652t1 -671l10 -36q18 -68 -15.5 -113t-94.5 -45q-63 0 -90 56.5t-27 238.5z" />
<glyph unicode="&#xb3;" horiz-adv-x="372" d="M66 1274q0 31 19 53.5t138 61.5l58 18q12 4 27.5 10t53.5 29q16 8 25.5 13t20.5 7h7h5q4 -4 9 -13t5 -15t-2 -11.5t-113 -101.5l-71 -63q-35 -33 -60.5 -43.5t-52.5 -10.5q-31 0 -50 16.5t-19 49.5zM98 174q-2 51 1 113.5t16 199.5l26 347q6 80 30 125t69 45 q23 0 33 -16.5t10 -57.5q0 -53 -18.5 -217t-18.5 -334q0 -113 11 -190.5t11 -79.5q-2 -41 -24.5 -63.5t-61.5 -22.5q-49 0 -66.5 34.5t-17.5 116.5z" />
<glyph unicode="&#xb4;" horiz-adv-x="598" d="M2 879q0 29 15.5 49t70.5 45l98 41q121 49 263.5 93t283.5 77q-2 41 17.5 77.5t48.5 36.5q16 0 23 -6t7 -24q0 -41 -21.5 -81t-543.5 -255q25 -250 36 -419t11 -296q0 -215 -14 -252t-43 -39q-31 0 -53.5 29t-44.5 655l-11 283l-77 -35q-35 -16 -50.5 -10t-15.5 31z" />
<glyph unicode="&#xb6;" horiz-adv-x="1255" d="M184 1708q0 86 81 144.5t210 58.5q98 0 135 -19.5t21 -148.5l-23 -176q-29 -217 -56.5 -493.5t-78.5 -913.5q-57 -692 -63.5 -721t-14.5 -29q-2 0 -14 6t-12 396q0 160 5 296t109 1309q-133 31 -217 116t-82 175zM799 -424q0 289 25.5 742.5t93.5 1272.5l14 178 q2 41 21.5 60.5t52.5 21.5q43 -2 58 -30.5t-5 -171.5l-25 -172q-25 -164 -91 -809t-66 -779q0 -57 1 -99t5 -77q6 -74 5 -103.5t-5 -62.5q-12 -76 -24.5 -105.5t-29.5 -29.5q-12 0 -21 46t-9 118z" />
<glyph unicode="&#xb8;" horiz-adv-x="749" d="M66 430q0 238 145 400.5t299 162.5q68 0 102.5 -28.5t34.5 -73.5q0 -115 -113.5 -255t-326.5 -306q14 -86 73.5 -142.5t153.5 -56.5q70 0 170.5 33t186.5 80l63 35l17.5 7t15.5 3v-1q-2 -13 -14.5 -26.5t-30.5 -28.5l-97 -71q-78 -59 -172 -94t-180 -35 q-154 0 -240.5 102t-86.5 295zM184 399q131 104 247 233.5t116 192.5q0 23 -23.5 37.5t-58.5 14.5q-111 0 -204 -155t-77 -323zM274 1331q0 35 16.5 71t43.5 40q39 -31 42 -39t3 -19q0 -78 -13.5 -119.5t-41.5 -41.5q-29 0 -39.5 22.5t-10.5 85.5zM549 1300q0 125 14.5 155 t42.5 30q18 0 30.5 -12.5t12.5 -30.5q0 -41 -26.5 -134.5t-47.5 -93.5q-14 0 -20 8t-6 78z" />
<glyph unicode="&#xb9;" horiz-adv-x="2197" d="M125 326q8 63 16.5 165.5t10.5 180.5l14 803q0 63 33.5 96t103.5 33q23 -2 33 -7.5t16 -48.5l4 -37q4 -47 5 -48t319 -527l121 -201q152 -254 222.5 -342t166.5 -172q-2 467 -12.5 684t-10.5 549v166q0 59 31 101t72 42q29 0 47 -26.5t16 -335.5l-12 -1122 q-2 -135 34 -151.5t38 -166.5q0 -27 -39 -52.5t-74 -25.5q-70 0 -246 207t-274 369l-107 172q-78 123 -154.5 236.5t-158.5 226.5q-18 -152 -27.5 -286t-9.5 -388q0 -68 7 -117t26 -90q8 -20 21.5 -40.5t13.5 -27.5q0 -33 -44 -69.5t-96 -36.5q-76 0 -102.5 71t-3.5 216z M1536 451q0 33 59.5 64.5t151.5 55.5l74 19q94 23 166.5 35t113.5 14q61 0 119.5 -14.5t58.5 -34.5q0 -16 -12 -26.5t-162 -47.5l-73 -18q-43 -12 -120 -45t-145 -50q-111 -29 -172 -14t-59 62zM1536 1073q0 94 72.5 214t165.5 120q94 -2 177 -72.5t83 -191.5 q0 -139 -88 -235.5t-191 -96.5q-80 0 -149.5 74.5t-69.5 187.5zM1692 1137q0 -61 40 -118.5t95 -57.5q55 -2 93 40.5t38 118.5q0 86 -44 156t-102 70q-45 0 -83.5 -59.5t-36.5 -149.5z" />
<glyph unicode="&#xba;" horiz-adv-x="817" d="M47 442q0 252 179.5 440.5t357.5 188.5q72 0 110.5 -39t38.5 -92q0 -18 -4 -22.5t-12 -4.5h-7q-3 0 -30 19q-12 6 -28.5 10t-37.5 4q-152 0 -274.5 -123t-140.5 -303l114 35q74 23 213.5 48.5t214.5 35.5l56 6q23 2 35 -1t14 -13q0 -4 -1 -4t-48 -23l-31 -14 q-33 -16 -178.5 -57t-239.5 -62q-84 -18 -104.5 -24.5t-42.5 -12.5q8 -141 107.5 -227t244.5 -86q49 0 96 13t113 50q47 27 55 29t17 2q12 -2 15 -4t3 -8q-2 -63 -150.5 -125t-277.5 -62q-170 0 -274.5 126t-102.5 300z" />
<glyph unicode="&#xbb;" horiz-adv-x="1355" d="M102 1120q0 33 28 66t60 33q23 0 62 -24t221 -157l176 -131l76 -59l2 -14q0 -8 -6 -18.5t-31 -43.5l-74 -98q-147 -195 -182 -239t-69 -89l-52 -65q-61 -80 -69 -85.5t-15 -5.5q-6 0 -9 1.5t-3 5.5q-2 4 4 16t37 63l23 39q106 184 159.5 266.5t114.5 166.5 q-190 123 -322.5 229t-130.5 143zM541 1246v11q0 43 48 64.5t103 -6.5q41 -10 183.5 -125t312.5 -229q49 -39 62.5 -97.5t-23.5 -95.5l-113 -119q-43 -45 -74.5 -79.5t-130.5 -143.5q-16 -18 -29.5 -32.5t-41.5 -43.5q-2 -2 -1 -1t-20 -19q-31 -78 -45 -91.5t-20 17.5 q-6 27 1 48.5t29 45.5q176 281 192.5 302.5t37.5 47.5q41 55 26.5 120t-82.5 102l-69 47q-174 117 -247 171t-97 93v4q-2 2 -2 9z" />
<glyph unicode="&#xbc;" horiz-adv-x="495" d="M-584 -543q0 25 17.5 38t44.5 13q23 0 46 -6t85 -39q59 -29 116.5 -44t112.5 -15q207 0 309.5 123t102.5 317q-2 106 -10.5 481t-14.5 629q-61 -47 -127.5 -43t-66.5 50q-2 27 15 42t81 33l84 23q33 8 72 23.5t55 15.5q31 0 48 -19.5t17 -56.5q0 -20 -9 -52t-13 -87 q-4 -43 -8 -99.5t-4 -74.5q0 -115 16 -406t16 -401q0 -287 -139 -447t-434 -160q-119 0 -265.5 50.5t-146.5 111.5zM135 1493q0 14 6 30.5t21 28.5q14 14 34.5 22.5t43.5 10.5q59 0 92 -31.5t33 -78.5q0 -31 -27 -52.5t-70 -21.5q-66 -2 -99.5 26.5t-33.5 65.5z" />
<glyph unicode="&#xbd;" horiz-adv-x="1136" d="M-3 36q5 5 17 7l74 10q440 59 631.5 190.5t191.5 311.5q0 102 -72.5 202.5t-185.5 168.5l-227 131q-262 150 -301 198t-39 109q0 174 277.5 339t461.5 165q23 0 34 -14.5t11 -43.5q0 -31 -14 -49t-53 -24l-47 -8q-172 -31 -309.5 -129.5t-137.5 -188.5q0 -45 37 -84 t170 -104l62 -31q315 -160 417.5 -283t102.5 -266q0 -258 -279.5 -439t-798.5 -181q-14 -2 -17 0t-5 4q-6 4 -1 9z" />
<glyph unicode="&#xbe;" horiz-adv-x="694" d="M-14 -84q0 10 11 17.5t42 15.5l92 26q170 47 290 139.5t120 172.5q0 25 -21.5 50t-122.5 89l-106 66q-111 68 -165 145.5t-54 169.5q0 117 129 215t272 98q35 0 54.5 -16.5t21.5 -44.5q-2 -20 -15.5 -34.5t-119.5 -51.5q-135 -49 -167 -82t-32 -80q0 -43 34 -93t91 -83 l115 -72q152 -96 189.5 -139t39.5 -86q0 -125 -221 -282.5t-434 -157.5q-23 2 -33 6t-10 12z" />
<glyph unicode="&#xbf;" horiz-adv-x="385" d="M66 174q0 39 3 96.5t15 216.5l27 347q6 88 28.5 129t67.5 41q25 0 35 -18.5t10 -55.5q0 -45 -19.5 -246t-17.5 -305q-2 -37 0 -75t4 -71q4 -31 10.5 -68.5t6.5 -55.5q0 -41 -20.5 -63.5t-63.5 -22.5q-49 0 -67.5 32.5t-18.5 118.5zM-35 1333q0 49 19.5 80t39.5 31 q12 0 28.5 -17.5t16.5 -40.5q0 -78 -13 -119.5t-42 -41.5q-27 0 -38 22.5t-11 85.5zM268 1300q0 127 13.5 156t41.5 29q25 0 40.5 -26.5t17.5 -72.5q0 -51 -29 -111.5t-57 -60.5q-14 0 -20.5 8t-6.5 78z" />
<glyph unicode="&#xc0;" horiz-adv-x="1298" d="M-2 166q0 39 51 201.5t162 476.5l203 575q102 293 141 338t84 45q35 0 68.5 -40t201.5 -500l86 -240q150 59 227.5 97t137.5 63l211 88q74 31 72.5 30.5t1.5 -0.5l4 -4l4 -4q0 -12 -24.5 -30.5t-182.5 -102.5l-428 -229l82 -256q92 -289 126 -405.5t34 -151.5 q0 -49 -29 -73t-72 -24q-31 0 -61.5 26t-175.5 536l-76 264q-446 -260 -443 -259t-4 -1l-145 -88q-23 -57 -42 -127t-24 -115l-8 -63q-10 -78 -40.5 -110t-80.5 -32q-29 0 -45 31t-16 84zM285 623l534 313l-96 307q-31 94 -61.5 149.5t-57.5 55.5q-35 0 -71.5 -59.5 t-100.5 -272.5z" />
<glyph unicode="&#x410;" horiz-adv-x="1298" d="M-2 166q0 39 51 201.5t162 476.5l203 575q102 293 141 338t84 45q35 0 68.5 -40t201.5 -500l86 -240q150 59 227.5 97t137.5 63l211 88q74 31 72.5 30.5t1.5 -0.5l4 -4l4 -4q0 -12 -24.5 -30.5t-182.5 -102.5l-428 -229l82 -256q92 -289 126 -405.5t34 -151.5 q0 -49 -29 -73t-72 -24q-31 0 -61.5 26t-175.5 536l-76 264q-446 -260 -443 -259t-4 -1l-145 -88q-23 -57 -42 -127t-24 -115l-8 -63q-10 -78 -40.5 -110t-80.5 -32q-29 0 -45 31t-16 84zM285 623l534 313l-96 307q-31 94 -61.5 149.5t-57.5 55.5q-35 0 -71.5 -59.5 t-100.5 -272.5z" />
<glyph unicode="&#xc1;" horiz-adv-x="1226" d="M-74 1364q0 18 8.5 31.5t49.5 40.5l194 116q174 104 387 177t353 73q49 -2 94 -13t45 -32q0 -37 -25.5 -59.5t-107.5 -36.5l-199 -39q-63 -12 -175 -52t-208 -83q18 -137 22.5 -279.5t-8.5 -287.5q135 96 302 162.5t284 66.5q109 0 173.5 -66.5t64.5 -179.5 q0 -227 -353.5 -606t-521.5 -379q-49 0 -69.5 34t-20.5 136l-2 1350q-76 -49 -147.5 -89t-92.5 -38q-23 -2 -35 13t-12 40zM348 72q381 276 527.5 459.5t146.5 340.5q0 66 -36 91.5t-103 25.5q-121 -2 -256 -60.5t-271 -170.5z" />
<glyph unicode="&#x411;" horiz-adv-x="1226" d="M-74 1364q0 18 8.5 31.5t49.5 40.5l194 116q174 104 387 177t353 73q49 -2 94 -13t45 -32q0 -37 -25.5 -59.5t-107.5 -36.5l-199 -39q-63 -12 -175 -52t-208 -83q18 -137 22.5 -279.5t-8.5 -287.5q135 96 302 162.5t284 66.5q109 0 173.5 -66.5t64.5 -179.5 q0 -227 -353.5 -606t-521.5 -379q-49 0 -69.5 34t-20.5 136l-2 1350q-76 -49 -147.5 -89t-92.5 -38q-23 -2 -35 13t-12 40zM348 72q381 276 527.5 459.5t146.5 340.5q0 66 -36 91.5t-103 25.5q-121 -2 -256 -60.5t-271 -170.5z" />
<glyph unicode="&#xc2;" horiz-adv-x="1200" d="M-98 1296q0 104 407.5 324.5t530.5 220.5q72 0 103.5 -34.5t31.5 -102.5q0 -115 -91 -260.5t-313 -390.5q80 49 207 97t191 48q94 0 145 -70.5t51 -175.5q-2 -219 -322.5 -640t-537.5 -421q-47 2 -64.5 34t-17.5 124l-26 1360q-123 -88 -182.5 -127t-75.5 -37 q-14 0 -25.5 14t-11.5 37zM336 1489l14 -559q213 207 345 387t134 266q0 51 -20.5 79t-69.5 28q-39 0 -150.5 -57.5t-252.5 -143.5zM350 739l6 -692q358 311 505 508t149 342q-2 55 -36 93t-106 38q-111 -2 -255 -85t-263 -204z" />
<glyph unicode="&#x412;" horiz-adv-x="1200" d="M-98 1296q0 104 407.5 324.5t530.5 220.5q72 0 103.5 -34.5t31.5 -102.5q0 -115 -91 -260.5t-313 -390.5q80 49 207 97t191 48q94 0 145 -70.5t51 -175.5q-2 -219 -322.5 -640t-537.5 -421q-47 2 -64.5 34t-17.5 124l-26 1360q-123 -88 -182.5 -127t-75.5 -37 q-14 0 -25.5 14t-11.5 37zM336 1489l14 -559q213 207 345 387t134 266q0 51 -20.5 79t-69.5 28q-39 0 -150.5 -57.5t-252.5 -143.5zM350 739l6 -692q358 311 505 508t149 342q-2 55 -36 93t-106 38q-111 -2 -255 -85t-263 -204z" />
<glyph unicode="&#xc3;" horiz-adv-x="829" d="M94 1460q0 12 37 32.5t68 27.5q-8 68 8 105.5t61 37.5q29 -2 60.5 -23.5t54.5 -52.5q113 55 250 112.5t285 108.5l118 41q37 12 61.5 19.5t39.5 7.5q12 0 21 -8t9 -17q0 -10 -22.5 -25.5t-46.5 -25.5l-80 -35q-403 -176 -506.5 -241.5t-171.5 -126.5 q-20 -334 -23.5 -517.5t13.5 -371.5l14 -189q14 -205 -17.5 -247.5t-97.5 -40.5q-37 -2 -53 20.5t-14 100.5l8 350q6 311 16.5 500.5t10.5 343.5q-27 16 -65 58t-38 56z" />
<glyph unicode="&#x413;" horiz-adv-x="829" d="M94 1460q0 12 37 32.5t68 27.5q-8 68 8 105.5t61 37.5q29 -2 60.5 -23.5t54.5 -52.5q113 55 250 112.5t285 108.5l118 41q37 12 61.5 19.5t39.5 7.5q12 0 21 -8t9 -17q0 -10 -22.5 -25.5t-46.5 -25.5l-80 -35q-403 -176 -506.5 -241.5t-171.5 -126.5 q-20 -334 -23.5 -517.5t13.5 -371.5l14 -189q14 -205 -17.5 -247.5t-97.5 -40.5q-37 -2 -53 20.5t-14 100.5l8 350q6 311 16.5 500.5t10.5 343.5q-27 16 -65 58t-38 56z" />
<glyph unicode="&#xc4;" horiz-adv-x="1251" d="M-242 -39q0 20 29 34.5t80 24.5q41 6 74.5 14.5t66.5 22.5q-20 66 0.5 173.5t265.5 918.5q168 557 212 608t89 51q61 -2 129 -118.5t170 -399.5l216 -600q18 -57 51 -153.5t71 -217.5l168 17q68 6 111 1t43 -20q0 -23 -30.5 -38t-256.5 -46q39 -68 7.5 -134t-93.5 -66 q-51 0 -87 36.5t-38 112.5q-387 -80 -658.5 -155.5t-375.5 -92.5l-123 -18q-78 -10 -99.5 3t-21.5 42zM186 94q838 188 815.5 183t2.5 2q-18 47 -33 89t-70 222l-121 381q-102 319 -147 407t-76 90q-4 0 -45 -12t-219 -754l-60 -245q-8 -29 -13 -57.5t-17 -155.5z" />
<glyph unicode="&#x414;" horiz-adv-x="1251" d="M-242 -39q0 20 29 34.5t80 24.5q41 6 74.5 14.5t66.5 22.5q-20 66 0.5 173.5t265.5 918.5q168 557 212 608t89 51q61 -2 129 -118.5t170 -399.5l216 -600q18 -57 51 -153.5t71 -217.5l168 17q68 6 111 1t43 -20q0 -23 -30.5 -38t-256.5 -46q39 -68 7.5 -134t-93.5 -66 q-51 0 -87 36.5t-38 112.5q-387 -80 -658.5 -155.5t-375.5 -92.5l-123 -18q-78 -10 -99.5 3t-21.5 42zM186 94q838 188 815.5 183t2.5 2q-18 47 -33 89t-70 222l-121 381q-102 319 -147 407t-76 90q-4 0 -45 -12t-219 -754l-60 -245q-8 -29 -13 -57.5t-17 -155.5z" />
<glyph unicode="&#xc5;" horiz-adv-x="1153" d="M135 1507q0 88 21.5 129t74.5 43q29 0 43.5 -14t20.5 -43q328 98 399.5 126t149.5 67l114 55q29 14 47.5 19t41.5 5q20 -2 29 -7t9 -15q0 -14 -10 -26.5t-53 -35.5l-115 -59q-18 -10 -83.5 -37.5t-133.5 -62.5q-16 -10 -49 -27l-45 -22l-76 -38q-39 -19 -231 -112 l-8 -121q-8 -96 -6.5 -226t12.5 -247q164 119 356.5 240t290.5 174l70 37q33 16 39 17t12 3q8 0 13 -6t5 -16q0 -16 -10 -34t-23 -28l-47 -37q-35 -27 -193.5 -134t-246.5 -175l-258 -197v-62q0 -40 2 -58v-39v-6q0 -39 3 -77t5 -59l8 -194q543 412 542 410.5t15 9.5 l230 131q29 16 67.5 32.5t53.5 16.5q12 0 18 -6t6 -17q-2 -12 -7 -22t-48 -39l-66 -45q-72 -49 -301 -227.5t-481 -364.5l-80 -59q-53 -37 -80.5 -22t-27.5 79l-9 455q-6 315 -5 488t1 200q-2 33 -5 128t-1 152z" />
<glyph unicode="&#x415;" horiz-adv-x="1153" d="M135 1507q0 88 21.5 129t74.5 43q29 0 43.5 -14t20.5 -43q328 98 399.5 126t149.5 67l114 55q29 14 47.5 19t41.5 5q20 -2 29 -7t9 -15q0 -14 -10 -26.5t-53 -35.5l-115 -59q-18 -10 -83.5 -37.5t-133.5 -62.5q-16 -10 -49 -27l-45 -22l-76 -38q-39 -19 -231 -112 l-8 -121q-8 -96 -6.5 -226t12.5 -247q164 119 356.5 240t290.5 174l70 37q33 16 39 17t12 3q8 0 13 -6t5 -16q0 -16 -10 -34t-23 -28l-47 -37q-35 -27 -193.5 -134t-246.5 -175l-258 -197v-62q0 -40 2 -58v-39v-6q0 -39 3 -77t5 -59l8 -194q543 412 542 410.5t15 9.5 l230 131q29 16 67.5 32.5t53.5 16.5q12 0 18 -6t6 -17q-2 -12 -7 -22t-48 -39l-66 -45q-72 -49 -301 -227.5t-481 -364.5l-80 -59q-53 -37 -80.5 -22t-27.5 79l-9 455q-6 315 -5 488t1 200q-2 33 -5 128t-1 152z" />
<glyph unicode="&#xc6;" horiz-adv-x="1710" d="M-92 96q0 174 214 419t464 345q-162 98 -296 305t-134 359q0 43 22.5 67.5t67.5 24.5q33 0 60.5 -28.5t60.5 -135.5q39 -139 138 -286.5t234 -258.5l-16 609q-2 76 19.5 114.5t68.5 40.5q37 0 58.5 -18.5t25.5 -61.5l33 -676q111 135 207 261.5t241 332.5l99 140 q35 49 79.5 38.5t44.5 -47.5q0 -53 -142 -262t-372 -497q221 -92 421 -248t352 -369l61 -88q43 -63 24.5 -113.5t-65.5 -50.5q-16 0 -33.5 9.5t-142.5 158.5l-135 158q-137 158 -295 261t-344 161q10 -168 15 -214t11 -87q31 -244 32 -255t1 -24q-2 -90 -35.5 -134 t-122.5 -44q-16 0 -47.5 16.5t-46.5 747.5q-201 -70 -354.5 -218.5t-243.5 -338.5l-43 -90q-47 -98 -66.5 -113.5t-43.5 -15.5q-35 0 -55.5 28.5t-20.5 77.5z" />
<glyph unicode="&#x416;" horiz-adv-x="1710" d="M-92 96q0 174 214 419t464 345q-162 98 -296 305t-134 359q0 43 22.5 67.5t67.5 24.5q33 0 60.5 -28.5t60.5 -135.5q39 -139 138 -286.5t234 -258.5l-16 609q-2 76 19.5 114.5t68.5 40.5q37 0 58.5 -18.5t25.5 -61.5l33 -676q111 135 207 261.5t241 332.5l99 140 q35 49 79.5 38.5t44.5 -47.5q0 -53 -142 -262t-372 -497q221 -92 421 -248t352 -369l61 -88q43 -63 24.5 -113.5t-65.5 -50.5q-16 0 -33.5 9.5t-142.5 158.5l-135 158q-137 158 -295 261t-344 161q10 -168 15 -214t11 -87q31 -244 32 -255t1 -24q-2 -90 -35.5 -134 t-122.5 -44q-16 0 -47.5 16.5t-46.5 747.5q-201 -70 -354.5 -218.5t-243.5 -338.5l-43 -90q-47 -98 -66.5 -113.5t-43.5 -15.5q-35 0 -55.5 28.5t-20.5 77.5z" />
<glyph unicode="&#xc7;" horiz-adv-x="1040" d="M-39 1423q0 20 12.5 38t46.5 42l148 92q182 113 329.5 175.5t243.5 62.5q63 -2 95 -38t32 -101q0 -104 -76.5 -226t-347.5 -413q80 47 206 89t196 42q88 0 145.5 -58.5t57.5 -146.5q0 -199 -154 -424t-440 -459l-156 -127q-117 -94 -200 -63t-79 100q0 20 13.5 32.5 t58.5 20.5q190 29 488.5 342.5t300.5 487.5q0 66 -46.5 100.5t-132.5 34.5q-74 0 -168 -43t-182 -121l-51 -45q-27 -25 -49.5 -36t-38.5 -9q-39 0 -53.5 42t16.5 75l82 86q227 240 344 388t119 214q-2 53 -26.5 81t-59.5 28q-43 0 -206 -80t-312 -166l-74 -43 q-45 -29 -63.5 -20t-18.5 46z" />
<glyph unicode="&#x417;" horiz-adv-x="1040" d="M-39 1423q0 20 12.5 38t46.5 42l148 92q182 113 329.5 175.5t243.5 62.5q63 -2 95 -38t32 -101q0 -104 -76.5 -226t-347.5 -413q80 47 206 89t196 42q88 0 145.5 -58.5t57.5 -146.5q0 -199 -154 -424t-440 -459l-156 -127q-117 -94 -200 -63t-79 100q0 20 13.5 32.5 t58.5 20.5q190 29 488.5 342.5t300.5 487.5q0 66 -46.5 100.5t-132.5 34.5q-74 0 -168 -43t-182 -121l-51 -45q-27 -25 -49.5 -36t-38.5 -9q-39 0 -53.5 42t16.5 75l82 86q227 240 344 388t119 214q-2 53 -26.5 81t-59.5 28q-43 0 -206 -80t-312 -166l-74 -43 q-45 -29 -63.5 -20t-18.5 46z" />
<glyph unicode="&#xc8;" horiz-adv-x="1425" d="M93.5 1516.5q25.5 72.5 99.5 72.5q61 0 93.5 -31.5t32.5 -95.5q0 -47 -6 -104.5t-6 -114.5v-21q0 -9 31 -431q2 -49 5 -102.5t11 -244.5q72 115 151 246t126 215l100 178q121 215 296 412t255 199q20 0 35.5 -7.5t15.5 -17.5q0 -35 -17.5 -78t-37.5 -61l61 -1266 q8 -205 -7 -246t-52 -41q-45 0 -71.5 34t-34.5 110l-17 129l-4 29q-2 14 -35 1120q-63 -61 -115.5 -129t-216.5 -361l-114 -204l-299 -533l-4 -51l-4 -39q-6 -45 -17.5 -51t-30.5 -4q-70 0 -104.5 30.5t-36.5 94.5l-41 802q-6 82 -16 177.5t-23 166.5q-28 146 -2.5 218.5z " />
<glyph unicode="&#x418;" horiz-adv-x="1425" d="M93.5 1516.5q25.5 72.5 99.5 72.5q61 0 93.5 -31.5t32.5 -95.5q0 -47 -6 -104.5t-6 -114.5v-21q0 -9 31 -431q2 -49 5 -102.5t11 -244.5q72 115 151 246t126 215l100 178q121 215 296 412t255 199q20 0 35.5 -7.5t15.5 -17.5q0 -35 -17.5 -78t-37.5 -61l61 -1266 q8 -205 -7 -246t-52 -41q-45 0 -71.5 34t-34.5 110l-17 129l-4 29q-2 14 -35 1120q-63 -61 -115.5 -129t-216.5 -361l-114 -204l-299 -533l-4 -51l-4 -39q-6 -45 -17.5 -51t-30.5 -4q-70 0 -104.5 30.5t-36.5 94.5l-41 802q-6 82 -16 177.5t-23 166.5q-28 146 -2.5 218.5z " />
<glyph unicode="&#xc9;" horiz-adv-x="1384" d="M94 1317q-25 141 4 214t101 75q80 0 100 -260.5t25 -942.5q29 96 66.5 177.5t221.5 324.5l138 182q317 420 382.5 496t100.5 78q31 0 44 -19.5t7 -85.5q-27 -252 -3 -656t19 -654q-6 -231 -23 -259t-48 -28q-49 0 -74 37t-29 108l-8 127q-2 27 -3 38.5t3 1147.5 q-90 -145 -184 -290.5t-133 -200.5l-152 -215q-176 -248 -247.5 -378t-77.5 -198l-5 -39q-6 -47 -17 -51t-34 -4q-61 0 -98 31.5t-37 97.5l-14 805q-2 76 -9.5 182.5t-15.5 159.5zM471 1868q0 20 21.5 35.5t50.5 15.5t96.5 -24.5t108.5 -22.5q16 -2 31.5 3t131.5 79 q53 33 99.5 53.5t74.5 20.5q14 0 23.5 -5.5t9.5 -9.5q0 -29 -91 -118t-179 -134q-53 -27 -99.5 -39t-86.5 -12q-88 0 -139.5 47.5t-51.5 110.5z" />
<glyph unicode="&#x419;" horiz-adv-x="1384" d="M94 1317q-25 141 4 214t101 75q80 0 100 -260.5t25 -942.5q29 96 66.5 177.5t221.5 324.5l138 182q317 420 382.5 496t100.5 78q31 0 44 -19.5t7 -85.5q-27 -252 -3 -656t19 -654q-6 -231 -23 -259t-48 -28q-49 0 -74 37t-29 108l-8 127q-2 27 -3 38.5t3 1147.5 q-90 -145 -184 -290.5t-133 -200.5l-152 -215q-176 -248 -247.5 -378t-77.5 -198l-5 -39q-6 -47 -17 -51t-34 -4q-61 0 -98 31.5t-37 97.5l-14 805q-2 76 -9.5 182.5t-15.5 159.5zM471 1868q0 20 21.5 35.5t50.5 15.5t96.5 -24.5t108.5 -22.5q16 -2 31.5 3t131.5 79 q53 33 99.5 53.5t74.5 20.5q14 0 23.5 -5.5t9.5 -9.5q0 -29 -91 -118t-179 -134q-53 -27 -99.5 -39t-86.5 -12q-88 0 -139.5 47.5t-51.5 110.5z" />
<glyph unicode="&#xca;" horiz-adv-x="1204" d="M143 1516q-2 88 20.5 120.5t67.5 34.5q43 0 62.5 -20.5t21.5 -59.5l33 -671q74 84 142.5 165.5t318.5 440.5l86 123q29 43 75 40t48 -49q0 -68 -122 -252t-390 -509q311 -127 584.5 -390.5t273.5 -408.5q0 -35 -17.5 -51.5t-48.5 -16.5h-12q-6 0 -160 166l-141 150 q-135 141 -286.5 243.5t-350.5 198.5q10 -168 15.5 -219t11.5 -92q29 -254 28.5 -263.5t2.5 -15.5q0 -106 -40 -142t-116 -36q-59 0 -74.5 90t-25.5 946z" />
<glyph unicode="&#x41a;" horiz-adv-x="1204" d="M143 1516q-2 88 20.5 120.5t67.5 34.5q43 0 62.5 -20.5t21.5 -59.5l33 -671q74 84 142.5 165.5t318.5 440.5l86 123q29 43 75 40t48 -49q0 -68 -122 -252t-390 -509q311 -127 584.5 -390.5t273.5 -408.5q0 -35 -17.5 -51.5t-48.5 -16.5h-12q-6 0 -160 166l-141 150 q-135 141 -286.5 243.5t-350.5 198.5q10 -168 15.5 -219t11.5 -92q29 -254 28.5 -263.5t2.5 -15.5q0 -106 -40 -142t-116 -36q-59 0 -74.5 90t-25.5 946z" />
<glyph unicode="&#xcb;" horiz-adv-x="1148" d="M-35 145q0 41 65.5 274.5t123.5 409.5l188 592q96 305 130 343t75 38q57 -2 114.5 -101t176.5 -429l209 -584q145 -410 162.5 -465t17.5 -84q0 -49 -26.5 -75.5t-67.5 -24.5q-39 0 -66 21.5t-63 142.5l-60 186q-57 174 -161.5 476t-139.5 390q-27 59 -66.5 143.5 t-72.5 151.5q-45 -109 -81 -214t-69 -236q-39 -143 -95 -382t-75 -339l-37 -197q-18 -98 -44.5 -123.5t-73.5 -25.5q-29 0 -46.5 28.5t-17.5 83.5z" />
<glyph unicode="&#x41b;" horiz-adv-x="1148" d="M-35 145q0 41 65.5 274.5t123.5 409.5l188 592q96 305 130 343t75 38q57 -2 114.5 -101t176.5 -429l209 -584q145 -410 162.5 -465t17.5 -84q0 -49 -26.5 -75.5t-67.5 -24.5q-39 0 -66 21.5t-63 142.5l-60 186q-57 174 -161.5 476t-139.5 390q-27 59 -66.5 143.5 t-72.5 151.5q-45 -109 -81 -214t-69 -236q-39 -143 -95 -382t-75 -339l-37 -197q-18 -98 -44.5 -123.5t-73.5 -25.5q-29 0 -46.5 28.5t-17.5 83.5z" />
<glyph unicode="&#xcc;" horiz-adv-x="1685" d="M123 186q0 88 15.5 346.5t19.5 444.5l6 485q0 125 37 182.5t104 57.5q23 0 36 -5t32 -38l22 -43l520 -678q471 662 464 642.5t-5 -13.5l23 73q27 86 67.5 137.5t81.5 51.5q29 0 53.5 -33t24.5 -84q0 -29 -42 -346t-42 -561q0 -215 24.5 -394.5t24.5 -191.5 q-2 -63 -31.5 -103t-80.5 -40q-63 0 -92 88t-29 297q0 119 23.5 416t6.5 542q-166 -119 -306 -408.5t-216 -289.5q-31 0 -191.5 241.5t-330.5 397.5q-31 -297 -36 -464t-5 -486q0 -100 11.5 -138.5t11.5 -138.5q0 -41 -36 -72.5t-71 -29.5q-45 -2 -69.5 36.5t-24.5 118.5z " />
<glyph unicode="&#x41c;" horiz-adv-x="1685" d="M123 186q0 88 15.5 346.5t19.5 444.5l6 485q0 125 37 182.5t104 57.5q23 0 36 -5t32 -38l22 -43l520 -678q471 662 464 642.5t-5 -13.5l23 73q27 86 67.5 137.5t81.5 51.5q29 0 53.5 -33t24.5 -84q0 -29 -42 -346t-42 -561q0 -215 24.5 -394.5t24.5 -191.5 q-2 -63 -31.5 -103t-80.5 -40q-63 0 -92 88t-29 297q0 119 23.5 416t6.5 542q-166 -119 -306 -408.5t-216 -289.5q-31 0 -191.5 241.5t-330.5 397.5q-31 -297 -36 -464t-5 -486q0 -100 11.5 -138.5t11.5 -138.5q0 -41 -36 -72.5t-71 -29.5q-45 -2 -69.5 36.5t-24.5 118.5z " />
<glyph unicode="&#xcd;" horiz-adv-x="1294" d="M133 872q0 518 35 622.5t108 104.5q31 0 48.5 -28.5t17.5 -87.5q-2 -35 -10 -115t-10 -125q-6 -82 -9.5 -195.5t-1.5 -216.5l264 117q252 111 297.5 137.5t92.5 61.5q-4 301 21.5 450.5t98.5 149.5q43 -2 61.5 -19.5t18.5 -62.5q0 -4 0 -3t-20 -140q-6 -31 -8 -83.5 t-4 -72.5l-15 -139q39 20 73 12t34 -29q0 -16 -25.5 -38.5t-54.5 -28.5q14 -412 28.5 -632t14.5 -259q-2 -86 -28.5 -131t-80.5 -45q-57 0 -83.5 50t-26.5 148l-4 443q-4 258 -5.5 268t-1.5 23q-242 -72 -438 -191t-194 -215q0 -33 20.5 -149.5t20.5 -302.5q0 -72 -30 -99.5 t-85 -25.5q-47 0 -63.5 24.5t-16.5 87.5q0 14 2 40t2 40q0 117 -21.5 358.5t-21.5 296.5z" />
<glyph unicode="&#x41d;" horiz-adv-x="1294" d="M133 872q0 518 35 622.5t108 104.5q31 0 48.5 -28.5t17.5 -87.5q-2 -35 -10 -115t-10 -125q-6 -82 -9.5 -195.5t-1.5 -216.5l264 117q252 111 297.5 137.5t92.5 61.5q-4 301 21.5 450.5t98.5 149.5q43 -2 61.5 -19.5t18.5 -62.5q0 -4 0 -3t-20 -140q-6 -31 -8 -83.5 t-4 -72.5l-15 -139q39 20 73 12t34 -29q0 -16 -25.5 -38.5t-54.5 -28.5q14 -412 28.5 -632t14.5 -259q-2 -86 -28.5 -131t-80.5 -45q-57 0 -83.5 50t-26.5 148l-4 443q-4 258 -5.5 268t-1.5 23q-242 -72 -438 -191t-194 -215q0 -33 20.5 -149.5t20.5 -302.5q0 -72 -30 -99.5 t-85 -25.5q-47 0 -63.5 24.5t-16.5 87.5q0 14 2 40t2 40q0 117 -21.5 358.5t-21.5 296.5z" />
<glyph unicode="&#xce;" horiz-adv-x="1384" d="M72 770q0 252 155.5 586t294.5 334q16 0 29.5 -5.5t26.5 -13.5l12 -10q37 -33 113.5 -8.5t121.5 24.5q203 -2 345.5 -207.5t142.5 -478.5q0 -424 -231.5 -687t-499.5 -263q-227 -2 -368.5 201.5t-141.5 527.5zM254 838q-2 -276 108.5 -446.5t280.5 -170.5q219 -2 380 206 t161 499q-2 291 -140.5 476t-310.5 185q-33 0 -65.5 -13t-46.5 -32l-17 -22q-18 -6 -39.5 -3t-64.5 15q-123 -158 -185.5 -349t-60.5 -345z" />
<glyph unicode="&#x41e;" horiz-adv-x="1384" d="M72 770q0 252 155.5 586t294.5 334q16 0 29.5 -5.5t26.5 -13.5l12 -10q37 -33 113.5 -8.5t121.5 24.5q203 -2 345.5 -207.5t142.5 -478.5q0 -424 -231.5 -687t-499.5 -263q-227 -2 -368.5 201.5t-141.5 527.5zM254 838q-2 -276 108.5 -446.5t280.5 -170.5q219 -2 380 206 t161 499q-2 291 -140.5 476t-310.5 185q-33 0 -65.5 -13t-46.5 -32l-17 -22q-18 -6 -39.5 -3t-64.5 15q-123 -158 -185.5 -349t-60.5 -345z" />
<glyph unicode="&#xcf;" horiz-adv-x="1339" d="M-307 1210q0 27 14 45.5t70 42.5l157 68q481 207 877.5 318.5t556.5 111.5q6 0 10 -2t6 -4q4 -4 2 -8t-12 -6l-94 -27q-84 -25 -107.5 -42t-23.5 -50q0 -8 14.5 -14.5t20.5 -8.5q12 -12 18 -29.5t10 -39.5v-29v-51q-2 -27 -2 -58v-102q0 -57 2 -171t2 -169 q0 -45 -3 -154.5t-1 -168.5q0 -94 8.5 -172t45.5 -242l8 -37q18 -86 -8.5 -128t-85.5 -40q-94 0 -125 249t-31 1094v101q0 55 6 99t23 89q-283 -98 -413 -149t-271 -115q14 -182 26.5 -392t12.5 -347q0 -406 -30 -541t-91 -135q-29 0 -49.5 35t-18.5 700v621 q-57 -20 -106.5 -41t-178.5 -86l-129 -66q-45 -25 -77.5 -6.5t-32.5 57.5z" />
<glyph unicode="&#x41f;" horiz-adv-x="1339" d="M-307 1210q0 27 14 45.5t70 42.5l157 68q481 207 877.5 318.5t556.5 111.5q6 0 10 -2t6 -4q4 -4 2 -8t-12 -6l-94 -27q-84 -25 -107.5 -42t-23.5 -50q0 -8 14.5 -14.5t20.5 -8.5q12 -12 18 -29.5t10 -39.5v-29v-51q-2 -27 -2 -58v-102q0 -57 2 -171t2 -169 q0 -45 -3 -154.5t-1 -168.5q0 -94 8.5 -172t45.5 -242l8 -37q18 -86 -8.5 -128t-85.5 -40q-94 0 -125 249t-31 1094v101q0 55 6 99t23 89q-283 -98 -413 -149t-271 -115q14 -182 26.5 -392t12.5 -347q0 -406 -30 -541t-91 -135q-29 0 -49.5 35t-18.5 700v621 q-57 -20 -106.5 -41t-178.5 -86l-129 -66q-45 -25 -77.5 -6.5t-32.5 57.5z" />
<glyph unicode="&#xd0;" horiz-adv-x="1042" d="M31 1386q0 18 4 29.5t31 32.5l241 184q164 125 388.5 212t398.5 87q88 0 137 -44t49 -128q0 -195 -309 -496.5t-615 -469.5q2 -168 0 -281t0 -188q0 -55 2 -89t7 -67q12 -80 13 -81t1 -7q0 -33 -20.5 -45t-57.5 -12q-68 0 -92.5 33.5t-22.5 105.5q0 141 13.5 186 t13.5 109v73q0 49 -1 72t-5 55q-4 35 -5 55.5t-1 51.5q-18 10 -29.5 28.5t-11.5 34.5t12 31.5t35 24.5l6 571q-41 -41 -85 -67.5t-73 -24.5q-12 0 -18 5t-6 19zM361.5 1267.5q-5.5 -137.5 3.5 -306.5q279 162 521 398t242 376q0 41 -27.5 68.5t-78.5 27.5q-125 0 -289 -75 t-348 -230q-18 -121 -23.5 -258.5z" />
<glyph unicode="&#x420;" horiz-adv-x="1042" d="M31 1386q0 18 4 29.5t31 32.5l241 184q164 125 388.5 212t398.5 87q88 0 137 -44t49 -128q0 -195 -309 -496.5t-615 -469.5q2 -168 0 -281t0 -188q0 -55 2 -89t7 -67q12 -80 13 -81t1 -7q0 -33 -20.5 -45t-57.5 -12q-68 0 -92.5 33.5t-22.5 105.5q0 141 13.5 186 t13.5 109v73q0 49 -1 72t-5 55q-4 35 -5 55.5t-1 51.5q-18 10 -29.5 28.5t-11.5 34.5t12 31.5t35 24.5l6 571q-41 -41 -85 -67.5t-73 -24.5q-12 0 -18 5t-6 19zM361.5 1267.5q-5.5 -137.5 3.5 -306.5q279 162 521 398t242 376q0 41 -27.5 68.5t-78.5 27.5q-125 0 -289 -75 t-348 -230q-18 -121 -23.5 -258.5z" />
<glyph unicode="&#xd1;" horiz-adv-x="1273" d="M84 758q0 401 247 689t556 288q106 0 199.5 -35t93.5 -82q0 -27 -9.5 -37t-23.5 -8q-61 0 -89 13t-136 13q-266 -2 -449.5 -210.5t-183.5 -532.5q0 -297 136 -457.5t357 -160.5q207 -2 372 158.5t151 156.5h1h3q0 -2 3 -4l3 -2q0 -4 -1 -6t-1 -4q-137 -289 -295 -389.5 t-350 -98.5q-260 0 -422 186.5t-162 522.5z" />
<glyph unicode="&#x421;" horiz-adv-x="1273" d="M84 758q0 401 247 689t556 288q106 0 199.5 -35t93.5 -82q0 -27 -9.5 -37t-23.5 -8q-61 0 -89 13t-136 13q-266 -2 -449.5 -210.5t-183.5 -532.5q0 -297 136 -457.5t357 -160.5q207 -2 372 158.5t151 156.5h1h3q0 -2 3 -4l3 -2q0 -4 -1 -6t-1 -4q-137 -289 -295 -389.5 t-350 -98.5q-260 0 -422 186.5t-162 522.5z" />
<glyph unicode="&#xd2;" horiz-adv-x="1073" d="M-225 1268q0 25 15 43t71 43l157 67q551 236 980 372t634 136q4 0 7 -1t6 -3q0 -6 -3.5 -10t-27.5 -8l-76 -17q-104 -23 -401 -133t-510 -203q12 -348 19 -551.5t7 -291.5q0 -461 -28.5 -560.5t-81.5 -99.5q-29 -2 -50.5 39t-19.5 782v621q-35 -12 -58.5 -22.5 t-398.5 -190.5l-131 -63q-51 -27 -80.5 -7.5t-29.5 58.5z" />
<glyph unicode="&#x422;" horiz-adv-x="1073" d="M-225 1268q0 25 15 43t71 43l157 67q551 236 980 372t634 136q4 0 7 -1t6 -3q0 -6 -3.5 -10t-27.5 -8l-76 -17q-104 -23 -401 -133t-510 -203q12 -348 19 -551.5t7 -291.5q0 -461 -28.5 -560.5t-81.5 -99.5q-29 -2 -50.5 39t-19.5 782v621q-35 -12 -58.5 -22.5 t-398.5 -190.5l-131 -63q-51 -27 -80.5 -7.5t-29.5 58.5z" />
<glyph unicode="&#xd3;" horiz-adv-x="901" d="M29 1493q0 37 26.5 66.5t71.5 29.5q23 0 40 -9t52 -64l100 -166q168 -279 168 -280t78 -85q33 102 46.5 148.5t25.5 85.5q82 293 79 284l62 189q16 55 30.5 66t37.5 11q18 0 29.5 -6t13.5 -14v-2v-6q-2 -6 1 -15.5t3 -13.5q-2 -10 -4 -24.5t-146 -585.5l-69 -277 q12 -14 24.5 -37.5t14.5 -35.5q0 -14 -15.5 -28.5t-33.5 -21.5q-74 -119 -130.5 -257t-121.5 -353l-93 -295q-23 -70 -42 -91t-48 -34q-20 -8 -24 2.5t18 77.5l115 359q20 70 61 231.5t97 407.5l-127 184q-156 221 -249 373.5t-91 185.5z" />
<glyph unicode="&#x423;" horiz-adv-x="901" d="M29 1493q0 37 26.5 66.5t71.5 29.5q23 0 40 -9t52 -64l100 -166q168 -279 168 -280t78 -85q33 102 46.5 148.5t25.5 85.5q82 293 79 284l62 189q16 55 30.5 66t37.5 11q18 0 29.5 -6t13.5 -14v-2v-6q-2 -6 1 -15.5t3 -13.5q-2 -10 -4 -24.5t-146 -585.5l-69 -277 q12 -14 24.5 -37.5t14.5 -35.5q0 -14 -15.5 -28.5t-33.5 -21.5q-74 -119 -130.5 -257t-121.5 -353l-93 -295q-23 -70 -42 -91t-48 -34q-20 -8 -24 2.5t18 77.5l115 359q20 70 61 231.5t97 407.5l-127 184q-156 221 -249 373.5t-91 185.5z" />
<glyph unicode="&#xd4;" horiz-adv-x="1611" d="M-43 602q0 242 228.5 460t566.5 333l-4 135l-9 55q-14 86 5.5 103.5t64.5 19.5q51 0 78.5 -19.5t27.5 -56.5q0 -12 -1 -24.5t-3 -26.5t-4 -29.5t-2 -109.5q123 53 257 83.5t251 30.5q137 0 205 -66.5t70 -195.5q0 -252 -241 -499.5t-554 -374.5q-2 -76 -1 -148.5 t7 -105.5l8 -53q12 -90 -7 -106.5t-62 -16.5q-63 0 -90 34.5t-25 106.5q0 20 8 88t12 168q-147 -59 -262.5 -87t-214.5 -28q-147 0 -228 79t-81 251zM111 614q0 -90 57 -145t156 -55q82 0 184 25.5t233 80.5q0 102 2 210t7 218l4 316q-324 -135 -483.5 -310.5t-159.5 -339.5 zM893 571q274 125 458.5 320.5t184.5 376.5q-2 78 -48 117.5t-130 39.5t-177.5 -24.5t-277.5 -100.5q0 -184 -2 -366.5t-8 -362.5z" />
<glyph unicode="&#x424;" horiz-adv-x="1611" d="M-43 602q0 242 228.5 460t566.5 333l-4 135l-9 55q-14 86 5.5 103.5t64.5 19.5q51 0 78.5 -19.5t27.5 -56.5q0 -12 -1 -24.5t-3 -26.5t-4 -29.5t-2 -109.5q123 53 257 83.5t251 30.5q137 0 205 -66.5t70 -195.5q0 -252 -241 -499.5t-554 -374.5q-2 -76 -1 -148.5 t7 -105.5l8 -53q12 -90 -7 -106.5t-62 -16.5q-63 0 -90 34.5t-25 106.5q0 20 8 88t12 168q-147 -59 -262.5 -87t-214.5 -28q-147 0 -228 79t-81 251zM111 614q0 -90 57 -145t156 -55q82 0 184 25.5t233 80.5q0 102 2 210t7 218l4 316q-324 -135 -483.5 -310.5t-159.5 -339.5 zM893 571q274 125 458.5 320.5t184.5 376.5q-2 78 -48 117.5t-130 39.5t-177.5 -24.5t-277.5 -100.5q0 -184 -2 -366.5t-8 -362.5z" />
<glyph unicode="&#xd5;" horiz-adv-x="876" d="M-23 -154q0 33 182.5 492t225.5 545l-141 305q-158 338 -183.5 400.5t-25.5 88.5q0 33 21.5 54.5t62.5 21.5q31 0 49 -11t43 -73l41 -106q47 -129 97 -242t112 -229q100 156 196.5 327.5t104.5 184.5l35 53q4 6 15 9t46 5q10 0 11 -11t-5 -24l-129 -284 q-115 -252 -144.5 -309.5t-62.5 -120.5q336 -829 337 -832.5t1 -7.5q0 -33 -18.5 -52.5t-40.5 -17.5q-16 0 -31.5 12.5t-204.5 415.5l-133 283l-96 -201q-317 -657 -338.5 -665.5t-23.5 -10.5h-3z" />
<glyph unicode="&#x425;" horiz-adv-x="876" d="M-23 -154q0 33 182.5 492t225.5 545l-141 305q-158 338 -183.5 400.5t-25.5 88.5q0 33 21.5 54.5t62.5 21.5q31 0 49 -11t43 -73l41 -106q47 -129 97 -242t112 -229q100 156 196.5 327.5t104.5 184.5l35 53q4 6 15 9t46 5q10 0 11 -11t-5 -24l-129 -284 q-115 -252 -144.5 -309.5t-62.5 -120.5q336 -829 337 -832.5t1 -7.5q0 -33 -18.5 -52.5t-40.5 -17.5q-16 0 -31.5 12.5t-204.5 415.5l-133 283l-96 -201q-317 -657 -338.5 -665.5t-23.5 -10.5h-3z" />
<glyph unicode="&#xd6;" horiz-adv-x="1421" d="M76 1409q-18 74 5 119t95 45q66 0 93.5 -59.5t27.5 -231.5q0 -61 -1 -191t-1 -196q0 -78 2 -268.5t2 -300.5l-4 -228q135 27 299 79t348 128q-10 240 -13 406t-3 305q0 348 31.5 511t99.5 163q29 0 43 -22.5t14 -100.5q-2 -508 -2 -547v-70l-12 -618q25 6 47 14t176 80 l66 31q63 29 99 -9t36 -126q0 -47 -1 -47.5t-81 -229.5l-66 -184q-10 -27 -29.5 -47.5t-35.5 -20.5q-18 0 -28.5 17.5t-10.5 50.5q0 29 5 63.5t103 386.5q-336 -141 -657.5 -239.5t-484.5 -98.5q-74 2 -101.5 33t-27.5 111q-2 29 -2.5 58.5t2.5 57.5q0 29 1 82.5t3 77.5 q0 53 1 115.5t1 222.5q0 465 -6.5 507t-24.5 134z" />
<glyph unicode="&#x426;" horiz-adv-x="1421" d="M76 1409q-18 74 5 119t95 45q66 0 93.5 -59.5t27.5 -231.5q0 -61 -1 -191t-1 -196q0 -78 2 -268.5t2 -300.5l-4 -228q135 27 299 79t348 128q-10 240 -13 406t-3 305q0 348 31.5 511t99.5 163q29 0 43 -22.5t14 -100.5q-2 -508 -2 -547v-70l-12 -618q25 6 47 14t176 80 l66 31q63 29 99 -9t36 -126q0 -47 -1 -47.5t-81 -229.5l-66 -184q-10 -27 -29.5 -47.5t-35.5 -20.5q-18 0 -28.5 17.5t-10.5 50.5q0 29 5 63.5t103 386.5q-336 -141 -657.5 -239.5t-484.5 -98.5q-74 2 -101.5 33t-27.5 111q-2 29 -2.5 58.5t2.5 57.5q0 29 1 82.5t3 77.5 q0 53 1 115.5t1 222.5q0 465 -6.5 507t-24.5 134z" />
<glyph unicode="&#xd7;" horiz-adv-x="1218" d="M45 1280q0 127 32 185.5t93 60.5q33 0 49.5 -24.5t7.5 -229.5l-6 -135q-8 -152 51.5 -232t182.5 -80q86 0 198.5 51.5t229.5 137.5q8 383 31.5 525t93.5 142q43 0 61 -19.5t21 -62.5v-4l-23 -139q-6 -31 -8 -83t-4 -73l-15 -139q47 25 78 12.5t31 -36.5 q0 -33 -27.5 -89.5t-50.5 -78.5q2 -152 7 -262.5t18 -253.5q4 -68 9 -150t5 -117q0 -86 -28.5 -132t-80.5 -44q-57 0 -83.5 50.5t-26.5 148.5l-6 635q-117 -78 -243 -125t-234 -47q-199 -2 -281 125t-82 483z" />
<glyph unicode="&#x427;" horiz-adv-x="1218" d="M45 1280q0 127 32 185.5t93 60.5q33 0 49.5 -24.5t7.5 -229.5l-6 -135q-8 -152 51.5 -232t182.5 -80q86 0 198.5 51.5t229.5 137.5q8 383 31.5 525t93.5 142q43 0 61 -19.5t21 -62.5v-4l-23 -139q-6 -31 -8 -83t-4 -73l-15 -139q47 25 78 12.5t31 -36.5 q0 -33 -27.5 -89.5t-50.5 -78.5q2 -152 7 -262.5t18 -253.5q4 -68 9 -150t5 -117q0 -86 -28.5 -132t-80.5 -44q-57 0 -83.5 50.5t-26.5 148.5l-6 635q-117 -78 -243 -125t-234 -47q-199 -2 -281 125t-82 483z" />
<glyph unicode="&#xd8;" horiz-adv-x="1873" d="M101.5 1535q17.5 91 76.5 93q63 -2 99 -51t45 -156l22 -381q10 -199 12 -416.5t-4 -435.5q162 35 303.5 71t266.5 77q-14 301 -25.5 497.5t-22.5 282.5l-20 164q-12 88 -27.5 154.5t-13.5 87.5q-2 43 22.5 76.5t71.5 33.5q47 -2 69.5 -20.5t39.5 -81.5l24 -109 q16 -80 25.5 -433t5.5 -613q172 51 282.5 91t227.5 73q-4 106 -2 181t2 152q-6 322 -33.5 498t-27.5 199q-2 49 26.5 75.5t69.5 26.5q63 -2 102 -91t49 -699l7 -430q0 -137 -21.5 -189.5t-87.5 -52.5q-43 0 -64.5 39t-13.5 98q-129 -25 -320.5 -79t-508.5 -128 q-451 -106 -447 -106t-8 2q-96 0 -117.5 40t-15.5 210l4 133q2 80 -11 329.5t-24 329.5l-24 168q-31 199 -13.5 290z" />
<glyph unicode="&#x428;" horiz-adv-x="1873" d="M101.5 1535q17.5 91 76.5 93q63 -2 99 -51t45 -156l22 -381q10 -199 12 -416.5t-4 -435.5q162 35 303.5 71t266.5 77q-14 301 -25.5 497.5t-22.5 282.5l-20 164q-12 88 -27.5 154.5t-13.5 87.5q-2 43 22.5 76.5t71.5 33.5q47 -2 69.5 -20.5t39.5 -81.5l24 -109 q16 -80 25.5 -433t5.5 -613q172 51 282.5 91t227.5 73q-4 106 -2 181t2 152q-6 322 -33.5 498t-27.5 199q-2 49 26.5 75.5t69.5 26.5q63 -2 102 -91t49 -699l7 -430q0 -137 -21.5 -189.5t-87.5 -52.5q-43 0 -64.5 39t-13.5 98q-129 -25 -320.5 -79t-508.5 -128 q-451 -106 -447 -106t-8 2q-96 0 -117.5 40t-15.5 210l4 133q2 80 -11 329.5t-24 329.5l-24 168q-31 199 -13.5 290z" />
<glyph unicode="&#xd9;" horiz-adv-x="2095" d="M101.5 1533q13.5 95 78.5 95q59 -2 98 -51t46 -156l20 -381q12 -264 14 -460.5t-4 -391.5q164 35 303.5 71t264.5 77q-12 299 -23.5 496.5t-21.5 283.5l-23 164q-16 109 -19.5 123t-5.5 31q-12 47 -14 61t-2 27q0 41 24.5 75.5t71.5 34.5t69.5 -19.5t39.5 -82.5l24 -109 q16 -80 24.5 -433t4.5 -613q154 45 274.5 88t237.5 76q-8 104 -4 207.5t4 125.5q-2 299 -32.5 479.5t-28.5 217.5q0 49 26.5 75.5t67.5 26.5q76 0 112.5 -118.5t40.5 -671.5l3 -303l200 63q76 23 97.5 -6t23.5 -100q0 -43 -31.5 -135.5t-70.5 -172.5l-109 -223 q-14 -27 -37.5 -59.5t-36.5 -32.5q-14 0 -25 24.5t-11 55.5q0 74 61 233.5t125 276.5q-229 -96 -525 -186.5t-673 -176.5q-451 -106 -448 -105t-9 1q-100 0 -118.5 44t-12.5 206l4 133q2 80 -11 329.5t-24 329.5l-24 168q-29 193 -15.5 288z" />
<glyph unicode="&#x429;" horiz-adv-x="2095" d="M101.5 1533q13.5 95 78.5 95q59 -2 98 -51t46 -156l20 -381q12 -264 14 -460.5t-4 -391.5q164 35 303.5 71t264.5 77q-12 299 -23.5 496.5t-21.5 283.5l-23 164q-16 109 -19.5 123t-5.5 31q-12 47 -14 61t-2 27q0 41 24.5 75.5t71.5 34.5t69.5 -19.5t39.5 -82.5l24 -109 q16 -80 24.5 -433t4.5 -613q154 45 274.5 88t237.5 76q-8 104 -4 207.5t4 125.5q-2 299 -32.5 479.5t-28.5 217.5q0 49 26.5 75.5t67.5 26.5q76 0 112.5 -118.5t40.5 -671.5l3 -303l200 63q76 23 97.5 -6t23.5 -100q0 -43 -31.5 -135.5t-70.5 -172.5l-109 -223 q-14 -27 -37.5 -59.5t-36.5 -32.5q-14 0 -25 24.5t-11 55.5q0 74 61 233.5t125 276.5q-229 -96 -525 -186.5t-673 -176.5q-451 -106 -448 -105t-9 1q-100 0 -118.5 44t-12.5 206l4 133q2 80 -11 329.5t-24 329.5l-24 168q-29 193 -15.5 288z" />
<glyph unicode="&#xda;" horiz-adv-x="1343" d="M-203 1438q0 25 17.5 44t68.5 40l465 172q4 16 17.5 24t37.5 8q59 0 75 -124.5t14 -591.5q123 88 291.5 146t293.5 58q115 0 175.5 -70.5t60.5 -189.5q0 -170 -170 -399t-398 -383l-112 -76q-86 -57 -121 -73.5t-57 -16.5q-53 0 -80 35t-27 141l-14 1297l-4 82 q-43 -12 -83 -26.5t-206 -90.5l-133 -62q-45 -23 -78 -4t-33 60zM483 158q377 270 524.5 446t147.5 322q0 70 -36 103.5t-109 33.5q-113 0 -257.5 -62.5t-265.5 -154.5z" />
<glyph unicode="&#x42a;" horiz-adv-x="1343" d="M-203 1438q0 25 17.5 44t68.5 40l465 172q4 16 17.5 24t37.5 8q59 0 75 -124.5t14 -591.5q123 88 291.5 146t293.5 58q115 0 175.5 -70.5t60.5 -189.5q0 -170 -170 -399t-398 -383l-112 -76q-86 -57 -121 -73.5t-57 -16.5q-53 0 -80 35t-27 141l-14 1297l-4 82 q-43 -12 -83 -26.5t-206 -90.5l-133 -62q-45 -23 -78 -4t-33 60zM483 158q377 270 524.5 446t147.5 322q0 70 -36 103.5t-109 33.5q-113 0 -257.5 -62.5t-265.5 -154.5z" />
<glyph unicode="&#xdb;" horiz-adv-x="1636" d="M100 1458q-12 176 3.5 214t54.5 38q57 0 81.5 -127t43.5 -575q143 84 297.5 133t279.5 49q113 0 179.5 -80t66.5 -209q0 -172 -136 -353t-388 -372l-109 -82q-117 -88 -135.5 -93t-38.5 -5q-53 0 -79.5 29.5t-33.5 140.5zM291 838l26 -684q385 262 508 412.5t125 295.5 q0 90 -39 132t-110 42q-100 -2 -250.5 -62t-259.5 -136zM1311 1481q-6 84 15.5 129t76.5 45q51 0 78.5 -32t27.5 -140q-2 -49 -2 -87t2 -71q4 -430 23.5 -702.5t50.5 -374.5l10 -37q20 -80 -8.5 -125t-83.5 -45q-47 0 -70.5 23.5t-37.5 117.5l-25 144q-23 127 -26 431 t-19 552z" />
<glyph unicode="&#x42b;" horiz-adv-x="1636" d="M100 1458q-12 176 3.5 214t54.5 38q57 0 81.5 -127t43.5 -575q143 84 297.5 133t279.5 49q113 0 179.5 -80t66.5 -209q0 -172 -136 -353t-388 -372l-109 -82q-117 -88 -135.5 -93t-38.5 -5q-53 0 -79.5 29.5t-33.5 140.5zM291 838l26 -684q385 262 508 412.5t125 295.5 q0 90 -39 132t-110 42q-100 -2 -250.5 -62t-259.5 -136zM1311 1481q-6 84 15.5 129t76.5 45q51 0 78.5 -32t27.5 -140q-2 -49 -2 -87t2 -71q4 -430 23.5 -702.5t50.5 -374.5l10 -37q20 -80 -8.5 -125t-83.5 -45q-47 0 -70.5 23.5t-37.5 117.5l-25 144q-23 127 -26 431 t-19 552z" />
<glyph unicode="&#xdc;" horiz-adv-x="1126" d="M98 1473q-10 178 6.5 213.5t55.5 35.5q53 -2 78.5 -116.5t35.5 -595.5q123 94 289 157.5t291 65.5q117 0 179.5 -69.5t62.5 -180.5q0 -178 -157 -407.5t-384 -395.5l-109 -80q-104 -78 -129.5 -87t-46.5 -9q-53 0 -79.5 31t-30.5 143zM276 844l19 -686 q356 268 500.5 455.5t144.5 332.5q0 66 -37 99.5t-115 33.5q-115 0 -244 -59t-268 -176z" />
<glyph unicode="&#x42c;" horiz-adv-x="1126" d="M98 1473q-10 178 6.5 213.5t55.5 35.5q53 -2 78.5 -116.5t35.5 -595.5q123 94 289 157.5t291 65.5q117 0 179.5 -69.5t62.5 -180.5q0 -178 -157 -407.5t-384 -395.5l-109 -80q-104 -78 -129.5 -87t-46.5 -9q-53 0 -79.5 31t-30.5 143zM276 844l19 -686 q356 268 500.5 455.5t144.5 332.5q0 66 -37 99.5t-115 33.5q-115 0 -244 -59t-268 -176z" />
<glyph unicode="&#xdd;" horiz-adv-x="1290" d="M47 231q-2 25 10.5 36.5t46.5 11.5q31 0 99.5 -25t134.5 -25q272 0 467.5 196t193.5 509q-190 -45 -365 -71.5t-263 -53.5l-107 -33q-70 -23 -105.5 -12.5t-33.5 39.5q-2 39 56.5 69.5t201.5 55.5q397 63 464.5 83.5t141.5 47.5q-43 166 -186.5 280.5t-308.5 114.5 q-66 0 -137.5 -22.5t-159.5 -67.5q-98 -51 -106.5 -53t-14.5 -2q-14 0 -21.5 8t-7.5 24q0 70 192.5 166.5t350.5 96.5q211 0 381 -125t225 -357q57 14 95 8t38 -32q0 -31 -39 -62.5t-82 -38.5q8 -389 -251 -667.5t-605 -276.5q-152 0 -229.5 48t-75.5 130z" />
<glyph unicode="&#x42d;" horiz-adv-x="1290" d="M47 231q-2 25 10.5 36.5t46.5 11.5q31 0 99.5 -25t134.5 -25q272 0 467.5 196t193.5 509q-190 -45 -365 -71.5t-263 -53.5l-107 -33q-70 -23 -105.5 -12.5t-33.5 39.5q-2 39 56.5 69.5t201.5 55.5q397 63 464.5 83.5t141.5 47.5q-43 166 -186.5 280.5t-308.5 114.5 q-66 0 -137.5 -22.5t-159.5 -67.5q-98 -51 -106.5 -53t-14.5 -2q-14 0 -21.5 8t-7.5 24q0 70 192.5 166.5t350.5 96.5q211 0 381 -125t225 -357q57 14 95 8t38 -32q0 -31 -39 -62.5t-82 -38.5q8 -389 -251 -667.5t-605 -276.5q-152 0 -229.5 48t-75.5 130z" />
<glyph unicode="&#xde;" horiz-adv-x="2007" d="M133 1096q0 362 33 441t102 79q31 0 47.5 -30t18.5 -89q0 -29 -10.5 -88t-10.5 -149q0 -84 2 -216.5t9 -209.5l442 190q39 209 158.5 418t187.5 209q0 -2 47 -33l58 -41q45 27 107 46t116 19q217 0 356 -183t141 -521q0 -389 -170 -649t-438 -258q-299 -2 -460.5 237.5 t-118.5 638.5q-109 -51 -210.5 -109.5t-195.5 -123.5q0 -59 2 -112.5t19 -194.5q6 -76 9 -127.5t5 -89.5q0 -63 -27.5 -94t-87.5 -31q-49 0 -65.5 25.5t-16.5 86.5q0 14 2 40t4 40q0 45 -27.5 236.5t-27.5 642.5zM928 852q0 -240 67.5 -401.5t196.5 -219.5 q31 -16 92.5 -29.5t99.5 -11.5q168 0 279 216.5t111 590.5q-2 254 -113 403.5t-291 149.5q-205 0 -324.5 -190.5t-117.5 -507.5z" />
<glyph unicode="&#x42e;" horiz-adv-x="2007" d="M133 1096q0 362 33 441t102 79q31 0 47.5 -30t18.5 -89q0 -29 -10.5 -88t-10.5 -149q0 -84 2 -216.5t9 -209.5l442 190q39 209 158.5 418t187.5 209q0 -2 47 -33l58 -41q45 27 107 46t116 19q217 0 356 -183t141 -521q0 -389 -170 -649t-438 -258q-299 -2 -460.5 237.5 t-118.5 638.5q-109 -51 -210.5 -109.5t-195.5 -123.5q0 -59 2 -112.5t19 -194.5q6 -76 9 -127.5t5 -89.5q0 -63 -27.5 -94t-87.5 -31q-49 0 -65.5 25.5t-16.5 86.5q0 14 2 40t4 40q0 45 -27.5 236.5t-27.5 642.5zM928 852q0 -240 67.5 -401.5t196.5 -219.5 q31 -16 92.5 -29.5t99.5 -11.5q168 0 279 216.5t111 590.5q-2 254 -113 403.5t-291 149.5q-205 0 -324.5 -190.5t-117.5 -507.5z" />
<glyph unicode="&#xdf;" horiz-adv-x="1226" d="M-27 23q0 145 257 442t526 465q-94 -23 -181.5 -34t-140.5 -11q-160 0 -246 76.5t-86 207.5q0 262 242 418t694 156q113 -2 167.5 -20.5t54.5 -59.5q0 -33 -48.5 -53.5t-128.5 -18.5l7 -489q37 -12 72.5 -42t35.5 -56q0 -18 -14.5 -32t-87.5 -46q-4 -86 -5 -168t9 -453 l2 -88q2 -137 -19.5 -152.5t-62.5 -15.5q-61 0 -83 9.5t-22 33.5q0 8 -1 8t30 54l12 22q8 16 12.5 29.5t4.5 38.5q0 27 -6 77t-9 107q-2 14 -3 31.5t-5 181.5q-2 23 -3 47.5t-7 196.5q-174 -90 -332.5 -243t-333.5 -409l-114 -167q-86 -123 -95.5 -126t-17.5 -3 q-33 0 -53.5 23.5t-20.5 62.5zM268 1188q0 -90 60.5 -132t189.5 -40q104 0 214 19.5t218 60.5l-6 483q-287 4 -481.5 -109.5t-194.5 -281.5z" />
<glyph unicode="&#x42f;" horiz-adv-x="1226" d="M-27 23q0 145 257 442t526 465q-94 -23 -181.5 -34t-140.5 -11q-160 0 -246 76.5t-86 207.5q0 262 242 418t694 156q113 -2 167.5 -20.5t54.5 -59.5q0 -33 -48.5 -53.5t-128.5 -18.5l7 -489q37 -12 72.5 -42t35.5 -56q0 -18 -14.5 -32t-87.5 -46q-4 -86 -5 -168t9 -453 l2 -88q2 -137 -19.5 -152.5t-62.5 -15.5q-61 0 -83 9.5t-22 33.5q0 8 -1 8t30 54l12 22q8 16 12.5 29.5t4.5 38.5q0 27 -6 77t-9 107q-2 14 -3 31.5t-5 181.5q-2 23 -3 47.5t-7 196.5q-174 -90 -332.5 -243t-333.5 -409l-114 -167q-86 -123 -95.5 -126t-17.5 -3 q-33 0 -53.5 23.5t-20.5 62.5zM268 1188q0 -90 60.5 -132t189.5 -40q104 0 214 19.5t218 60.5l-6 483q-287 4 -481.5 -109.5t-194.5 -281.5z" />
<glyph unicode="&#xe0;" horiz-adv-x="1021" d="M45 250q0 193 220 315.5t464 65.5v182q0 96 -45 140t-137 46q-68 0 -151 -25.5t-165 -70.5q-51 -29 -77.5 -25.5t-24.5 40.5q0 55 167 121.5t308 66.5q129 0 198.5 -76t69.5 -297v-414q18 16 53.5 34t53.5 18q16 -2 30.5 -15.5t16.5 -29.5q0 -29 -38 -55.5t-122 -55.5 v-61q-2 -109 -24.5 -135.5t-73.5 -26.5q-55 0 -70.5 57t19.5 123q-106 -72 -203.5 -101.5t-189.5 -29.5q-113 0 -197 52.5t-82 156.5zM197 293q0 -57 36.5 -99t108.5 -42t181.5 29.5t195.5 80.5v64q0 123 -48 167t-149 46q-115 0 -220 -79t-105 -167z" />
<glyph unicode="&#x430;" horiz-adv-x="1021" d="M45 250q0 193 220 315.5t464 65.5v182q0 96 -45 140t-137 46q-68 0 -151 -25.5t-165 -70.5q-51 -29 -77.5 -25.5t-24.5 40.5q0 55 167 121.5t308 66.5q129 0 198.5 -76t69.5 -297v-414q18 16 53.5 34t53.5 18q16 -2 30.5 -15.5t16.5 -29.5q0 -29 -38 -55.5t-122 -55.5 v-61q-2 -109 -24.5 -135.5t-73.5 -26.5q-55 0 -70.5 57t19.5 123q-106 -72 -203.5 -101.5t-189.5 -29.5q-113 0 -197 52.5t-82 156.5zM197 293q0 -57 36.5 -99t108.5 -42t181.5 29.5t195.5 80.5v64q0 123 -48 167t-149 46q-115 0 -220 -79t-105 -167z" />
<glyph unicode="&#xe1;" horiz-adv-x="980" d="M47 334q0 172 142.5 373.5t396.5 357.5q-246 272 -257.5 295.5t-11.5 46.5q0 57 361.5 266t441.5 209q27 -2 44.5 -16.5t19.5 -32.5q0 -16 -18.5 -34.5t-252.5 -143.5q-342 -182 -387 -221t-45 -70q0 -37 58.5 -110.5t134.5 -137.5q49 31 74.5 44.5t42.5 13.5 q16 0 33.5 -25t17.5 -47q0 -6 -10.5 -14.5t-86.5 -63.5q63 -66 95 -145.5t32 -169.5q0 -82 -30.5 -179.5t-75.5 -179.5q-82 -143 -208 -230t-267 -85q-119 0 -181.5 76t-62.5 223zM213 356q-2 -92 39 -145t115 -51q123 0 253 173t130 396q-2 68 -23.5 126t-71.5 112 q-205 -131 -323.5 -291t-118.5 -320z" />
<glyph unicode="&#x431;" horiz-adv-x="980" d="M47 334q0 172 142.5 373.5t396.5 357.5q-246 272 -257.5 295.5t-11.5 46.5q0 57 361.5 266t441.5 209q27 -2 44.5 -16.5t19.5 -32.5q0 -16 -18.5 -34.5t-252.5 -143.5q-342 -182 -387 -221t-45 -70q0 -37 58.5 -110.5t134.5 -137.5q49 31 74.5 44.5t42.5 13.5 q16 0 33.5 -25t17.5 -47q0 -6 -10.5 -14.5t-86.5 -63.5q63 -66 95 -145.5t32 -169.5q0 -82 -30.5 -179.5t-75.5 -179.5q-82 -143 -208 -230t-267 -85q-119 0 -181.5 76t-62.5 223zM213 356q-2 -92 39 -145t115 -51q123 0 253 173t130 396q-2 68 -23.5 126t-71.5 112 q-205 -131 -323.5 -291t-118.5 -320z" />
<glyph unicode="&#xe2;" horiz-adv-x="978" d="M82 1167q0 270 68.5 372.5t214.5 105.5q145 -2 230 -90.5t85 -225.5q0 -104 -56.5 -220t-158.5 -226q59 39 137 69.5t123 30.5q94 -2 153.5 -72.5t59.5 -189.5q0 -209 -227.5 -461t-378.5 -252q-141 0 -196.5 294t-53.5 865zM233 719q57 172 181.5 314.5t124.5 279.5 q0 96 -37 152.5t-107 56.5q-109 0 -153 -166t-9 -637zM238 676q-4 -190 34.5 -331.5t116.5 -141.5q94 -2 245.5 185t151.5 327q0 63 -33.5 100t-86.5 37q-100 -2 -215 -119.5t-213 -56.5z" />
<glyph unicode="&#x432;" horiz-adv-x="978" d="M82 1167q0 270 68.5 372.5t214.5 105.5q145 -2 230 -90.5t85 -225.5q0 -104 -56.5 -220t-158.5 -226q59 39 137 69.5t123 30.5q94 -2 153.5 -72.5t59.5 -189.5q0 -209 -227.5 -461t-378.5 -252q-141 0 -196.5 294t-53.5 865zM233 719q57 172 181.5 314.5t124.5 279.5 q0 96 -37 152.5t-107 56.5q-109 0 -153 -166t-9 -637zM238 676q-4 -190 34.5 -331.5t116.5 -141.5q94 -2 245.5 185t151.5 327q0 63 -33.5 100t-86.5 37q-100 -2 -215 -119.5t-213 -56.5z" />
<glyph unicode="&#xe3;" horiz-adv-x="593" d="M2 879q0 31 16.5 50t71.5 44l96 41q133 55 367.5 113.5t298.5 60.5q2 0 5 -6t3 -13q0 -8 -3 -15t-5 -7l-66 -21q-119 -37 -258 -90t-264 -106q25 -217 37 -393.5t12 -319.5q0 -215 -14 -253t-45 -38q-31 2 -53.5 30t-44.5 654l-11 283l-75 -35q-35 -16 -51.5 -10 t-16.5 31z" />
<glyph unicode="&#x433;" horiz-adv-x="593" d="M2 879q0 31 16.5 50t71.5 44l96 41q133 55 367.5 113.5t298.5 60.5q2 0 5 -6t3 -13q0 -8 -3 -15t-5 -7l-66 -21q-119 -37 -258 -90t-264 -106q25 -217 37 -393.5t12 -319.5q0 -215 -14 -253t-45 -38q-31 2 -53.5 30t-44.5 654l-11 283l-75 -35q-35 -16 -51.5 -10 t-16.5 31z" />
<glyph unicode="&#xe4;" horiz-adv-x="942" d="M-98 1454q2 43 86 76t196 33q303 0 493.5 -270.5t190.5 -600.5q0 -301 -130 -482t-322 -179q-150 0 -253.5 124t-103.5 304q0 188 121 327.5t248 139.5q23 0 36 -9.5t15 -21.5q0 -12 -2 -16.5t-16 -10.5l-80 -41q-68 -35 -111 -124t-43 -181q0 -147 62.5 -239.5 t163.5 -92.5q125 0 208.5 135.5t83.5 358.5q0 299 -166.5 550t-385.5 251q-35 0 -67 -6t-71 -19l-59 -20q-49 -18 -71.5 -14.5t-22.5 28.5z" />
<glyph unicode="&#x434;" horiz-adv-x="942" d="M-98 1454q2 43 86 76t196 33q303 0 493.5 -270.5t190.5 -600.5q0 -301 -130 -482t-322 -179q-150 0 -253.5 124t-103.5 304q0 188 121 327.5t248 139.5q23 0 36 -9.5t15 -21.5q0 -12 -2 -16.5t-16 -10.5l-80 -41q-68 -35 -111 -124t-43 -181q0 -147 62.5 -239.5 t163.5 -92.5q125 0 208.5 135.5t83.5 358.5q0 299 -166.5 550t-385.5 251q-35 0 -67 -6t-71 -19l-59 -20q-49 -18 -71.5 -14.5t-22.5 28.5z" />
<glyph unicode="&#xe5;" horiz-adv-x="833" d="M66 434q0 246 172 428t366 182q70 -2 118 -34.5t48 -83.5q0 -86 -131 -225.5t-414 -344.5q16 -100 81 -151t159 -49q100 0 200.5 35.5t196.5 103.5q16 10 26.5 14t18.5 4q4 -2 6 -4t5 -6v-8v-6q-4 -14 -14.5 -27.5t-37.5 -32.5q-152 -111 -247 -149.5t-189 -38.5 q-178 0 -271 100t-93 293zM211 461q92 76 177 144.5t106 88.5l65 64q47 45 58.5 64.5t13.5 35.5q0 23 -24.5 42.5t-59.5 21.5q-123 0 -232.5 -137.5t-103.5 -323.5z" />
<glyph unicode="&#x435;" horiz-adv-x="833" d="M66 434q0 246 172 428t366 182q70 -2 118 -34.5t48 -83.5q0 -86 -131 -225.5t-414 -344.5q16 -100 81 -151t159 -49q100 0 200.5 35.5t196.5 103.5q16 10 26.5 14t18.5 4q4 -2 6 -4t5 -6v-8v-6q-4 -14 -14.5 -27.5t-37.5 -32.5q-152 -111 -247 -149.5t-189 -38.5 q-178 0 -271 100t-93 293zM211 461q92 76 177 144.5t106 88.5l65 64q47 45 58.5 64.5t13.5 35.5q0 23 -24.5 42.5t-59.5 21.5q-123 0 -232.5 -137.5t-103.5 -323.5z" />
<glyph unicode="&#xe6;" horiz-adv-x="1382" d="M55 82q0 180 128 293.5t384 161.5q-217 -31 -361.5 90t-144.5 278q-2 51 43.5 51t57.5 -28l24 -70q51 -150 152.5 -212t253.5 -56l-12 168q-6 76 -11.5 105.5t-5.5 47.5q-6 49 9.5 76t50.5 27q45 0 55 -16.5t16 -53.5q4 -41 7.5 -173t9.5 -224q131 70 243.5 165 t171.5 197l48 82q23 41 63.5 45t40.5 -47q0 -106 -144.5 -251.5t-338.5 -205.5q227 14 396 -123t171 -337q-2 -41 -19.5 -60.5t-54.5 -19.5q-27 0 -38 10t-15 45q-25 182 -168 293t-348 102q8 -119 20.5 -224t12.5 -130q0 -51 -23.5 -73.5t-64.5 -24.5q-49 0 -63.5 25.5 t-12.5 179.5l2 249q-172 -18 -289 -119.5t-121 -258.5q-2 -39 -11 -52.5t-36 -13.5q-41 0 -60.5 19.5t-17.5 62.5z" />
<glyph unicode="&#x436;" horiz-adv-x="1382" d="M55 82q0 180 128 293.5t384 161.5q-217 -31 -361.5 90t-144.5 278q-2 51 43.5 51t57.5 -28l24 -70q51 -150 152.5 -212t253.5 -56l-12 168q-6 76 -11.5 105.5t-5.5 47.5q-6 49 9.5 76t50.5 27q45 0 55 -16.5t16 -53.5q4 -41 7.5 -173t9.5 -224q131 70 243.5 165 t171.5 197l48 82q23 41 63.5 45t40.5 -47q0 -106 -144.5 -251.5t-338.5 -205.5q227 14 396 -123t171 -337q-2 -41 -19.5 -60.5t-54.5 -19.5q-27 0 -38 10t-15 45q-25 182 -168 293t-348 102q8 -119 20.5 -224t12.5 -130q0 -51 -23.5 -73.5t-64.5 -24.5q-49 0 -63.5 25.5 t-12.5 179.5l2 249q-172 -18 -289 -119.5t-121 -258.5q-2 -39 -11 -52.5t-36 -13.5q-41 0 -60.5 19.5t-17.5 62.5z" />
<glyph unicode="&#xe7;" horiz-adv-x="948" d="M-139 -393q0 6 13 12t26 8l137 31q354 80 541.5 229.5t187.5 341.5q0 117 -62.5 191t-171.5 76q-45 0 -103 -17.5t-99 -38.5l-78 -41q-27 -14 -47.5 -2.5t-20.5 37.5q0 10 3 20.5t38 43.5l84 80q98 94 140.5 150t42.5 106q0 66 -34 94t-91 28q-39 0 -90.5 -19t-102.5 -52 l-68 -45q-37 -25 -72.5 -20t-35.5 40q0 20 15.5 39t52.5 35l94 43q143 66 188 75t105 9q86 -2 135 -42t49 -114q0 -80 -76 -182t-186 -174q221 100 382 35.5t163 -287.5q0 -270 -266.5 -458.5t-698.5 -229.5l-68 -6q-25 -2 -25.5 0t-0.5 4z" />
<glyph unicode="&#x437;" horiz-adv-x="948" d="M-139 -393q0 6 13 12t26 8l137 31q354 80 541.5 229.5t187.5 341.5q0 117 -62.5 191t-171.5 76q-45 0 -103 -17.5t-99 -38.5l-78 -41q-27 -14 -47.5 -2.5t-20.5 37.5q0 10 3 20.5t38 43.5l84 80q98 94 140.5 150t42.5 106q0 66 -34 94t-91 28q-39 0 -90.5 -19t-102.5 -52 l-68 -45q-37 -25 -72.5 -20t-35.5 40q0 20 15.5 39t52.5 35l94 43q143 66 188 75t105 9q86 -2 135 -42t49 -114q0 -80 -76 -182t-186 -174q221 100 382 35.5t163 -287.5q0 -270 -266.5 -458.5t-698.5 -229.5l-68 -6q-25 -2 -25.5 0t-0.5 4z" />
<glyph unicode="&#xe8;" horiz-adv-x="909" d="M100 856q-2 86 18.5 133t67.5 47q53 0 63.5 -44t10.5 -169v-284q0 -211 46 -285t138 -74q100 0 150.5 104.5t44.5 389.5l-4 170q-4 102 14.5 140t63.5 38q37 0 52 -32t15 -109v-176q0 -129 9.5 -221.5t27.5 -166.5l25 -102q33 -137 11 -179t-75 -42q-45 0 -77.5 81 t-32.5 208q-53 -102 -142.5 -175t-177.5 -71q-131 0 -187.5 126t-58.5 431z" />
<glyph unicode="&#x438;" horiz-adv-x="909" d="M100 856q-2 86 18.5 133t67.5 47q53 0 63.5 -44t10.5 -169v-284q0 -211 46 -285t138 -74q100 0 150.5 104.5t44.5 389.5l-4 170q-4 102 14.5 140t63.5 38q37 0 52 -32t15 -109v-176q0 -129 9.5 -221.5t27.5 -166.5l25 -102q33 -137 11 -179t-75 -42q-45 0 -77.5 81 t-32.5 208q-53 -102 -142.5 -175t-177.5 -71q-131 0 -187.5 126t-58.5 431z" />
<glyph unicode="&#xe9;" horiz-adv-x="970" d="M106 545l5 246q0 109 21.5 149.5t66.5 40.5q37 0 54 -24.5t11 -188.5l-10 -219q-10 -182 46 -280.5t165 -96.5q119 0 174 114.5t47 401.5l-6 172q-4 113 13.5 151t54.5 38q29 0 41 -10.5t22 -137.5l14 -215q6 -104 16.5 -175t35.5 -157l26 -102q25 -96 8.5 -144.5 t-69.5 -46.5q-47 -2 -78 63.5t-33 162.5q-217 -233 -261 -248.5t-95 -13.5q-131 0 -202 137t-67 383zM262 1282q0 27 11.5 43t31.5 16q2 0 4 -1t68 -25l41 -17q74 -31 172 42t153 92q12 2 17.5 2t9.5 -2q0 -2 1 -4.5t1 -4.5q0 -55 -127 -163.5t-219 -108.5q-72 0 -118 39 t-46 92z" />
<glyph unicode="&#x439;" horiz-adv-x="970" d="M106 545l5 246q0 109 21.5 149.5t66.5 40.5q37 0 54 -24.5t11 -188.5l-10 -219q-10 -182 46 -280.5t165 -96.5q119 0 174 114.5t47 401.5l-6 172q-4 113 13.5 151t54.5 38q29 0 41 -10.5t22 -137.5l14 -215q6 -104 16.5 -175t35.5 -157l26 -102q25 -96 8.5 -144.5 t-69.5 -46.5q-47 -2 -78 63.5t-33 162.5q-217 -233 -261 -248.5t-95 -13.5q-131 0 -202 137t-67 383zM262 1282q0 27 11.5 43t31.5 16q2 0 4 -1t68 -25l41 -17q74 -31 172 42t153 92q12 2 17.5 2t9.5 -2q0 -2 1 -4.5t1 -4.5q0 -55 -127 -163.5t-219 -108.5q-72 0 -118 39 t-46 92z" />
<glyph unicode="&#xea;" horiz-adv-x="989" d="M85 908q-1 54 10 80t48 26q47 -2 57.5 -17.5t14.5 -52.5q2 -37 6 -150.5t12 -240.5q166 63 295 157.5t205 202.5l64 91q25 37 64.5 44t39.5 -30q0 -127 -186.5 -280.5t-431.5 -227.5q297 76 491.5 -69.5t194.5 -358.5q0 -41 -18.5 -60.5t-55.5 -19.5q-27 0 -38 10.5 t-15 46.5q-33 193 -208 303.5t-388 61.5q10 -68 24.5 -176.5t14.5 -151.5q-2 -57 -27 -81.5t-72 -24.5t-61 21.5t-16 183.5q-8 377 -10.5 435t-4.5 107q-8 111 -8 127v33q-2 12 -1 11z" />
<glyph unicode="&#x43a;" horiz-adv-x="989" d="M85 908q-1 54 10 80t48 26q47 -2 57.5 -17.5t14.5 -52.5q2 -37 6 -150.5t12 -240.5q166 63 295 157.5t205 202.5l64 91q25 37 64.5 44t39.5 -30q0 -127 -186.5 -280.5t-431.5 -227.5q297 76 491.5 -69.5t194.5 -358.5q0 -41 -18.5 -60.5t-55.5 -19.5q-27 0 -38 10.5 t-15 46.5q-33 193 -208 303.5t-388 61.5q10 -68 24.5 -176.5t14.5 -151.5q-2 -57 -27 -81.5t-72 -24.5t-61 21.5t-16 183.5q-8 377 -10.5 435t-4.5 107q-8 111 -8 127v33q-2 12 -1 11z" />
<glyph unicode="&#xeb;" horiz-adv-x="753" d="M25.5 25.5q-5.5 11.5 15.5 103.5l37 170q80 375 162 585t161 210q25 -2 36.5 -20.5t33.5 -88.5l25 -84q236 -807 234.5 -792.5t-1.5 4.5q0 -39 -21.5 -59.5t-48.5 -20.5q-18 0 -30.5 7t-24.5 54l-39 129q-25 80 -50.5 156t-164.5 469q-59 -135 -107 -269.5t-85 -275.5 l-64 -233q-8 -31 -20.5 -43.5t-28.5 -12.5q-14 0 -19.5 11.5z" />
<glyph unicode="&#x43b;" horiz-adv-x="753" d="M25.5 25.5q-5.5 11.5 15.5 103.5l37 170q80 375 162 585t161 210q25 -2 36.5 -20.5t33.5 -88.5l25 -84q236 -807 234.5 -792.5t-1.5 4.5q0 -39 -21.5 -59.5t-48.5 -20.5q-18 0 -30.5 7t-24.5 54l-39 129q-25 80 -50.5 156t-164.5 469q-59 -135 -107 -269.5t-85 -275.5 l-64 -233q-8 -31 -20.5 -43.5t-28.5 -12.5q-14 0 -19.5 11.5z" />
<glyph unicode="&#xec;" horiz-adv-x="1165" d="M63 96l9 72q31 274 49 396t41 206l35 133q16 63 36.5 95t98.5 32q27 0 37 -13t20 -44l25 -84q-8 20 32.5 -166t133.5 -418q72 207 112.5 322.5t59.5 163.5l41 108q39 106 51 114.5t33 8.5q20 -2 33.5 -11.5t19.5 -27.5l20 -70q2 -8 4 -17t43 -189q16 -76 34 -142.5 t30 -115.5l31 -138q35 -160 23.5 -214t-62.5 -54q-41 -2 -66.5 29.5t-34.5 95.5l-45 305q-8 53 -32.5 151.5t-45.5 170.5q-256 -659 -269 -675t-36 -14q-27 0 -40 19.5t-31 79.5l-31 92q-25 72 -65 215t-68 264q-39 -96 -58.5 -196.5t-27.5 -432.5l-2 -77q-2 -31 -28 -48.5 t-60 -17.5q-31 0 -43.5 22.5t-6.5 69.5z" />
<glyph unicode="&#x43c;" horiz-adv-x="1165" d="M63 96l9 72q31 274 49 396t41 206l35 133q16 63 36.5 95t98.5 32q27 0 37 -13t20 -44l25 -84q-8 20 32.5 -166t133.5 -418q72 207 112.5 322.5t59.5 163.5l41 108q39 106 51 114.5t33 8.5q20 -2 33.5 -11.5t19.5 -27.5l20 -70q2 -8 4 -17t43 -189q16 -76 34 -142.5 t30 -115.5l31 -138q35 -160 23.5 -214t-62.5 -54q-41 -2 -66.5 29.5t-34.5 95.5l-45 305q-8 53 -32.5 151.5t-45.5 170.5q-256 -659 -269 -675t-36 -14q-27 0 -40 19.5t-31 79.5l-31 92q-25 72 -65 215t-68 264q-39 -96 -58.5 -196.5t-27.5 -432.5l-2 -77q-2 -31 -28 -48.5 t-60 -17.5q-31 0 -43.5 22.5t-6.5 69.5z" />
<glyph unicode="&#xed;" horiz-adv-x="978" d="M33 399q0 29 9 46.5t91 52.5q-2 59 -2 107v274q0 104 20.5 148t61.5 44q20 0 36.5 -21.5t16.5 -62.5q0 -25 -1 -46t-7 -120q-4 -33 -4 -88t2 -196l182 86q154 72 190 95t74 52q-6 225 8.5 302t63.5 77q27 0 42 -15.5t18 -43.5q-2 -6 -9.5 -46t-3.5 -118q0 -51 0 -49 t41 -451l12 -141q16 -213 -3 -241t-56 -28q-39 0 -63.5 38t-26.5 102l-12 311q-8 162 -10.5 173t-4.5 28q-10 -6 -0.5 -1t-427.5 -243q4 -55 26.5 -184t22.5 -201q0 -37 -22.5 -56.5t-58.5 -21.5q-37 0 -50.5 17.5t-13.5 60.5v59q0 2 -6 73t-10 214q-23 -8 -54.5 -14 t-40.5 -6q-16 0 -23 8t-7 26z" />
<glyph unicode="&#x43d;" horiz-adv-x="978" d="M33 399q0 29 9 46.5t91 52.5q-2 59 -2 107v274q0 104 20.5 148t61.5 44q20 0 36.5 -21.5t16.5 -62.5q0 -25 -1 -46t-7 -120q-4 -33 -4 -88t2 -196l182 86q154 72 190 95t74 52q-6 225 8.5 302t63.5 77q27 0 42 -15.5t18 -43.5q-2 -6 -9.5 -46t-3.5 -118q0 -51 0 -49 t41 -451l12 -141q16 -213 -3 -241t-56 -28q-39 0 -63.5 38t-26.5 102l-12 311q-8 162 -10.5 173t-4.5 28q-10 -6 -0.5 -1t-427.5 -243q4 -55 26.5 -184t22.5 -201q0 -37 -22.5 -56.5t-58.5 -21.5q-37 0 -50.5 17.5t-13.5 60.5v59q0 2 -6 73t-10 214q-23 -8 -54.5 -14 t-40.5 -6q-16 0 -23 8t-7 26z" />
<glyph unicode="&#xee;" horiz-adv-x="917" d="M57 485q0 133 79 299t155 183h7h7q4 -4 22.5 -23.5t18.5 -23.5q0 -2 -1 -2l-4 -4q-1 -1 -13 -17l-29 -39q-53 -72 -77.5 -150.5t-24.5 -172.5q-2 -164 92 -268.5t211 -104.5q109 0 189.5 119.5t80.5 312.5q0 162 -73.5 267.5t-186.5 119.5l-49 6q-49 4 3 33t109 29 q115 0 203 -129t88 -326q0 -238 -121.5 -402.5t-287.5 -164.5q-156 0 -277 136t-121 322z" />
<glyph unicode="&#x43e;" horiz-adv-x="917" d="M57 485q0 133 79 299t155 183h7h7q4 -4 22.5 -23.5t18.5 -23.5q0 -2 -1 -2l-4 -4q-1 -1 -13 -17l-29 -39q-53 -72 -77.5 -150.5t-24.5 -172.5q-2 -164 92 -268.5t211 -104.5q109 0 189.5 119.5t80.5 312.5q0 162 -73.5 267.5t-186.5 119.5l-49 6q-49 4 3 33t109 29 q115 0 203 -129t88 -326q0 -238 -121.5 -402.5t-287.5 -164.5q-156 0 -277 136t-121 322z" />
<glyph unicode="&#xef;" horiz-adv-x="952" d="M8 829q0 39 21.5 59.5t97.5 41.5q-8 43 10.5 67.5t48.5 24.5q29 0 41.5 -17.5t3.5 -52.5l213 70q207 68 254 78t76 10q31 0 46.5 -16.5t17.5 -42.5q0 -12 -8.5 -50t-6.5 -116q0 -55 2 -100.5t37 -370.5l12 -117q18 -190 0 -228t-61 -38q-37 0 -61.5 37.5t-26.5 101.5 l-10 258q-6 127 -4 279.5t10 300.5l-440 -136l-45 -20q-6 -252 27.5 -485.5t33.5 -309.5q0 -39 -22.5 -59.5t-59.5 -20.5q-35 0 -50 16.5t-13 63.5v58q0 119 -14.5 245.5t-2.5 456.5q-20 -8 -54 -15t-42 -7q-16 0 -23.5 8t-7.5 26z" />
<glyph unicode="&#x43f;" horiz-adv-x="952" d="M8 829q0 39 21.5 59.5t97.5 41.5q-8 43 10.5 67.5t48.5 24.5q29 0 41.5 -17.5t3.5 -52.5l213 70q207 68 254 78t76 10q31 0 46.5 -16.5t17.5 -42.5q0 -12 -8.5 -50t-6.5 -116q0 -55 2 -100.5t37 -370.5l12 -117q18 -190 0 -228t-61 -38q-37 0 -61.5 37.5t-26.5 101.5 l-10 258q-6 127 -4 279.5t10 300.5l-440 -136l-45 -20q-6 -252 27.5 -485.5t33.5 -309.5q0 -39 -22.5 -59.5t-59.5 -20.5q-35 0 -50 16.5t-13 63.5v58q0 119 -14.5 245.5t-2.5 456.5q-20 -8 -54 -15t-42 -7q-16 0 -23.5 8t-7.5 26z" />
<glyph unicode="&#xf0;" horiz-adv-x="1171" d="M119 768q-8 236 7 302.5t83 66.5q43 0 58.5 -23.5t15.5 -91.5q0 -43 -9.5 -209t-5.5 -356q129 258 295 428t301 170q113 0 181.5 -64.5t68.5 -189.5q0 -303 -214 -545t-429 -242q-20 0 -25.5 5.5t-5.5 17.5q-2 18 9.5 38.5t29.5 30.5l125 70q170 94 262 239.5t92 342.5 q0 119 -58 159.5t-134 -20.5l-64 -51q-102 -84 -234 -270.5t-198 -331.5q2 -274 19.5 -566t44.5 -383l18 -65q20 -78 -22.5 -141.5t-91.5 -63.5q-35 0 -55.5 37t-20.5 86q0 27 3 76t3 74q-2 8 -1 -2.5t-13 423.5z" />
<glyph unicode="&#x440;" horiz-adv-x="1171" d="M119 768q-8 236 7 302.5t83 66.5q43 0 58.5 -23.5t15.5 -91.5q0 -43 -9.5 -209t-5.5 -356q129 258 295 428t301 170q113 0 181.5 -64.5t68.5 -189.5q0 -303 -214 -545t-429 -242q-20 0 -25.5 5.5t-5.5 17.5q-2 18 9.5 38.5t29.5 30.5l125 70q170 94 262 239.5t92 342.5 q0 119 -58 159.5t-134 -20.5l-64 -51q-102 -84 -234 -270.5t-198 -331.5q2 -274 19.5 -566t44.5 -383l18 -65q20 -78 -22.5 -141.5t-91.5 -63.5q-35 0 -55.5 37t-20.5 86q0 27 3 76t3 74q-2 8 -1 -2.5t-13 423.5z" />
<glyph unicode="&#xf1;" horiz-adv-x="817" d="M47 442q0 252 179.5 440.5t357.5 188.5q72 0 110.5 -39t38.5 -92q0 -18 -4 -23.5t-12 -3.5q-4 -2 -7 -1t-30 20q-12 6 -28.5 10t-37.5 4q-178 0 -296.5 -149.5t-118.5 -329.5q0 -156 97 -252t257 -94q47 0 95 13t114 50q47 27 55 28t17 3q12 -2 15 -4t3 -8 q0 -10 -5 -17.5t-28 -25.5q-98 -78 -196.5 -111t-198.5 -33q-170 0 -273.5 126t-103.5 300z" />
<glyph unicode="&#x441;" horiz-adv-x="817" d="M47 442q0 252 179.5 440.5t357.5 188.5q72 0 110.5 -39t38.5 -92q0 -18 -4 -23.5t-12 -3.5q-4 -2 -7 -1t-30 20q-12 6 -28.5 10t-37.5 4q-178 0 -296.5 -149.5t-118.5 -329.5q0 -156 97 -252t257 -94q47 0 95 13t114 50q47 27 55 28t17 3q12 -2 15 -4t3 -8 q0 -10 -5 -17.5t-28 -25.5q-98 -78 -196.5 -111t-198.5 -33q-170 0 -273.5 126t-103.5 300z" />
<glyph unicode="&#xf2;" horiz-adv-x="1327" d="M97 827.5q1 14.5 3 26.5q4 27 24.5 41t55.5 14q37 -2 54.5 -19.5t21.5 -68.5q-2 4 0 -58.5t14 -139.5q78 84 210 194.5t177 110.5q35 -2 45.5 -69.5t-2.5 -164.5q125 121 238 197t168 76q49 0 73.5 -34t26.5 -106v-129v-80q-8 -180 -7 -173.5t1 4.5q0 -74 9.5 -152 t25.5 -100l16 -27q25 -41 6.5 -89t-77.5 -48q-74 0 -97.5 99t-25.5 360l-2 149q-2 119 -18.5 144.5t-47.5 25.5q-45 0 -135 -74.5t-139 -142.5q10 -82 31.5 -262t21.5 -219q0 -49 -25.5 -79t-62.5 -36h-15h-12q-39 10 -52 111.5t-5 425.5v85v23q-4 37 -18.5 55.5t-40.5 20.5 q-25 0 -73 -42t-124 -128l-78 -88q8 -147 17.5 -263t9.5 -128q0 -41 -24.5 -68t-61.5 -27q-39 2 -54.5 29t-15.5 105l-4 170q-2 59 -12.5 237t-16.5 264q-4 33 -3 47.5z" />
<glyph unicode="&#x442;" horiz-adv-x="1327" d="M97 827.5q1 14.5 3 26.5q4 27 24.5 41t55.5 14q37 -2 54.5 -19.5t21.5 -68.5q-2 4 0 -58.5t14 -139.5q78 84 210 194.5t177 110.5q35 -2 45.5 -69.5t-2.5 -164.5q125 121 238 197t168 76q49 0 73.5 -34t26.5 -106v-129v-80q-8 -180 -7 -173.5t1 4.5q0 -74 9.5 -152 t25.5 -100l16 -27q25 -41 6.5 -89t-77.5 -48q-74 0 -97.5 99t-25.5 360l-2 149q-2 119 -18.5 144.5t-47.5 25.5q-45 0 -135 -74.5t-139 -142.5q10 -82 31.5 -262t21.5 -219q0 -49 -25.5 -79t-62.5 -36h-15h-12q-39 10 -52 111.5t-5 425.5v85v23q-4 37 -18.5 55.5t-40.5 20.5 q-25 0 -73 -42t-124 -128l-78 -88q8 -147 17.5 -263t9.5 -128q0 -41 -24.5 -68t-61.5 -27q-39 2 -54.5 29t-15.5 105l-4 170q-2 59 -12.5 237t-16.5 264q-4 33 -3 47.5z" />
<glyph unicode="&#xf3;" horiz-adv-x="700" d="M-63 -827q0 23 93 231.5t238 632.5l84 246q-113 125 -227.5 333.5t-114.5 303.5q0 41 26.5 68.5t61.5 29.5q27 -2 46.5 -16.5t31.5 -51.5l47 -147q33 -106 80 -182t115 -140q176 463 173 457t1 2l49 115q18 45 47 25.5t21 -56.5l-101 -377q-94 -350 -234.5 -701.5 t-297.5 -641.5l-64 -117q-23 -43 -27.5 -45t-13.5 -2q-16 0 -25 9.5t-9 23.5z" />
<glyph unicode="&#x443;" horiz-adv-x="700" d="M-63 -827q0 23 93 231.5t238 632.5l84 246q-113 125 -227.5 333.5t-114.5 303.5q0 41 26.5 68.5t61.5 29.5q27 -2 46.5 -16.5t31.5 -51.5l47 -147q33 -106 80 -182t115 -140q176 463 173 457t1 2l49 115q18 45 47 25.5t21 -56.5l-101 -377q-94 -350 -234.5 -701.5 t-297.5 -641.5l-64 -117q-23 -43 -27.5 -45t-13.5 -2q-16 0 -25 9.5t-9 23.5z" />
<glyph unicode="&#xf4;" horiz-adv-x="1755" d="M33 330q0 266 254 437t463 97l-25 531q-4 74 18.5 111.5t71.5 37.5q76 -2 86 -209t-8 -899q25 252 174.5 413t341.5 161q119 0 203 -79t86 -239q0 -260 -202 -469t-398 -209q-16 -2 -22.5 3.5t-6.5 19.5q0 18 10.5 38.5t28.5 30.5l123 70q147 82 230 209t83 303 q0 92 -59.5 143.5t-159.5 53.5q-117 0 -225.5 -142.5t-198.5 -425.5q-4 -229 17.5 -556.5t44.5 -417.5l16 -66q18 -80 -23 -142.5t-92 -62.5q-33 0 -53 37t-20 88q-2 27 1 76t3 72q0 16 -1 35.5t-12 340.5l-18 502q-111 -98 -226.5 -147t-228.5 -49q-137 -2 -206.5 78 t-69.5 225zM180 356q0 -86 50.5 -148.5t138.5 -60.5q92 0 204.5 67t182.5 185v138q-4 94 -53.5 158.5t-133.5 64.5q-125 -2 -258 -125t-131 -279z" />
<glyph unicode="&#x444;" horiz-adv-x="1755" d="M33 330q0 266 254 437t463 97l-25 531q-4 74 18.5 111.5t71.5 37.5q76 -2 86 -209t-8 -899q25 252 174.5 413t341.5 161q119 0 203 -79t86 -239q0 -260 -202 -469t-398 -209q-16 -2 -22.5 3.5t-6.5 19.5q0 18 10.5 38.5t28.5 30.5l123 70q147 82 230 209t83 303 q0 92 -59.5 143.5t-159.5 53.5q-117 0 -225.5 -142.5t-198.5 -425.5q-4 -229 17.5 -556.5t44.5 -417.5l16 -66q18 -80 -23 -142.5t-92 -62.5q-33 0 -53 37t-20 88q-2 27 1 76t3 72q0 16 -1 35.5t-12 340.5l-18 502q-111 -98 -226.5 -147t-228.5 -49q-137 -2 -206.5 78 t-69.5 225zM180 356q0 -86 50.5 -148.5t138.5 -60.5q92 0 204.5 67t182.5 185v138q-4 94 -53.5 158.5t-133.5 64.5q-125 -2 -258 -125t-131 -279z" />
<glyph unicode="&#xf5;" horiz-adv-x="882" d="M20 969q0 35 27 63.5t55 28.5q29 -2 63 -29.5t58 -70.5l43 -80q49 -94 78 -138.5t66 -91.5q72 96 213 227.5t200 131.5q31 0 48.5 -29t-13.5 -59l-373 -392q33 -51 73 -95t101 -95l95 -80q29 -27 43 -52.5t14 -51.5q0 -31 -23.5 -52.5t-64.5 -21.5q-33 -2 -64.5 15.5 t-169.5 181.5l-98 114q-45 -57 -74.5 -105t-93.5 -175l-84 -166q-10 -16 -24.5 -21.5t-26.5 4.5q-16 12 -17 39t19 80l53 148q39 111 74 183.5t82 147.5q-119 150 -199 274t-80 167z" />
<glyph unicode="&#x445;" horiz-adv-x="882" d="M20 969q0 35 27 63.5t55 28.5q29 -2 63 -29.5t58 -70.5l43 -80q49 -94 78 -138.5t66 -91.5q72 96 213 227.5t200 131.5q31 0 48.5 -29t-13.5 -59l-373 -392q33 -51 73 -95t101 -95l95 -80q29 -27 43 -52.5t14 -51.5q0 -31 -23.5 -52.5t-64.5 -21.5q-33 -2 -64.5 15.5 t-169.5 181.5l-98 114q-45 -57 -74.5 -105t-93.5 -175l-84 -166q-10 -16 -24.5 -21.5t-26.5 4.5q-16 12 -17 39t19 80l53 148q39 111 74 183.5t82 147.5q-119 150 -199 274t-80 167z" />
<glyph unicode="&#xf6;" horiz-adv-x="974" d="M90 834q-14 182 0 202.5t47 20.5q37 0 61.5 -35t28.5 -104l9 -259q4 -131 2 -282.5t-7 -296.5q418 127 439 137l45 23q-12 346 -27.5 506.5t-15.5 224.5q0 47 17.5 65.5t53.5 18.5q35 0 49.5 -18.5t14.5 -59.5v-59q0 -193 7 -290.5t3 -353.5q37 8 60.5 13.5t35.5 5.5 q25 0 35 -42t10 -175q-2 -162 -19 -185.5t-54 -23.5q-18 0 -22.5 10t-2.5 29q2 39 -2 102.5t-16 186.5l-334 -129q-74 -29 -179.5 -59t-150.5 -30q-41 0 -55 21.5t0 95.5q6 39 2 180.5t-14 290.5z" />
<glyph unicode="&#x446;" horiz-adv-x="974" d="M90 834q-14 182 0 202.5t47 20.5q37 0 61.5 -35t28.5 -104l9 -259q4 -131 2 -282.5t-7 -296.5q418 127 439 137l45 23q-12 346 -27.5 506.5t-15.5 224.5q0 47 17.5 65.5t53.5 18.5q35 0 49.5 -18.5t14.5 -59.5v-59q0 -193 7 -290.5t3 -353.5q37 8 60.5 13.5t35.5 5.5 q25 0 35 -42t10 -175q-2 -162 -19 -185.5t-54 -23.5q-18 0 -22.5 10t-2.5 29q2 39 -2 102.5t-16 186.5l-334 -129q-74 -29 -179.5 -59t-150.5 -30q-41 0 -55 21.5t0 95.5q6 39 2 180.5t-14 290.5z" />
<glyph unicode="&#xf7;" horiz-adv-x="935" d="M43 971q0 66 18.5 91t59.5 25q37 0 57.5 -27.5t26.5 -109.5q16 -295 74.5 -391t164.5 -96q59 0 115.5 46t99.5 138q-23 295 -22 297v6q0 63 21.5 95t72.5 32q49 0 64.5 -33.5t21.5 -162.5l10 -328l7 -76q8 -143 18 -204.5t10 -116.5q0 -100 -22.5 -156.5t-67.5 -56.5 q-35 2 -53.5 43t-20.5 137l-2 49q-2 12 -3 27.5t-9 93.5q-2 14 -5 34.5t-15 186.5q-47 -86 -113 -135t-145 -49q-176 -2 -269.5 139.5t-93.5 501.5z" />
<glyph unicode="&#x447;" horiz-adv-x="935" d="M43 971q0 66 18.5 91t59.5 25q37 0 57.5 -27.5t26.5 -109.5q16 -295 74.5 -391t164.5 -96q59 0 115.5 46t99.5 138q-23 295 -22 297v6q0 63 21.5 95t72.5 32q49 0 64.5 -33.5t21.5 -162.5l10 -328l7 -76q8 -143 18 -204.5t10 -116.5q0 -100 -22.5 -156.5t-67.5 -56.5 q-35 2 -53.5 43t-20.5 137l-2 49q-2 12 -3 27.5t-9 93.5q-2 14 -5 34.5t-15 186.5q-47 -86 -113 -135t-145 -49q-176 -2 -269.5 139.5t-93.5 501.5z" />
<glyph unicode="&#xf8;" horiz-adv-x="1312" d="M91 1023q13 34 54 34q31 0 56.5 -40t29.5 -99l11 -259q4 -129 2 -281.5t-8 -297.5q119 39 219 63.5t186 61.5q-2 150 -11 303.5t-28 277.5q-12 82 -18 141.5t-6 78.5q0 35 21.5 56t59.5 21q29 0 43.5 -14t16.5 -49l4 -76q18 -379 18 -484.5t-4 -236.5q70 35 142.5 63.5 t212.5 75.5q2 41 4 92.5t2 133.5q0 33 -5.5 155.5t-9.5 165.5q-4 66 -13 97.5t-9 50.5q0 27 17.5 44t56.5 25h15h15q37 -10 49.5 -110.5t10.5 -353.5l-4 -347q-2 -94 -19.5 -133t-54.5 -39q-33 0 -45 23.5t-4 89.5q-31 -10 -57.5 -18.5t-292.5 -106.5q6 -45 -12.5 -68.5 t-47.5 -23.5q-35 0 -45 17.5t0 52.5l-131 -43q-211 -68 -256 -78.5t-74 -10.5q-41 0 -55 24t-8 140l4 88q2 53 -4 213t-13 234l-10 117q-18 196 -5 230z" />
<glyph unicode="&#x448;" horiz-adv-x="1312" d="M91 1023q13 34 54 34q31 0 56.5 -40t29.5 -99l11 -259q4 -129 2 -281.5t-8 -297.5q119 39 219 63.5t186 61.5q-2 150 -11 303.5t-28 277.5q-12 82 -18 141.5t-6 78.5q0 35 21.5 56t59.5 21q29 0 43.5 -14t16.5 -49l4 -76q18 -379 18 -484.5t-4 -236.5q70 35 142.5 63.5 t212.5 75.5q2 41 4 92.5t2 133.5q0 33 -5.5 155.5t-9.5 165.5q-4 66 -13 97.5t-9 50.5q0 27 17.5 44t56.5 25h15h15q37 -10 49.5 -110.5t10.5 -353.5l-4 -347q-2 -94 -19.5 -133t-54.5 -39q-33 0 -45 23.5t-4 89.5q-31 -10 -57.5 -18.5t-292.5 -106.5q6 -45 -12.5 -68.5 t-47.5 -23.5q-35 0 -45 17.5t0 52.5l-131 -43q-211 -68 -256 -78.5t-74 -10.5q-41 0 -55 24t-8 140l4 88q2 53 -4 213t-13 234l-10 117q-18 196 -5 230z" />
<glyph unicode="&#xf9;" horiz-adv-x="1404" d="M94.5 986q16.5 28 50.5 28q31 0 56.5 -40t29.5 -100l11 -258q4 -115 2 -272.5t-6 -306.5q379 113 385 116t18 7q-2 150 -11 292t-26 291q-29 233 -27.5 224t1.5 -4q0 35 21.5 56t59.5 21q27 -2 42.5 -16t17.5 -47l4 -76q25 -457 25 -459t-11 -256q84 27 173 58.5 t182 66.5q2 43 4 99.5t2 134.5q0 35 -5.5 156.5t-9.5 162.5q-4 57 -13 94t-9 56q-2 27 16.5 44t57.5 25h15h15q37 -10 48.5 -105t11.5 -360l-2 -268q37 8 60.5 13.5t33.5 5.5q25 0 35 -38t12 -179q0 -147 -17.5 -178t-56.5 -31q-14 0 -21 9t-3 32q2 35 -2 103.5t-19 213.5 q-49 -27 -84 -45t-413 -170q6 -43 -12.5 -66.5t-47.5 -23.5q-31 0 -43 16.5t-2 53.5l-131 -43q-211 -68 -256 -78.5t-74 -10.5q-41 0 -55 25t-8 139l4 88q2 51 -4 210t-13 235l-10 119q-18 208 -1.5 236z" />
<glyph unicode="&#x449;" horiz-adv-x="1404" d="M94.5 986q16.5 28 50.5 28q31 0 56.5 -40t29.5 -100l11 -258q4 -115 2 -272.5t-6 -306.5q379 113 385 116t18 7q-2 150 -11 292t-26 291q-29 233 -27.5 224t1.5 -4q0 35 21.5 56t59.5 21q27 -2 42.5 -16t17.5 -47l4 -76q25 -457 25 -459t-11 -256q84 27 173 58.5 t182 66.5q2 43 4 99.5t2 134.5q0 35 -5.5 156.5t-9.5 162.5q-4 57 -13 94t-9 56q-2 27 16.5 44t57.5 25h15h15q37 -10 48.5 -105t11.5 -360l-2 -268q37 8 60.5 13.5t33.5 5.5q25 0 35 -38t12 -179q0 -147 -17.5 -178t-56.5 -31q-14 0 -21 9t-3 32q2 35 -2 103.5t-19 213.5 q-49 -27 -84 -45t-413 -170q6 -43 -12.5 -66.5t-47.5 -23.5q-31 0 -43 16.5t-2 53.5l-131 -43q-211 -68 -256 -78.5t-74 -10.5q-41 0 -55 25t-8 139l4 88q2 51 -4 210t-13 235l-10 119q-18 208 -1.5 236z" />
<glyph unicode="&#xfa;" horiz-adv-x="905" d="M-82 848q0 35 122 121t183 86q27 0 42.5 -18.5t15.5 -63.5v-84q0 -35 7 -112t5 -230q68 102 145.5 146t169.5 44q117 0 190.5 -63.5t73.5 -173.5q0 -184 -141 -320.5t-287 -136.5q-125 0 -186 86t-65 274l-5 185q-2 72 -9 160t-5 202q-74 -33 -134 -83t-83 -50t-31 6.5 t-8 24.5zM317 399q0 -25 2.5 -49t8.5 -49q14 -86 54 -126t95 -40q94 0 181 119t87 215q0 74 -59 122t-143 48q-72 0 -134.5 -69t-91.5 -171z" />
<glyph unicode="&#x44a;" horiz-adv-x="905" d="M-82 848q0 35 122 121t183 86q27 0 42.5 -18.5t15.5 -63.5v-84q0 -35 7 -112t5 -230q68 102 145.5 146t169.5 44q117 0 190.5 -63.5t73.5 -173.5q0 -184 -141 -320.5t-287 -136.5q-125 0 -186 86t-65 274l-5 185q-2 72 -9 160t-5 202q-74 -33 -134 -83t-83 -50t-31 6.5 t-8 24.5zM317 399q0 -25 2.5 -49t8.5 -49q14 -86 54 -126t95 -40q94 0 181 119t87 215q0 74 -59 122t-143 48q-72 0 -134.5 -69t-91.5 -171z" />
<glyph unicode="&#xfb;" horiz-adv-x="1155" d="M92 922q0 45 14.5 67.5t38.5 22.5q29 0 44.5 -18.5t15.5 -63.5v-86q0 2 8 -99.5t4 -263.5q72 145 148.5 199.5t183.5 54.5q115 0 180.5 -59.5t65.5 -159.5q0 -154 -134.5 -335t-291.5 -181q-125 0 -186.5 86t-65.5 274l-4 185q-6 205 -13.5 294t-7.5 83zM242 356 q0 -23 2 -46t8 -52q12 -86 53 -126t96 -40q96 0 183.5 142.5t87.5 246.5q0 72 -45 117t-115 45q-98 0 -167.5 -77t-102.5 -210zM901 891q0 39 18.5 60.5t61.5 29.5h16h15q27 -10 44 -51t17 -99q0 -68 -2 -137t-6 -176l-14 -346q-4 -94 -29 -134t-64 -40q-25 0 -35 12.5 t-10 61.5q0 168 9.5 330.5t9.5 220.5q0 115 -16.5 180t-14.5 88z" />
<glyph unicode="&#x44b;" horiz-adv-x="1155" d="M92 922q0 45 14.5 67.5t38.5 22.5q29 0 44.5 -18.5t15.5 -63.5v-86q0 2 8 -99.5t4 -263.5q72 145 148.5 199.5t183.5 54.5q115 0 180.5 -59.5t65.5 -159.5q0 -154 -134.5 -335t-291.5 -181q-125 0 -186.5 86t-65.5 274l-4 185q-6 205 -13.5 294t-7.5 83zM242 356 q0 -23 2 -46t8 -52q12 -86 53 -126t96 -40q96 0 183.5 142.5t87.5 246.5q0 72 -45 117t-115 45q-98 0 -167.5 -77t-102.5 -210zM901 891q0 39 18.5 60.5t61.5 29.5h16h15q27 -10 44 -51t17 -99q0 -68 -2 -137t-6 -176l-14 -346q-4 -94 -29 -134t-64 -40q-25 0 -35 12.5 t-10 61.5q0 168 9.5 330.5t9.5 220.5q0 115 -16.5 180t-14.5 88z" />
<glyph unicode="&#xfc;" horiz-adv-x="813" d="M63 944q-2 45 12.5 67.5t41.5 22.5q29 0 42 -19.5t15 -64.5v-84q0 -31 9.5 -106.5t4.5 -233.5q68 102 145 146.5t169 44.5q115 -2 189.5 -66.5t76.5 -173.5q0 -180 -144.5 -318.5t-283.5 -135.5q-117 -2 -182.5 75.5t-69.5 284.5l-4 184q-2 57 -8 110.5t-6 115.5 q-2 10 -2 48v60q-2 4 -3.5 18.5t-1.5 24.5zM211 377q0 -20 3 -43t9 -53q14 -86 53 -127t97 -41q84 0 175 115.5t91 217.5q0 76 -57.5 123t-143.5 47q-74 0 -135 -68.5t-92 -170.5z" />
<glyph unicode="&#x44c;" horiz-adv-x="813" d="M63 944q-2 45 12.5 67.5t41.5 22.5q29 0 42 -19.5t15 -64.5v-84q0 -31 9.5 -106.5t4.5 -233.5q68 102 145 146.5t169 44.5q115 -2 189.5 -66.5t76.5 -173.5q0 -180 -144.5 -318.5t-283.5 -135.5q-117 -2 -182.5 75.5t-69.5 284.5l-4 184q-2 57 -8 110.5t-6 115.5 q-2 10 -2 48v60q-2 4 -3.5 18.5t-1.5 24.5zM211 377q0 -20 3 -43t9 -53q14 -86 53 -127t97 -41q84 0 175 115.5t91 217.5q0 76 -57.5 123t-143.5 47q-74 0 -135 -68.5t-92 -170.5z" />
<glyph unicode="&#xfd;" horiz-adv-x="911" d="M47 885q0 8 5 17t28 26q104 80 194.5 111.5t200.5 31.5q121 0 218.5 -79t140.5 -204q31 12 60.5 11.5t29.5 -17.5q0 -20 -23.5 -43.5t-52.5 -33.5q29 -225 -143.5 -452.5t-415.5 -227.5q-94 0 -143.5 31.5t-49.5 74.5q0 14 5 21.5t30 7.5q18 0 64.5 -10.5t76.5 -10.5 q182 0 311.5 153.5t116.5 362.5q-135 -47 -354 -111.5t-260 -64.5q-14 0 -19.5 3t-5.5 12q0 25 110 68.5t517 162.5q-33 111 -126 175.5t-216 66.5q-51 -2 -98 -15.5t-111 -48.5q-49 -29 -57 -30t-14 -1q-14 -2 -16.5 1.5t-2.5 11.5z" />
<glyph unicode="&#x44d;" horiz-adv-x="911" d="M47 885q0 8 5 17t28 26q104 80 194.5 111.5t200.5 31.5q121 0 218.5 -79t140.5 -204q31 12 60.5 11.5t29.5 -17.5q0 -20 -23.5 -43.5t-52.5 -33.5q29 -225 -143.5 -452.5t-415.5 -227.5q-94 0 -143.5 31.5t-49.5 74.5q0 14 5 21.5t30 7.5q18 0 64.5 -10.5t76.5 -10.5 q182 0 311.5 153.5t116.5 362.5q-135 -47 -354 -111.5t-260 -64.5q-14 0 -19.5 3t-5.5 12q0 25 110 68.5t517 162.5q-33 111 -126 175.5t-216 66.5q-51 -2 -98 -15.5t-111 -48.5q-49 -29 -57 -30t-14 -1q-14 -2 -16.5 1.5t-2.5 11.5z" />
<glyph unicode="&#xfe;" horiz-adv-x="1445" d="M43 399q0 35 10 50.5t103 52.5q-14 121 -24.5 241.5t-10.5 163.5q0 55 18.5 82t53.5 27q27 0 42 -31t19 -111q12 -311 12 -310t0 -27l332 157q12 66 52 143.5t69 84.5h5h7q16 -4 33.5 -13.5t17.5 -19.5q0 -4 -1 -7t-9 -20l-22 -43q-113 -213 -6.5 -429t294.5 -216 q106 0 174 89t68 243q0 205 -104.5 351.5t-245.5 123.5l-60 -10q-25 -4 -35 -1t-8 17q0 27 62.5 50.5t120.5 23.5q137 0 251.5 -150.5t114.5 -384.5q0 -207 -106.5 -352t-263.5 -145q-176 0 -316.5 166.5t-103.5 410.5q-78 -51 -155 -96t-155 -86q14 -78 33 -214t19 -198 q0 -35 -22.5 -56.5t-59.5 -21.5q-29 0 -42.5 18.5t-10.5 57.5v86q0 45 -10.5 129t-20.5 160q-20 -8 -51 -14t-39 -6q-14 0 -21.5 8t-7.5 26z" />
<glyph unicode="&#x44e;" horiz-adv-x="1445" d="M43 399q0 35 10 50.5t103 52.5q-14 121 -24.5 241.5t-10.5 163.5q0 55 18.5 82t53.5 27q27 0 42 -31t19 -111q12 -311 12 -310t0 -27l332 157q12 66 52 143.5t69 84.5h5h7q16 -4 33.5 -13.5t17.5 -19.5q0 -4 -1 -7t-9 -20l-22 -43q-113 -213 -6.5 -429t294.5 -216 q106 0 174 89t68 243q0 205 -104.5 351.5t-245.5 123.5l-60 -10q-25 -4 -35 -1t-8 17q0 27 62.5 50.5t120.5 23.5q137 0 251.5 -150.5t114.5 -384.5q0 -207 -106.5 -352t-263.5 -145q-176 0 -316.5 166.5t-103.5 410.5q-78 -51 -155 -96t-155 -86q14 -78 33 -214t19 -198 q0 -35 -22.5 -56.5t-59.5 -21.5q-29 0 -42.5 18.5t-10.5 57.5v86q0 45 -10.5 129t-20.5 160q-20 -8 -51 -14t-39 -6q-14 0 -21.5 8t-7.5 26z" />
<glyph unicode="&#xff;" horiz-adv-x="892" d="M51 635q0 201 202 348t441 92q14 10 42 19.5t42 11.5q33 0 47.5 -34t-16.5 -269q-31 -213 -1 -430t30 -267q0 -43 -15.5 -56t-52.5 -13t-62.5 17.5t-23.5 45.5v113q-2 70 -6 154t-12 165q-135 -70 -231.5 -185.5t-147.5 -258.5l-33 -92q-23 -59 -46.5 -85t-53.5 -26 q-27 2 -38.5 18.5t-11.5 49.5q0 78 76 217t189 229q-133 -31 -225.5 37t-92.5 199zM188 655q0 -98 67 -147t173 -35q39 51 99.5 96t140.5 82l16 326q-33 6 -68.5 11t-66.5 5q-150 -2 -255.5 -104.5t-105.5 -233.5z" />
<glyph unicode="&#x44f;" horiz-adv-x="892" d="M51 635q0 201 202 348t441 92q14 10 42 19.5t42 11.5q33 0 47.5 -34t-16.5 -269q-31 -213 -1 -430t30 -267q0 -43 -15.5 -56t-52.5 -13t-62.5 17.5t-23.5 45.5v113q-2 70 -6 154t-12 165q-135 -70 -231.5 -185.5t-147.5 -258.5l-33 -92q-23 -59 -46.5 -85t-53.5 -26 q-27 2 -38.5 18.5t-11.5 49.5q0 78 76 217t189 229q-133 -31 -225.5 37t-92.5 199zM188 655q0 -98 67 -147t173 -35q39 51 99.5 96t140.5 82l16 326q-33 6 -68.5 11t-66.5 5q-150 -2 -255.5 -104.5t-105.5 -233.5z" />
<glyph unicode="&#x152;" horiz-adv-x="1974" d="M133 872q0 520 34 623.5t109 103.5q31 0 47.5 -25.5t18.5 -90.5q-2 -76 -17.5 -238t-13.5 -414l264 117q252 111 297.5 137.5t92.5 61.5q-6 299 20.5 449.5t99.5 150.5q45 0 63.5 -19.5t18.5 -62.5q0 -12 -1 -22.5t-21 -118.5q-8 -35 -11.5 -74t-0.5 -86l2 -201 q125 70 284.5 113t282.5 43q117 0 178.5 -67.5t63.5 -180.5q0 -176 -159 -408.5t-382 -396.5l-109 -80q-84 -61 -106.5 -72.5t-50.5 -19.5q-68 -45 -118 9.5t-50 170.5l-4 443q-4 258 -5.5 268t-1.5 23q-248 -78 -441 -194t-191 -212q0 -88 19.5 -155.5t21.5 -296.5 q0 -72 -30 -99.5t-85 -25.5q-47 0 -64.5 24.5t-15.5 87.5q-2 14 1 40t3 40q-2 117 -23.5 357.5t-19.5 297.5zM1149 1053q2 -121 13.5 -348.5t25.5 -425.5q332 266 466 437t134 318q-2 66 -35 98.5t-115 32.5q-115 0 -235.5 -28.5t-253.5 -83.5z" />
<glyph unicode="&#x153;" horiz-adv-x="1452" d="M33 399q0 29 7 44.5t93 54.5q-2 59 -2 107v274q0 104 20.5 148t61.5 44q23 0 37 -20.5t14 -63.5q0 -18 -1 -32.5t-5 -133.5q-2 -37 -3 -107.5t1 -176.5l182 86q156 72 191 94t71 53q-2 53 0 110.5t11 131.5q-4 72 10 104.5t51 32.5q29 0 44 -14.5t18 -44.5 q-2 -6 -2.5 -10.5t-6.5 -45.5q-4 -18 -5 -38.5t1 -69.5q0 -41 1 -139.5t7 -256.5q70 100 146 143.5t168 43.5q117 -2 189.5 -66.5t74.5 -173.5q0 -180 -142.5 -317t-285.5 -137q-127 0 -186.5 82.5t-65.5 291.5q-4 94 -11 151.5t-20 119.5q-12 -6 5.5 2t-431.5 -246 q2 -43 25.5 -177t23.5 -208q0 -39 -24.5 -58.5t-56.5 -19.5q-37 0 -51.5 17.5t-12.5 60.5v59q0 31 -7 116t-11 171q-23 -8 -53.5 -14t-39.5 -6q-16 -2 -23 7t-7 27zM852 377q0 -23 2 -45.5t8 -50.5q12 -86 53 -127t97 -41q84 0 175 115.5t91 217.5q0 76 -57.5 123t-143.5 47 q-72 0 -134 -68.5t-91 -170.5z" />
<glyph unicode="&#x178;" horiz-adv-x="952" d="M75.5 1017q18.5 38 63.5 40q35 0 59.5 -39t28.5 -100l11 -259q4 -129 2 -281.5t-9 -297.5q426 129 443.5 137t42.5 21q4 250 -29 478t-33 314q0 37 21.5 58.5t60.5 21.5q33 0 48.5 -17.5t15.5 -62.5v-57q-2 -121 12 -248t4 -453q16 4 51 12.5t45 8.5q14 0 22.5 -9.5 t8.5 -25.5q0 -37 -15.5 -55.5t-78.5 -36.5l-252 -74q14 -31 21.5 -58.5t9.5 -68.5q0 -80 -18.5 -144.5t-135.5 -260.5l-37 -62q-20 -31 -25 -34t-12 -5q-2 0 -2 1v10q-2 2 -1 3t26 54l22 49q25 59 44.5 150.5t19.5 148.5q-2 23 -11.5 74t-21.5 108q-57 -25 -156.5 -51 t-142.5 -29q-33 0 -48 15.5t-15 44.5q0 10 7 48t7 118q-2 53 -4 98t-35 373l-12 117q-21 188 -2.5 226z" />
<glyph unicode="&#x2c6;" horiz-adv-x="608" d="M0 1227q0 6 80 72.5t176 197.5q57 80 57 81t47 1q2 -2 5.5 -2t144.5 -150l57 -61q18 -20 29.5 -39.5t11.5 -32.5q0 -37 -19.5 -56t-51.5 -17q-27 0 -53.5 7t-34.5 19l-41 56q-72 94 -83 105l-26 26q-147 -84 -203.5 -159t-64.5 -75q-16 0 -23.5 5.5t-7.5 21.5z" />
<glyph unicode="&#x2dc;" horiz-adv-x="716" d="M0 1315q0 55 114.5 86t223.5 -15l33 -20q57 -37 63 -38t17 -1q43 0 105 38t103 83q18 14 38 11t20 -13q-2 -98 -159 -181t-247 -30q-27 20 -55.5 29.5t-79.5 9.5q-41 0 -89 -8.5t-54 -8.5q-14 0 -23.5 16.5t-9.5 41.5z" />
<glyph unicode="&#x2000;" horiz-adv-x="1187" />
<glyph unicode="&#x2001;" horiz-adv-x="2377" />
<glyph unicode="&#x2002;" horiz-adv-x="1187" />
<glyph unicode="&#x2003;" horiz-adv-x="2377" />
<glyph unicode="&#x2004;" horiz-adv-x="792" />
<glyph unicode="&#x2005;" horiz-adv-x="593" />
<glyph unicode="&#x2006;" horiz-adv-x="395" />
<glyph unicode="&#x2007;" horiz-adv-x="395" />
<glyph unicode="&#x2008;" horiz-adv-x="296" />
<glyph unicode="&#x2009;" horiz-adv-x="475" />
<glyph unicode="&#x200a;" horiz-adv-x="131" />
<glyph unicode="&#x2010;" d="M76 657q0 31 45 58.5t266 89.5l74 20q59 16 148 31.5t132 15.5q61 0 120 -13t59 -34q-2 -12 -8.5 -21t-166.5 -52l-73 -21q-92 -27 -113.5 -47t-142.5 -47l-107 -25q-115 -27 -174 -17.5t-59 62.5z" />
<glyph unicode="&#x2011;" d="M76 657q0 31 45 58.5t266 89.5l74 20q59 16 148 31.5t132 15.5q61 0 120 -13t59 -34q-2 -12 -8.5 -21t-166.5 -52l-73 -21q-92 -27 -113.5 -47t-142.5 -47l-107 -25q-115 -27 -174 -17.5t-59 62.5z" />
<glyph unicode="&#x2012;" d="M76 657q0 31 45 58.5t266 89.5l74 20q59 16 148 31.5t132 15.5q61 0 120 -13t59 -34q-2 -12 -8.5 -21t-166.5 -52l-73 -21q-92 -27 -113.5 -47t-142.5 -47l-107 -25q-115 -27 -174 -17.5t-59 62.5z" />
<glyph unicode="&#x2013;" horiz-adv-x="1468" d="M76 676q-2 59 503.5 182t659.5 133q152 -18 153 -19q-1 -15 -33 -36t-69 -23q-66 -6 -67 -6h-4q-6 -2 -36 -10t-61 -16q-12 -4 -22 -7.5t-289 -97.5q-309 -104 -367.5 -117.5t-255.5 -44.5q-55 -18 -83.5 -5.5t-28.5 67.5z" />
<glyph unicode="&#x2014;" horiz-adv-x="2142" d="M143 702q0 33 745.5 200t954.5 185q145 -16 149.5 -18t6.5 -4q-2 -14 -34 -30.5t-87 -24.5q-414 -72 -654.5 -128.5t-621.5 -166.5q-53 -23 -151.5 -42.5t-192.5 -29.5q-55 -18 -85 -6t-30 65z" />
<glyph unicode="&#x2018;" horiz-adv-x="311" d="M72 1425q0 94 20.5 161t132.5 247l37 59q18 31 23.5 35t13.5 4q0 -2 1 -2t1 -8q0 -6 -1 -9t-21 -46l-25 -51q-29 -59 -46.5 -147.5t-17.5 -149.5q0 -18 1.5 -33t13.5 -58q4 -16 6 -27t4 -20v-3q-2 -22 -35 -43t-53 -21q-29 0 -42 27.5t-13 84.5z" />
<glyph unicode="&#x2019;" horiz-adv-x="311" d="M72 1315v12v6q0 4 22 49l25 52q27 55 45 144t18 153q-2 12 -3 26.5t-13 61.5q-4 16 -6 27.5t-2 21.5q-2 0 -2 1t2 3q0 20 31.5 40.5t56.5 20.5t40 -24.5t15 -87.5q0 -88 -16.5 -146.5t-137.5 -259.5l-36 -61q-20 -33 -25.5 -36t-11.5 -3h-2z" />
<glyph unicode="&#x201a;" horiz-adv-x="311" d="M41 -440q0 4 22 47l25 51q27 57 44.5 146.5t19.5 150.5q0 14 -2.5 28.5t-14.5 59.5q-4 16 -6 27.5t-2 21.5q-2 0 -2 1t2 3q0 18 33 40t55 22q25 0 40 -24.5t15 -88.5q0 -86 -16 -144.5t-137 -260.5l-37 -62q-20 -31 -25.5 -35t-11.5 -4q-2 0 -2 1v11v9z" />
<glyph unicode="&#x201c;" horiz-adv-x="630" d="M72 1425q0 84 25.5 162t129.5 246l37 59q18 31 23.5 35t13.5 4l1 -1q1 -1 1 -9q0 -2 -1 -4t-23 -51l-25 -51q-25 -51 -43 -144.5t-18 -152.5q-2 -43 9 -68t13 -70v-3q-2 -24 -32.5 -44t-53.5 -20q-31 0 -44 27.5t-13 84.5zM377 1432q0 29 4 56.5t125 283.5l31 65 q23 49 38 72.5t29 23.5q8 0 12.5 -8t4.5 -20q0 -4 0 7t-62 -198q-35 -111 -38 -128t-1 -34q-2 -27 14.5 -66.5t16.5 -49.5q0 -47 -25.5 -73t-72.5 -26q-39 0 -57.5 24t-18.5 71z" />
<glyph unicode="&#x201d;" horiz-adv-x="630" d="M72 1343q0 131 50 213t50 140q0 10 -4 26.5t-10 38.5q-16 47 -17 48v3q0 43 24.5 71t74.5 28q39 0 57 -24.5t18 -69.5q0 -31 -5 -58.5t-124 -281.5l-30 -66q-25 -51 -41.5 -74.5t-26.5 -23.5q-8 0 -12 7t-4 23zM389 1315v12v2q0 2 25 53l24 52q23 49 42.5 143t19.5 154 q0 37 -11.5 67.5t-11.5 69.5q-2 0 -2 1t2 3q0 20 31 40.5t55 20.5q29 0 43.5 -26.5t14.5 -85.5q0 -78 -21.5 -147.5t-134.5 -258.5l-37 -61q-20 -33 -25.5 -36t-11.5 -3h-2z" />
<glyph unicode="&#x201e;" horiz-adv-x="630" d="M41 -432q0 133 49 215t51 137q0 12 -4 28.5t-10 37.5q-16 47 -16 48v3q-2 43 23.5 70.5t74.5 27.5q39 0 57.5 -24.5t18.5 -69.5q-2 -31 -6.5 -57.5t-122.5 -282.5l-31 -66q-25 -49 -41 -73.5t-27 -24.5q-8 0 -12 8.5t-4 22.5zM358 -444q0 2 25 51l25 51q23 51 41 145.5 t20 151.5q0 39 -11.5 64.5t-11.5 72.5q-2 0 -2 1t2 3q0 18 31 40t55 22q29 0 43.5 -27t14.5 -86q0 -76 -21.5 -145.5t-134.5 -259.5l-37 -62q-20 -31 -25 -35t-12 -4q-2 0 -2 1v11v5z" />
<glyph unicode="&#x2022;" horiz-adv-x="710" d="M115 768q0 74 79.5 205t155.5 133q25 0 69 -21.5t50 -21.5l47 -12q37 -10 66.5 -70.5t29.5 -140.5q0 -141 -97 -235.5t-181 -94.5q-66 -2 -142.5 92t-76.5 166z" />
<glyph unicode="&#x2026;" horiz-adv-x="1144" d="M41 137q0 27 54.5 60.5t90.5 33.5q27 0 41.5 -17t14.5 -52q0 -39 -33 -69t-70 -30q-31 0 -64.5 24.5t-33.5 49.5zM502 111q0 29 52 61.5t93 34.5q25 -2 40 -20.5t15 -49.5q-2 -35 -32.5 -67.5t-69.5 -32.5q-31 0 -65.5 24.5t-32.5 49.5zM903 137q-2 25 50.5 58.5 t95.5 35.5q25 -2 40 -20t15 -49q0 -39 -34 -70t-69 -29q-31 0 -64.5 24.5t-33.5 49.5z" />
<glyph unicode="&#x202f;" horiz-adv-x="475" />
<glyph unicode="&#x2039;" horiz-adv-x="851" d="M102 565q0 47 30 103.5t75 101.5l72 72q33 33 110.5 117.5t106.5 119.5l47 58q14 18 35.5 35.5t31.5 17.5q8 0 17.5 -8t9.5 -19q-2 -4 -4 -9t-25 -44l-67 -109q-18 -29 -86 -105.5t-176 -233.5q209 -100 340 -255t131 -245q0 -2 -3.5 -3t-76.5 70l-56 54q-45 41 -139 91 t-215 97q-135 51 -146.5 61t-11.5 33z" />
<glyph unicode="&#x203a;" horiz-adv-x="831" d="M102 1012q0 31 28 64.5t60 33.5q27 0 88.5 -40t196.5 -140l174 -131q68 -53 74 -60.5t6 -13.5q0 -8 -10 -23.5t-27 -37.5l-74 -99q-63 -86 -143 -188.5t-108 -138.5l-54 -66q-70 -86 -75 -89t-9 -1q-4 0 -7 1t-3 5v1q0 1 41 79l21 39q37 72 120.5 204t153.5 228 q-203 133 -328 235.5t-125 137.5z" />
<glyph unicode="&#x205f;" horiz-adv-x="593" />
<glyph unicode="&#x2122;" horiz-adv-x="1255" d="M-225 1219q0 23 13 41t42 30l72 29q512 205 583.5 218t141.5 13q25 -2 40 -9t15 -17q0 -14 -8 -25.5t-21 -13.5l-41 -12q-145 -45 -214.5 -72t-176.5 -70q2 -100 8.5 -210.5t6.5 -151.5q0 -217 -19.5 -273.5t-62.5 -56.5q-29 0 -46.5 27.5t-17.5 375.5v236 q-74 -35 -105.5 -50.5t-58.5 -27.5l-59 -31q-35 -20 -63.5 -1.5t-28.5 51.5zM455 725v63l4 60q6 88 7 127t3 106l4 219q0 70 23.5 105t70.5 35q18 -2 31.5 -7.5t28.5 -29.5l6 -14l211 -273q184 260 180 249t-2 -7l12 35q20 59 43 80.5t51 23.5q29 0 47.5 -21.5t18.5 -62.5 q0 -12 -1 -21.5t-7 -43.5q-8 -33 -17.5 -138.5t-9.5 -146.5q-2 -14 -2 -27.5t2 -31.5q2 -115 3 -147t7 -54q8 -57 10 -60l1 -2q0 -45 -25 -71.5t-61 -26.5q-43 0 -61.5 39t-18.5 166q-2 53 -2 58t2 12q4 272 9 277t7 -1q-2 -74 -73.5 -167t-137.5 -93q-29 0 -101.5 90 t-107.5 164q-8 -51 -11 -171t-3 -194q0 -20 3 -36.5t5 -26.5q0 -4 -1 -11.5t1 -9.5q0 -8 1 -23.5t1 -23.5q0 -23 -24.5 -47t-53.5 -24q-37 0 -55 23.5t-18 80.5z" />
<glyph unicode="&#xe000;" horiz-adv-x="1060" d="M0 1060h1060v-1060h-1060v1060z" />
<glyph unicode="&#xfb01;" horiz-adv-x="976" d="M670 1274q0 31 19 53.5t138 61.5l58 18q12 4 27.5 10t53.5 29q16 8 25.5 13t20.5 7h7h5q4 -4 9 -13t5 -15t-2 -11.5t-113 -101.5l-71 -63q-35 -33 -60.5 -43.5t-52.5 -10.5q-31 0 -50 16.5t-19 49.5zM702 174q-1 20 -1 43q0 33 2 71q3 62 16 199l26 347q6 80 30 125 t69 45q23 0 33 -16.5t10 -57.5q0 -53 -18.5 -217t-18.5 -334q0 -113 11 -190.5t11 -79.5q-2 -41 -24.5 -63.5t-61.5 -22.5q-49 0 -66.5 34.5t-17.5 116.5zM-55 303q2 16 31.5 46t195.5 165q-3 114 -3 215q0 504 77 679q92 210 282 210q96 0 168 -70.5t72 -161.5 q0 -39 -15.5 -60t-39.5 -19q-23 0 -36 11t-30 64q-23 74 -56.5 104t-76.5 30q-123 0 -175 -235q-38 -168 -38 -455q0 -112 6 -242q174 100 252 142t107 42q10 0 14 -5t4 -13q0 -16 -8 -35t-354 -242q8 -299 38.5 -635t30.5 -395q0 -102 -14.5 -123.5t-44.5 -21.5 q-47 0 -71.5 74.5t-78.5 1028.5q-51 -33 -120.5 -68.5t-104.5 -41.5q-2 -2 -4 -2t-4 2q-2 0 -3 3t-1 9z" />
<glyph unicode="&#xfb02;" horiz-adv-x="1210" d="M708 297q0 14 2 27q2 338 17.5 673.5t19.5 454.5q0 88 30 131t79 43q18 0 27.5 -12t11.5 -31q0 -2 -21 -353q-17 -293 -17 -539q0 -49 1 -97l2 -240q0 -104 28.5 -149t90.5 -45q59 0 126.5 41t116.5 106q51 70 81 100.5t46 30.5q8 -2 12.5 -7t4.5 -21q0 -113 -178 -248 q-176 -133 -328 -133h-4q-78 0 -112 41t-34 155q-2 58 -2 72zM-55 303q2 16 31.5 46t195.5 165q-3 114 -3 215q0 504 77 679q92 210 282 210q96 0 168 -70.5t72 -161.5q0 -39 -15.5 -60t-39.5 -19q-23 0 -36 11t-30 64q-23 74 -56.5 104t-76.5 30q-123 0 -175 -235 q-38 -168 -38 -455q0 -112 6 -242q174 100 252 142t107 42q10 0 14 -5t4 -13q0 -16 -8 -35t-354 -242q8 -299 38.5 -635t30.5 -395q0 -102 -14.5 -123.5t-44.5 -21.5q-47 0 -71.5 74.5t-78.5 1028.5q-51 -33 -120.5 -68.5t-104.5 -41.5q-2 -2 -4 -2t-4 2q-2 0 -3 3t-1 9z " />
<glyph unicode="&#xfb03;" horiz-adv-x="1581" d="M1274 1274q0 31 19 53.5t138 61.5l58 18q12 4 27.5 10t53.5 29q16 8 25.5 13t20.5 7h7h5q4 -4 9 -13t5 -15t-2 -11.5t-113 -101.5l-71 -63q-35 -33 -60.5 -43.5t-52.5 -10.5q-31 0 -50 16.5t-19 49.5zM1306 174q-1 20 -1 43q0 33 2 71q3 62 16 199l26 347q6 80 30 125 t69 45q23 0 33 -16.5t10 -57.5q0 -53 -18.5 -217t-18.5 -334q0 -113 11 -190.5t11 -79.5q-2 -41 -24.5 -63.5t-61.5 -22.5q-49 0 -66.5 34.5t-17.5 116.5zM549 303q2 16 31.5 46t195.5 165q-3 114 -3 215q0 504 77 679q92 210 282 210q96 0 168 -70.5t72 -161.5 q0 -39 -15.5 -60t-39.5 -19q-23 0 -36 11t-30 64q-23 74 -56.5 104t-76.5 30q-123 0 -175 -235q-38 -168 -38 -455q0 -112 6 -242q174 100 252 142t107 42q10 0 14 -5t4 -13q0 -16 -8 -35t-354 -242q8 -299 38.5 -635t30.5 -395q0 -102 -14.5 -123.5t-44.5 -21.5 q-47 0 -71.5 74.5t-78.5 1028.5q-51 -33 -120.5 -68.5t-104.5 -41.5q-2 -2 -4 -2t-4 2q-2 0 -3 3t-1 9zM-55 303q2 16 31.5 46t195.5 165q-3 114 -3 215q0 504 77 679q92 210 282 210q96 0 168 -70.5t72 -161.5q0 -39 -15.5 -60t-39.5 -19q-23 0 -36 11t-30 64 q-23 74 -56.5 104t-76.5 30q-123 0 -175 -235q-38 -168 -38 -455q0 -112 6 -242q174 100 252 142t107 42q10 0 14 -5t4 -13q0 -16 -8 -35t-354 -242q8 -299 38.5 -635t30.5 -395q0 -102 -14.5 -123.5t-44.5 -21.5q-47 0 -71.5 74.5t-78.5 1028.5q-51 -33 -120.5 -68.5 t-104.5 -41.5q-2 -2 -4 -2t-4 2q-2 0 -3 3t-1 9z" />
<glyph unicode="&#xfb04;" horiz-adv-x="1814" d="M1312 297q0 14 2 27q2 338 17.5 673.5t19.5 454.5q0 88 30 131t79 43q18 0 27.5 -12t11.5 -31q0 -2 -21 -353q-17 -293 -17 -539q0 -49 1 -97l2 -240q0 -104 28.5 -149t90.5 -45q59 0 126.5 41t116.5 106q51 70 81 100.5t46 30.5q8 -2 12.5 -7t4.5 -21q0 -113 -178 -248 q-176 -133 -328 -133h-4q-78 0 -112 41t-34 155q-2 58 -2 72zM549 303q2 16 31.5 46t195.5 165q-3 114 -3 215q0 504 77 679q92 210 282 210q96 0 168 -70.5t72 -161.5q0 -39 -15.5 -60t-39.5 -19q-23 0 -36 11t-30 64q-23 74 -56.5 104t-76.5 30q-123 0 -175 -235 q-38 -168 -38 -455q0 -112 6 -242q174 100 252 142t107 42q10 0 14 -5t4 -13q0 -16 -8 -35t-354 -242q8 -299 38.5 -635t30.5 -395q0 -102 -14.5 -123.5t-44.5 -21.5q-47 0 -71.5 74.5t-78.5 1028.5q-51 -33 -120.5 -68.5t-104.5 -41.5q-2 -2 -4 -2t-4 2q-2 0 -3 3t-1 9z M-55 303q2 16 31.5 46t195.5 165q-3 114 -3 215q0 504 77 679q92 210 282 210q96 0 168 -70.5t72 -161.5q0 -39 -15.5 -60t-39.5 -19q-23 0 -36 11t-30 64q-23 74 -56.5 104t-76.5 30q-123 0 -175 -235q-38 -168 -38 -455q0 -112 6 -242q174 100 252 142t107 42q10 0 14 -5 t4 -13q0 -16 -8 -35t-354 -242q8 -299 38.5 -635t30.5 -395q0 -102 -14.5 -123.5t-44.5 -21.5q-47 0 -71.5 74.5t-78.5 1028.5q-51 -33 -120.5 -68.5t-104.5 -41.5q-2 -2 -4 -2t-4 2q-2 0 -3 3t-1 9z" />
<glyph horiz-adv-x="401" d="M0 1802q0 6 15.5 33t27.5 43l57 74q123 158 189.5 238.5t77.5 80.5q4 0 19 -24.5t15 -34.5q-2 -16 -27.5 -45t-135.5 -131l-107 -99q-39 -35 -69.5 -93t-45.5 -58q-6 0 -11 5t-5 11z" />
<glyph horiz-adv-x="401" d="M0 1108q0 6 15.5 32.5t27.5 43.5l57 73q135 174 195.5 247t71.5 73q8 -2 21 -26.5t13 -32.5q0 -12 -15 -32t-148 -145l-107 -100q-37 -35 -68.5 -92t-46.5 -57q-6 0 -11 5t-5 11z" />
<glyph horiz-adv-x="415" d="M0 2028q0 37 16.5 71.5t42.5 38.5q37 -31 41 -38t4 -17q0 -78 -14 -121t-41 -43t-38 28t-11 81zM303 1995q0 131 13.5 156.5t41.5 27.5q25 0 41.5 -25.5t16.5 -70.5q-2 -49 -30 -111.5t-56 -62.5q-14 0 -20.5 8t-6.5 78z" />
<glyph horiz-adv-x="331" d="M66 174q0 39 3 96.5t15 216.5l27 347q6 88 28.5 129t67.5 41q25 0 35 -18.5t10 -55.5q0 -45 -19.5 -246t-17.5 -305q-2 -37 0 -75t4 -71q4 -31 10.5 -68.5t6.5 -55.5q0 -41 -20.5 -63.5t-63.5 -22.5q-49 0 -67.5 32.5t-18.5 118.5z" />
<glyph horiz-adv-x="415" d="M0 1333q0 49 19.5 80t39.5 31q12 0 28.5 -17.5t16.5 -40.5q0 -78 -13 -119.5t-42 -41.5q-27 0 -38 22.5t-11 85.5zM303 1300q0 127 13.5 156t41.5 29q25 0 40.5 -26.5t17.5 -72.5q0 -51 -29 -111.5t-57 -60.5q-14 0 -20.5 8t-6.5 78z" />
<glyph horiz-adv-x="591" d="M0 2111q0 14 8 30t15 16q-16 0 36 -55.5t205 -55.5q55 -2 108.5 15.5t139.5 74.5q72 47 72 48t2 1l3 -5q3 -5 3 -7q0 -41 -119 -137.5t-225 -96.5q-109 0 -178.5 54.5t-69.5 117.5z" />
<glyph horiz-adv-x="591" d="M0 1417q0 16 7 29.5t16 13.5q-6 -2 38.5 -56t202.5 -54q53 0 108.5 17t139.5 75l72 49h2q2 -2 3 -6t3 -6q0 -47 -124 -141.5t-220 -94.5q-109 0 -178.5 55.5t-69.5 118.5z" />
</font>
</defs>
</svg>
